<svg width="159" height="101" viewBox="0 0 159 101" fill="none" xmlns="http://www.w3.org/2000/svg">
<path d="M11.392 15.584C11.392 15.6267 11.36 15.648 11.296 15.648C10.6347 15.7547 9.94133 15.84 9.216 15.904C8.512 15.9467 7.84 16.0213 7.2 16.128H7.168C7.06133 17.472 6.99733 18.816 6.976 20.16C6.95467 21.4827 6.93333 22.752 6.912 23.968C6.48533 24.0107 5.97333 24.0427 5.376 24.064C4.8 24.0853 4.224 24.096 3.648 24.096C3.072 24.096 2.56 24.0853 2.112 24.064C1.68533 24.0427 1.42933 24.0107 1.344 23.968L1.312 23.936C1.312 22.656 1.312 21.4613 1.312 20.352C1.312 19.2213 1.312 18.1333 1.312 17.088C1.33333 16.0427 1.344 14.9973 1.344 13.952C1.344 12.8853 1.344 11.7653 1.344 10.592C1.36533 9.41867 1.376 8.16 1.376 6.816C1.376 5.45067 1.376 3.936 1.376 2.272V2.24C1.73867 2.176 2.26133 2.112 2.944 2.048C3.62667 1.984 4.39467 1.92 5.248 1.856C6.12267 1.792 7.04 1.74933 8 1.728C8.98133 1.68533 9.94133 1.67467 10.88 1.696C11.8187 1.696 12.704 1.73867 13.536 1.824C14.368 1.90933 15.0827 2.02667 15.68 2.176C15.68 2.45333 15.68 2.80533 15.68 3.232C15.7013 3.65867 15.712 4.10667 15.712 4.576C15.712 5.024 15.712 5.46133 15.712 5.888C15.712 6.29333 15.7013 6.63467 15.68 6.912C15.104 6.95467 14.4533 6.99733 13.728 7.04C13.024 7.08267 12.288 7.12533 11.52 7.168C10.7733 7.18933 10.016 7.22133 9.248 7.264C8.50133 7.30667 7.79733 7.36 7.136 7.424C6.90133 7.97867 6.80533 8.512 6.848 9.024C6.89067 9.536 7.008 9.96267 7.2 10.304C7.22133 10.3253 7.24267 10.336 7.264 10.336C7.56267 10.3787 7.89333 10.4107 8.256 10.432C8.64 10.432 9.01333 10.432 9.376 10.432C9.73867 10.432 10.0907 10.4213 10.432 10.4C10.7733 10.3787 11.0613 10.3573 11.296 10.336C11.36 10.4853 11.392 10.7733 11.392 11.2C11.4133 11.6267 11.4133 12.1067 11.392 12.64C11.3707 13.152 11.3493 13.6747 11.328 14.208C11.328 14.7413 11.3493 15.2 11.392 15.584ZM19.1085 7.904C19.5992 7.92533 20.1858 7.92533 20.8685 7.904H21.4125V8C21.3912 10.5813 21.3378 13.216 21.2525 15.904C21.1885 18.592 21.2312 21.2267 21.3805 23.808C21.2738 23.936 21.0072 24 20.5805 24C20.1538 24.0213 19.6845 24.0213 19.1725 24C18.6818 24 18.2125 23.9893 17.7645 23.968C17.3165 23.9467 17.0178 23.9573 16.8685 24C16.9752 22.656 17.0178 21.2907 16.9965 19.904C16.9965 18.5173 16.9752 17.1413 16.9325 15.776C16.8898 14.4107 16.8685 13.0667 16.8685 11.744C16.8685 10.4 16.9325 9.09867 17.0605 7.84V7.808C17.1458 7.78667 17.2845 7.78667 17.4765 7.808C17.6898 7.82933 17.8498 7.84 17.9565 7.84C18.2338 7.86133 18.6178 7.88267 19.1085 7.904ZM16.9645 3.424C16.9218 2.74133 16.9112 1.90933 16.9325 0.927999L21.2845 1.024C21.2845 1.152 21.2845 1.38667 21.2845 1.728C21.3058 2.048 21.3165 2.41066 21.3165 2.816C21.3378 3.2 21.3485 3.60533 21.3485 4.032C21.3698 4.43733 21.3805 4.8 21.3805 5.12C21.2952 5.248 21.0925 5.33333 20.7725 5.376C20.4738 5.41867 20.1112 5.44 19.6845 5.44C19.2792 5.41867 18.8418 5.39733 18.3725 5.376C17.9032 5.33333 17.4658 5.32267 17.0605 5.344C17.0605 4.72533 17.0285 4.08533 16.9645 3.424ZM27.8135 8.928C27.8135 9.16267 27.8242 9.42933 27.8455 9.728C27.9522 9.664 28.0802 9.58933 28.2295 9.504C28.4002 9.41867 28.5388 9.33333 28.6455 9.248C29.0935 8.928 29.5948 8.672 30.1495 8.48C30.7042 8.288 31.2695 8.18133 31.8455 8.16C32.4428 8.13867 33.0188 8.20267 33.5735 8.352C34.1282 8.50133 34.6295 8.768 35.0775 9.152C35.2908 9.344 35.4508 9.74933 35.5575 10.368C35.6855 10.9653 35.7602 11.6907 35.7815 12.544C35.8242 13.3973 35.8348 14.336 35.8135 15.36C35.8135 16.3627 35.8028 17.3867 35.7815 18.432C35.7602 19.456 35.7388 20.448 35.7175 21.408C35.6962 22.368 35.7068 23.2107 35.7495 23.936C35.0028 24.0427 34.3308 24.0853 33.7335 24.064C33.1575 24.064 32.4962 24.064 31.7495 24.064C31.7068 23.5733 31.6855 23.0187 31.6855 22.4C31.6855 21.7813 31.6855 21.1413 31.6855 20.48C31.7068 19.8187 31.7068 19.1573 31.6855 18.496C31.6855 17.8347 31.6642 17.216 31.6215 16.64C31.6002 16.384 31.5788 16.1067 31.5575 15.808C31.5362 15.488 31.4935 15.1787 31.4295 14.88C31.3868 14.5813 31.3122 14.3147 31.2055 14.08C31.1202 13.8453 30.9922 13.664 30.8215 13.536C30.8002 13.5147 30.7788 13.504 30.7575 13.504C30.7362 13.504 30.7148 13.4933 30.6935 13.472C30.5228 13.3867 30.2668 13.3227 29.9255 13.28C29.6055 13.216 29.2855 13.2373 28.9655 13.344C28.6455 13.4293 28.3575 13.6213 28.1015 13.92C27.8455 14.1973 27.6962 14.624 27.6535 15.2C27.6108 15.9467 27.6002 16.6827 27.6215 17.408C27.6428 18.112 27.6642 18.8267 27.6855 19.552C27.7282 20.256 27.7495 20.96 27.7495 21.664C27.7495 22.368 27.7068 23.072 27.6215 23.776V23.904C27.2588 24.0107 26.9388 24.0747 26.6615 24.096C26.4055 24.1173 26.1388 24.1173 25.8615 24.096C25.5842 24.096 25.2748 24.0853 24.9335 24.064C24.5922 24.0427 24.1655 24.0533 23.6535 24.096C23.6535 21.472 23.6215 18.848 23.5575 16.224C23.5148 13.6 23.5362 10.88 23.6215 8.064C23.8775 8.08533 24.0908 8.10667 24.2615 8.128C24.4322 8.128 24.5922 8.128 24.7415 8.128C24.8908 8.128 25.0508 8.128 25.2215 8.128C25.3922 8.10667 25.6055 8.08533 25.8615 8.064C25.9468 8.064 26.0962 8.05333 26.3095 8.032C26.5228 7.98933 26.7362 7.95733 26.9495 7.936C27.1628 7.91467 27.3548 7.91467 27.5255 7.936C27.6962 7.936 27.7815 7.968 27.7815 8.032C27.8242 8.39467 27.8348 8.69333 27.8135 8.928ZM46.2838 2.848C46.3051 2.61333 46.3264 2.28267 46.3478 1.856V1.504C46.3478 1.48267 46.4864 1.46133 46.7638 1.44C47.0624 1.39733 47.4144 1.376 47.8198 1.376C48.2464 1.35467 48.6944 1.35467 49.1638 1.376C49.6331 1.376 50.0384 1.408 50.3798 1.472V3.584C50.3798 7.14667 50.4331 10.6667 50.5398 14.144C50.6464 17.6213 50.6571 20.896 50.5718 23.968C49.9104 23.968 49.1851 23.9787 48.3958 24C47.6064 24.0427 46.8918 24.0213 46.2517 23.936C46.2304 23.8933 46.2198 23.8187 46.2198 23.712C46.2198 23.4987 46.2091 23.328 46.1878 23.2C46.1878 23.072 46.1878 22.8907 46.1878 22.656C46.1451 22.5493 46.0918 22.4747 46.0278 22.432C45.9851 22.368 45.9318 22.4 45.8678 22.528C45.5478 23.168 45.1211 23.584 44.5878 23.776C44.0544 23.9467 43.4891 23.9893 42.8918 23.904C41.6758 23.8187 40.7158 23.5093 40.0118 22.976C39.3078 22.4213 38.7744 21.728 38.4118 20.896C38.0704 20.0427 37.8358 19.0933 37.7078 18.048C37.6011 17.0027 37.5371 15.9467 37.5158 14.88C37.5158 14.1333 37.5584 13.408 37.6438 12.704C37.7504 12 37.8998 11.36 38.0918 10.784C38.3051 10.1867 38.5718 9.68533 38.8918 9.28C39.2331 8.85333 39.6384 8.55467 40.1078 8.384C40.6838 8.17067 41.3131 8.04267 41.9958 8C42.6998 7.936 43.3611 7.936 43.9798 8C44.5984 8.04267 45.1211 8.13867 45.5478 8.288C45.9744 8.43733 46.2091 8.608 46.2517 8.8C46.2304 7.79733 46.2198 6.98667 46.2198 6.368C46.2198 5.74933 46.2198 5.25867 46.2198 4.896C46.2198 4.512 46.2198 4.224 46.2198 4.032C46.2411 3.81867 46.2517 3.62667 46.2517 3.456C46.2731 3.264 46.2838 3.06133 46.2838 2.848ZM42.3158 12.224C41.8038 12.608 41.4944 13.1733 41.3878 13.92C41.2811 14.2187 41.2171 14.528 41.1958 14.848C41.1744 15.168 41.1638 15.4773 41.1638 15.776C41.1638 16.3093 41.2278 16.832 41.3558 17.344C41.4838 17.8347 41.6758 18.2827 41.9318 18.688C42.1878 19.072 42.4971 19.3813 42.8598 19.616C43.2224 19.8507 43.6278 19.968 44.0758 19.968C44.6091 19.968 45.0251 19.8507 45.3238 19.616C45.6438 19.3813 45.8784 19.0613 46.0278 18.656C46.1984 18.2507 46.2944 17.7707 46.3158 17.216C46.3584 16.64 46.3798 16.0107 46.3798 15.328C46.3798 14.496 46.3584 13.8453 46.3158 13.376C46.2944 12.8853 46.2198 12.512 46.0918 12.256C45.9638 12 45.7611 11.84 45.4838 11.776C45.2278 11.6907 44.8758 11.648 44.4278 11.648C43.5531 11.648 42.8491 11.84 42.3158 12.224ZM13.888 39.792C14.1013 39.792 14.272 39.8027 14.4 39.824V39.856C13.8027 41.776 13.0987 43.6533 12.288 45.488C11.4773 47.3227 10.6347 49.1573 9.76 50.992C8.88533 52.8053 8.032 54.6293 7.2 56.464C6.368 58.2773 5.632 60.1227 4.992 62C4.864 61.9787 4.736 61.968 4.608 61.968C4.48 61.968 4.34133 61.968 4.192 61.968C3.744 61.968 3.25333 61.9787 2.72 62C2.18667 62.0427 1.67467 62.064 1.184 62.064C1.056 62.064 0.928 62.064 0.8 62.064C0.672 62.064 0.544 62.0533 0.416 62.032H0.352C0.906667 60.304 1.55733 58.5013 2.304 56.624C3.05067 54.7253 3.79733 52.8373 4.544 50.96V50.896C4.30933 49.9573 4.01067 49.0293 3.648 48.112C3.28533 47.1733 2.90133 46.2453 2.496 45.328C2.112 44.4107 1.73867 43.4933 1.376 42.576C1.01333 41.6587 0.725333 40.752 0.512 39.856C0.938667 39.856 1.38667 39.824 1.856 39.76C2.32533 39.696 2.79467 39.664 3.264 39.664C3.52 39.664 3.776 39.6853 4.032 39.728C4.288 39.7493 4.53333 39.8133 4.768 39.92C4.87467 40.3893 5.024 40.944 5.216 41.584C5.42933 42.224 5.64267 42.8747 5.856 43.536C6.09067 44.1973 6.32533 44.8267 6.56 45.424C6.816 46.0213 7.04 46.5227 7.232 46.928C7.44533 46.544 7.65867 46.0533 7.872 45.456C8.10667 44.8373 8.33067 44.1973 8.544 43.536C8.77867 42.8747 9.00267 42.224 9.216 41.584C9.42933 40.944 9.632 40.4107 9.824 39.984C10.208 39.8987 10.72 39.8453 11.36 39.824C12.0213 39.7813 12.6293 39.76 13.184 39.76C13.44 39.76 13.6747 39.7707 13.888 39.792ZM12.9958 48.368C13.1238 47.9627 13.2198 47.6427 13.2838 47.408C13.4331 47.088 13.6678 46.8107 13.9878 46.576C14.3291 46.3413 14.7131 46.1493 15.1398 46C15.5878 45.8293 16.0571 45.712 16.5477 45.648C17.0598 45.584 17.5718 45.552 18.0838 45.552C18.5104 45.5947 18.9158 45.6053 19.2998 45.584C19.7051 45.5413 20.1318 45.5413 20.5798 45.584C21.2624 45.6267 21.9131 45.7653 22.5318 46C23.1504 46.2133 23.6838 46.5333 24.1318 46.96C24.4304 47.152 24.6651 47.4613 24.8358 47.888C25.0064 48.3147 25.1344 48.816 25.2198 49.392C25.3051 49.9467 25.3584 50.5653 25.3798 51.248C25.4011 51.9093 25.4224 52.592 25.4438 53.296C25.4224 53.9147 25.3904 54.6187 25.3478 55.408C25.3264 56.1973 25.2731 56.9547 25.1878 57.68C25.1238 58.4053 25.0278 59.056 24.8998 59.632C24.7931 60.208 24.6331 60.6027 24.4198 60.816C24.0571 61.328 23.5771 61.6907 22.9798 61.904C22.4038 62.1173 21.7744 62.2453 21.0918 62.288C20.4091 62.352 19.7051 62.352 18.9798 62.288C18.2544 62.2453 17.5931 62.224 16.9958 62.224C15.9078 62.032 14.9904 61.5627 14.2438 60.816C13.6678 60.304 13.2731 59.664 13.0598 58.896C12.8464 58.128 12.7184 57.328 12.6758 56.496C12.6331 55.6427 12.6224 54.7893 12.6438 53.936C12.6864 53.0827 12.6758 52.304 12.6118 51.6C12.6118 51.216 12.6224 50.8427 12.6438 50.48C12.6651 50.096 12.7078 49.7013 12.7718 49.296C12.7931 49.0613 12.8678 48.752 12.9958 48.368ZM18.3718 50.48C17.9238 50.608 17.5611 50.8427 17.2838 51.184C17.1558 51.2693 17.0598 51.4827 16.9958 51.824C16.9104 52.5067 16.8678 53.1893 16.8678 53.872C16.8678 54.5333 16.8464 55.2373 16.8038 55.984C16.7824 56.4747 16.9104 56.8587 17.1878 57.136C17.4651 57.392 17.7958 57.5733 18.1798 57.68C18.5851 57.7653 19.0011 57.7867 19.4278 57.744C19.8544 57.68 20.2064 57.5733 20.4838 57.424C20.8464 57.2533 21.0918 56.9013 21.2198 56.368C21.3051 55.6853 21.3691 55.0027 21.4118 54.32C21.4758 53.616 21.4438 52.9547 21.3158 52.336C21.2091 51.5893 20.8998 51.0453 20.3878 50.704C19.8758 50.3627 19.2038 50.288 18.3718 50.48ZM35.1795 61.072C35.2008 60.8373 35.2008 60.5707 35.1795 60.272C35.0728 60.336 34.9342 60.4107 34.7635 60.496C34.6142 60.5813 34.4862 60.6667 34.3795 60.752C33.9315 61.072 33.4302 61.328 32.8755 61.52C32.3208 61.712 31.7448 61.8187 31.1475 61.84C30.5715 61.8613 30.0062 61.7973 29.4515 61.648C28.8968 61.4987 28.3955 61.232 27.9475 60.848C27.7342 60.656 27.5635 60.2613 27.4355 59.664C27.3288 59.0453 27.2542 58.3093 27.2115 57.456C27.1902 56.6027 27.1795 55.6747 27.1795 54.672C27.2008 53.648 27.2222 52.624 27.2435 51.6C27.2648 50.5547 27.2862 49.552 27.3075 48.592C27.3288 47.632 27.3182 46.7893 27.2755 46.064C28.0222 45.9573 28.6835 45.9147 29.2595 45.936C29.8568 45.936 30.5288 45.936 31.2755 45.936C31.3182 46.4267 31.3395 46.9813 31.3395 47.6C31.3395 48.2187 31.3288 48.8587 31.3075 49.52C31.3075 50.1813 31.3075 50.8427 31.3075 51.504C31.3288 52.1653 31.3608 52.784 31.4035 53.36C31.4248 53.616 31.4462 53.904 31.4675 54.224C31.4888 54.5227 31.5208 54.8213 31.5635 55.12C31.6275 55.4187 31.7022 55.6853 31.7875 55.92C31.8942 56.1547 32.0328 56.336 32.2035 56.464C32.2248 56.4853 32.2462 56.496 32.2675 56.496C32.2888 56.496 32.3102 56.5067 32.3315 56.528C32.5022 56.6133 32.7475 56.688 33.0675 56.752C33.4088 56.7947 33.7395 56.7733 34.0595 56.688C34.3795 56.5813 34.6675 56.3893 34.9235 56.112C35.1795 55.8133 35.3288 55.376 35.3715 54.8C35.4142 54.0747 35.4248 53.3493 35.4035 52.624C35.3822 51.8987 35.3502 51.184 35.3075 50.48C35.2862 49.7547 35.2648 49.04 35.2435 48.336C35.2435 47.632 35.2968 46.928 35.4035 46.224V46.096C35.7662 45.9893 36.0755 45.9253 36.3315 45.904C36.6088 45.8827 36.8862 45.8827 37.1635 45.904C37.4408 45.904 37.7502 45.9147 38.0915 45.936C38.4328 45.9573 38.8595 45.9467 39.3715 45.904C39.3715 48.528 39.3928 51.152 39.4355 53.776C39.4995 56.4 39.4888 59.12 39.4035 61.936C39.1475 61.9147 38.9342 61.904 38.7635 61.904C38.5928 61.8827 38.4328 61.872 38.2835 61.872C38.1342 61.872 37.9742 61.8827 37.8035 61.904C37.6328 61.904 37.4195 61.9147 37.1635 61.936C37.0782 61.936 36.9288 61.9573 36.7155 62C36.5022 62.0213 36.2888 62.0427 36.0755 62.064C35.8622 62.0853 35.6702 62.0853 35.4995 62.064C35.3288 62.064 35.2435 62.032 35.2435 61.968C35.2008 61.6053 35.1795 61.3067 35.1795 61.072ZM46.0978 46.8C46.1191 46.864 46.1298 46.9707 46.1298 47.12C46.2151 47.0773 46.4071 46.992 46.7058 46.864C47.0258 46.736 47.3351 46.6187 47.6338 46.512C48.0391 46.384 48.4978 46.288 49.0098 46.224C49.5218 46.1387 50.0018 46.0853 50.4498 46.064C50.8978 46.0427 51.2711 46.0427 51.5698 46.064C51.8898 46.064 52.0498 46.0747 52.0498 46.096C52.0498 46.8213 52.0391 47.4613 52.0178 48.016C52.0178 48.5707 52.0178 49.072 52.0178 49.52C52.0178 49.9467 52.0178 50.3413 52.0178 50.704C52.0178 51.0667 52.0284 51.408 52.0498 51.728L51.7618 51.632C51.6551 51.5893 51.5378 51.5573 51.4098 51.536C51.3031 51.4933 51.1964 51.4507 51.0898 51.408C50.8338 51.344 50.5671 51.2907 50.2898 51.248C50.0338 51.2053 49.8951 51.184 49.8738 51.184C49.2978 51.12 48.7644 51.088 48.2738 51.088C47.8044 51.088 47.3884 51.1627 47.0258 51.312C46.6844 51.4613 46.4178 51.696 46.2258 52.016C46.0338 52.336 45.9484 52.7947 45.9698 53.392C45.9911 54.1387 46.0124 54.8427 46.0338 55.504C46.0551 56.1653 46.0658 56.8373 46.0658 57.52C46.0658 58.1813 46.0658 58.864 46.0658 59.568C46.0871 60.2507 46.0978 60.9867 46.0978 61.776V61.904C45.7351 62.0107 45.4044 62.0747 45.1058 62.096C44.8071 62.1173 44.4978 62.1173 44.1778 62.096C43.8578 62.096 43.5058 62.0853 43.1218 62.064C42.7591 62.0427 42.3218 62.0533 41.8098 62.096C41.8098 59.472 41.7778 56.848 41.7138 54.224C41.6711 51.6 41.6924 48.88 41.7778 46.064C42.0338 46.0853 42.2471 46.1067 42.4178 46.128C42.5884 46.128 42.7484 46.128 42.8978 46.128C43.0471 46.128 43.2071 46.128 43.3778 46.128C43.5484 46.1067 43.7618 46.0853 44.0178 46.064C44.1031 46.064 44.2524 46.0533 44.4658 46.032C44.7004 46.0107 44.9351 45.9893 45.1698 45.968C45.4258 45.9467 45.6391 45.9467 45.8098 45.968C46.0018 45.968 46.0978 45.9893 46.0978 46.032C46.0978 46.2027 46.0978 46.3307 46.0978 46.416C46.0978 46.5013 46.0978 46.576 46.0978 46.64C46.0978 46.6827 46.0978 46.736 46.0978 46.8ZM69.767 53.584C69.767 53.6267 69.735 53.648 69.671 53.648C69.0097 53.7547 68.3163 53.84 67.591 53.904C66.887 53.9467 66.215 54.0213 65.575 54.128H65.543C65.4363 55.472 65.3723 56.816 65.351 58.16C65.3297 59.4827 65.3083 60.752 65.287 61.968C64.8603 62.0107 64.3483 62.0427 63.751 62.064C63.175 62.0853 62.599 62.096 62.023 62.096C61.447 62.096 60.935 62.0853 60.487 62.064C60.0603 62.0427 59.8043 62.0107 59.719 61.968L59.687 61.936C59.687 60.656 59.687 59.4613 59.687 58.352C59.687 57.2213 59.687 56.1333 59.687 55.088C59.7083 54.0427 59.719 52.9973 59.719 51.952C59.719 50.8853 59.719 49.7653 59.719 48.592C59.7403 47.4187 59.751 46.16 59.751 44.816C59.751 43.4507 59.751 41.936 59.751 40.272V40.24C60.1137 40.176 60.6363 40.112 61.319 40.048C62.0017 39.984 62.7697 39.92 63.623 39.856C64.4977 39.792 65.415 39.7493 66.375 39.728C67.3563 39.6853 68.3163 39.6747 69.255 39.696C70.1937 39.696 71.079 39.7387 71.911 39.824C72.743 39.9093 73.4577 40.0267 74.055 40.176C74.055 40.4533 74.055 40.8053 74.055 41.232C74.0763 41.6587 74.087 42.1067 74.087 42.576C74.087 43.024 74.087 43.4613 74.087 43.888C74.087 44.2933 74.0763 44.6347 74.055 44.912C73.479 44.9547 72.8283 44.9973 72.103 45.04C71.399 45.0827 70.663 45.1253 69.895 45.168C69.1483 45.1893 68.391 45.2213 67.623 45.264C66.8763 45.3067 66.1723 45.36 65.511 45.424C65.2763 45.9787 65.1803 46.512 65.223 47.024C65.2657 47.536 65.383 47.9627 65.575 48.304C65.5963 48.3253 65.6177 48.336 65.639 48.336C65.9377 48.3787 66.2683 48.4107 66.631 48.432C67.015 48.432 67.3883 48.432 67.751 48.432C68.1137 48.432 68.4657 48.4213 68.807 48.4C69.1483 48.3787 69.4363 48.3573 69.671 48.336C69.735 48.4853 69.767 48.7733 69.767 49.2C69.7883 49.6267 69.7883 50.1067 69.767 50.64C69.7457 51.152 69.7243 51.6747 69.703 52.208C69.703 52.7413 69.7243 53.2 69.767 53.584ZM83.8178 45.968C84.3511 45.9893 84.9591 46.0213 85.6418 46.064C85.6631 46.192 85.6738 46.32 85.6738 46.448C85.6951 46.576 85.7058 46.704 85.7058 46.832V47.152C85.6418 49.456 85.6524 51.728 85.7378 53.968C85.8231 56.1867 85.7911 58.4373 85.6418 60.72C85.6418 60.9973 85.6311 61.2747 85.6098 61.552C85.6098 61.8293 85.4818 61.9893 85.2258 62.032H84.8418C84.5004 62.032 84.1484 62.0213 83.7858 62C83.4444 61.9573 83.1031 61.936 82.7618 61.936C82.5271 61.936 82.2924 61.9573 82.0578 62C81.8444 62.0213 81.6204 62.032 81.3858 62.032C81.2364 61.9893 81.1298 61.904 81.0658 61.776C81.0231 61.648 81.0017 61.4987 81.0017 61.328C81.0017 61.0933 81.0231 60.9013 81.0658 60.752C81.1084 60.6027 81.1298 60.4213 81.1298 60.208C80.6178 60.72 79.9671 61.1573 79.1778 61.52C78.4098 61.8827 77.6524 62.064 76.9058 62.064C76.0738 62.064 75.3591 61.776 74.7618 61.2C74.1858 60.624 73.7058 59.9093 73.3218 59.056C72.9378 58.2027 72.6498 57.2747 72.4578 56.272C72.2871 55.2693 72.2018 54.3413 72.2018 53.488C72.2018 52.4213 72.3404 51.44 72.6178 50.544C72.8951 49.648 73.2684 48.88 73.7378 48.24C74.2284 47.5787 74.8044 47.0667 75.4658 46.704C76.1271 46.32 76.8311 46.1173 77.5778 46.096C77.9618 46.096 78.3138 46.1067 78.6338 46.128C78.9751 46.128 79.2844 46.1813 79.5618 46.288C79.8391 46.3733 80.0844 46.5227 80.2978 46.736C80.5111 46.928 80.6924 47.2053 80.8418 47.568C80.8204 47.2267 80.8311 46.9387 80.8738 46.704C80.9378 46.448 80.9698 46.192 80.9698 45.936C80.9698 45.9147 81.0338 45.904 81.1618 45.904C81.3111 45.8827 81.4711 45.8827 81.6418 45.904C81.8124 45.904 81.9831 45.904 82.1538 45.904C82.3244 45.904 82.4418 45.904 82.5058 45.904C82.8684 45.9253 83.3058 45.9467 83.8178 45.968ZM77.2258 51.024C76.7351 51.4293 76.4364 51.8987 76.3298 52.432C76.2444 52.7093 76.1911 52.9973 76.1698 53.296C76.1484 53.5733 76.1378 53.8507 76.1378 54.128C76.1378 55.088 76.3831 55.9093 76.8738 56.592C77.3858 57.2533 78.0898 57.584 78.9858 57.584C79.5191 57.584 79.9138 57.4987 80.1698 57.328C80.4471 57.136 80.6391 56.88 80.7458 56.56C80.8738 56.2187 80.9378 55.8133 80.9378 55.344C80.9591 54.8533 80.9698 54.3093 80.9698 53.712C80.9698 52.9653 80.9591 52.3787 80.9378 51.952C80.9378 51.504 80.8844 51.1627 80.7778 50.928C80.6924 50.6933 80.5324 50.544 80.2978 50.48C80.0844 50.416 79.7538 50.384 79.3058 50.384C78.4311 50.384 77.7378 50.5973 77.2258 51.024ZM89.4365 46.064C90.2045 46 90.9298 46.0107 91.6125 46.096C91.7618 46.864 91.9112 47.7493 92.0605 48.752C92.2098 49.7333 92.3698 50.736 92.5405 51.76C92.7112 52.784 92.8925 53.7653 93.0845 54.704C93.2765 55.6213 93.4898 56.4 93.7245 57.04C93.9592 56.4 94.1725 55.6 94.3645 54.64C94.5565 53.6587 94.7378 52.6453 94.9085 51.6C95.1005 50.5547 95.3032 49.5413 95.5165 48.56C95.7298 47.5787 95.9645 46.768 96.2205 46.128C96.5832 46.128 96.9245 46.1173 97.2445 46.096C97.5645 46.0747 97.8952 46.0533 98.2365 46.032C98.5778 46.0107 98.9298 46 99.2925 46C99.6552 46 100.061 46.0107 100.509 46.032C100.061 47.248 99.6658 48.5173 99.3245 49.84C99.0045 51.1413 98.6952 52.4747 98.3965 53.84C98.0978 55.2053 97.7992 56.5813 97.5005 57.968C97.2018 59.3333 96.8712 60.688 96.5085 62.032C96.0818 62.096 95.6018 62.128 95.0685 62.128C94.5565 62.1493 94.0232 62.1493 93.4685 62.128C92.9352 62.128 92.4018 62.1173 91.8685 62.096C91.3565 62.096 90.8978 62.096 90.4925 62.096C90.0658 59.4293 89.5752 56.7093 89.0205 53.936C88.4658 51.1627 87.8472 48.5173 87.1645 46C87.9325 46.0853 88.6898 46.1067 89.4365 46.064ZM101.34 48.368C101.468 47.9627 101.564 47.6427 101.628 47.408C101.777 47.088 102.012 46.8107 102.332 46.576C102.673 46.3413 103.057 46.1493 103.484 46C103.932 45.8293 104.401 45.712 104.891 45.648C105.404 45.584 105.916 45.552 106.428 45.552C106.854 45.5947 107.26 45.6053 107.644 45.584C108.049 45.5413 108.476 45.5413 108.924 45.584C109.606 45.6267 110.257 45.7653 110.876 46C111.494 46.2133 112.028 46.5333 112.476 46.96C112.774 47.152 113.009 47.4613 113.18 47.888C113.35 48.3147 113.478 48.816 113.564 49.392C113.649 49.9467 113.702 50.5653 113.724 51.248C113.745 51.9093 113.766 52.592 113.788 53.296C113.766 53.9147 113.734 54.6187 113.692 55.408C113.67 56.1973 113.617 56.9547 113.532 57.68C113.468 58.4053 113.372 59.056 113.244 59.632C113.137 60.208 112.977 60.6027 112.764 60.816C112.401 61.328 111.921 61.6907 111.324 61.904C110.748 62.1173 110.118 62.2453 109.436 62.288C108.753 62.352 108.049 62.352 107.324 62.288C106.598 62.2453 105.937 62.224 105.34 62.224C104.252 62.032 103.334 61.5627 102.588 60.816C102.012 60.304 101.617 59.664 101.404 58.896C101.19 58.128 101.062 57.328 101.02 56.496C100.977 55.6427 100.966 54.7893 100.988 53.936C101.03 53.0827 101.02 52.304 100.956 51.6C100.956 51.216 100.966 50.8427 100.988 50.48C101.009 50.096 101.052 49.7013 101.116 49.296C101.137 49.0613 101.212 48.752 101.34 48.368ZM106.716 50.48C106.268 50.608 105.905 50.8427 105.628 51.184C105.5 51.2693 105.404 51.4827 105.34 51.824C105.254 52.5067 105.212 53.1893 105.212 53.872C105.212 54.5333 105.19 55.2373 105.148 55.984C105.126 56.4747 105.254 56.8587 105.532 57.136C105.809 57.392 106.14 57.5733 106.524 57.68C106.929 57.7653 107.345 57.7867 107.772 57.744C108.198 57.68 108.55 57.5733 108.828 57.424C109.19 57.2533 109.436 56.9013 109.564 56.368C109.649 55.6853 109.713 55.0027 109.756 54.32C109.82 53.616 109.788 52.9547 109.66 52.336C109.553 51.5893 109.244 51.0453 108.732 50.704C108.22 50.3627 107.548 50.288 106.716 50.48ZM120.035 46.8C120.057 46.864 120.067 46.9707 120.067 47.12C120.153 47.0773 120.345 46.992 120.643 46.864C120.963 46.736 121.273 46.6187 121.571 46.512C121.977 46.384 122.435 46.288 122.947 46.224C123.459 46.1387 123.939 46.0853 124.387 46.064C124.835 46.0427 125.209 46.0427 125.507 46.064C125.827 46.064 125.987 46.0747 125.987 46.096C125.987 46.8213 125.977 47.4613 125.955 48.016C125.955 48.5707 125.955 49.072 125.955 49.52C125.955 49.9467 125.955 50.3413 125.955 50.704C125.955 51.0667 125.966 51.408 125.987 51.728L125.699 51.632C125.593 51.5893 125.475 51.5573 125.347 51.536C125.241 51.4933 125.134 51.4507 125.027 51.408C124.771 51.344 124.505 51.2907 124.227 51.248C123.971 51.2053 123.833 51.184 123.811 51.184C123.235 51.12 122.702 51.088 122.211 51.088C121.742 51.088 121.326 51.1627 120.963 51.312C120.622 51.4613 120.355 51.696 120.163 52.016C119.971 52.336 119.886 52.7947 119.907 53.392C119.929 54.1387 119.95 54.8427 119.971 55.504C119.993 56.1653 120.003 56.8373 120.003 57.52C120.003 58.1813 120.003 58.864 120.003 59.568C120.025 60.2507 120.035 60.9867 120.035 61.776V61.904C119.673 62.0107 119.342 62.0747 119.043 62.096C118.745 62.1173 118.435 62.1173 118.115 62.096C117.795 62.096 117.443 62.0853 117.059 62.064C116.697 62.0427 116.259 62.0533 115.747 62.096C115.747 59.472 115.715 56.848 115.651 54.224C115.609 51.6 115.63 48.88 115.715 46.064C115.971 46.0853 116.185 46.1067 116.355 46.128C116.526 46.128 116.686 46.128 116.835 46.128C116.985 46.128 117.145 46.128 117.315 46.128C117.486 46.1067 117.699 46.0853 117.955 46.064C118.041 46.064 118.19 46.0533 118.403 46.032C118.638 46.0107 118.873 45.9893 119.107 45.968C119.363 45.9467 119.577 45.9467 119.747 45.968C119.939 45.968 120.035 45.9893 120.035 46.032C120.035 46.2027 120.035 46.3307 120.035 46.416C120.035 46.5013 120.035 46.576 120.035 46.64C120.035 46.6827 120.035 46.736 120.035 46.8ZM129.609 45.904C130.099 45.9253 130.686 45.9253 131.369 45.904H131.913V46C131.891 48.5813 131.838 51.216 131.753 53.904C131.689 56.592 131.731 59.2267 131.881 61.808C131.774 61.936 131.507 62 131.081 62C130.654 62.0213 130.185 62.0213 129.673 62C129.182 62 128.713 61.9893 128.265 61.968C127.817 61.9467 127.518 61.9573 127.368 62C127.475 60.656 127.518 59.2907 127.497 57.904C127.497 56.5173 127.475 55.1413 127.433 53.776C127.39 52.4107 127.368 51.0667 127.368 49.744C127.368 48.4 127.433 47.0987 127.561 45.84V45.808C127.646 45.7867 127.785 45.7867 127.977 45.808C128.19 45.8293 128.35 45.84 128.457 45.84C128.734 45.8613 129.118 45.8827 129.609 45.904ZM127.465 41.424C127.422 40.7413 127.411 39.9093 127.433 38.928L131.785 39.024C131.785 39.152 131.785 39.3867 131.785 39.728C131.806 40.048 131.817 40.4107 131.817 40.816C131.838 41.2 131.849 41.6053 131.849 42.032C131.87 42.4373 131.881 42.8 131.881 43.12C131.795 43.248 131.593 43.3333 131.273 43.376C130.974 43.4187 130.611 43.44 130.185 43.44C129.779 43.4187 129.342 43.3973 128.873 43.376C128.403 43.3333 127.966 43.3227 127.561 43.344C127.561 42.7253 127.529 42.0853 127.465 41.424ZM138.73 40.144C139.092 40.1653 139.455 40.1547 139.818 40.112V44.4C139.818 44.6773 139.818 44.9653 139.818 45.264C139.839 45.5627 139.85 45.872 139.85 46.192C140.511 46.1707 141.204 46.1387 141.93 46.096C142.676 46.0533 143.594 46 144.682 45.936C144.831 46.1067 144.916 46.3627 144.938 46.704C144.959 47.024 144.959 47.376 144.938 47.76C144.916 48.144 144.884 48.5387 144.842 48.944C144.82 49.328 144.831 49.6587 144.874 49.936H139.914C139.914 51.088 139.914 52.2187 139.914 53.328C139.914 54.416 139.924 55.44 139.946 56.4C140.159 56.6987 140.468 56.9333 140.874 57.104C141.279 57.2747 141.716 57.4133 142.186 57.52C142.655 57.6053 143.124 57.6587 143.594 57.68C144.084 57.7013 144.511 57.7013 144.874 57.68C144.916 57.9787 144.959 58.3093 145.002 58.672C145.044 59.0347 145.076 59.408 145.098 59.792C145.119 60.176 145.108 60.56 145.066 60.944C145.044 61.328 144.98 61.68 144.874 62C144.02 62.0427 143.135 62.0427 142.218 62C141.3 61.936 140.436 61.808 139.626 61.616C138.815 61.424 138.09 61.136 137.45 60.752C136.831 60.368 136.383 59.8453 136.106 59.184C135.828 57.5413 135.668 55.9947 135.626 54.544C135.583 53.072 135.572 51.5573 135.594 50C135.252 50.0213 134.89 50.032 134.506 50.032C134.143 50.032 133.738 50.032 133.29 50.032L133.386 46.128C133.812 46.1493 134.207 46.16 134.57 46.16C134.954 46.16 135.316 46.16 135.658 46.16C135.658 45.6907 135.647 45.1893 135.626 44.656C135.604 44.1013 135.594 43.5467 135.594 42.992C135.594 42.4373 135.594 41.904 135.594 41.392C135.615 40.88 135.647 40.4213 135.69 40.016C135.967 39.9733 136.266 39.9627 136.586 39.984C136.927 40.0053 137.279 40.0373 137.641 40.08C138.004 40.1013 138.367 40.1227 138.73 40.144ZM151.329 54.064C150.859 54.0427 150.518 54.0107 150.305 53.968V54.544C150.326 55.184 150.347 55.7067 150.369 56.112C150.411 56.5173 150.55 56.912 150.785 57.296C151.041 57.7867 151.403 58.1493 151.873 58.384C152.342 58.6187 152.801 58.6933 153.249 58.608C153.697 58.5227 154.07 58.2667 154.369 57.84C154.689 57.392 154.827 56.7307 154.785 55.856C154.998 55.8773 155.286 55.888 155.649 55.888C156.011 55.8667 156.385 55.8453 156.769 55.824C157.174 55.8027 157.558 55.8027 157.921 55.824C158.283 55.824 158.582 55.856 158.817 55.92C158.774 56.4747 158.731 57.0187 158.689 57.552C158.646 58.0853 158.593 58.5867 158.529 59.056C158.465 59.504 158.379 59.8987 158.273 60.24C158.187 60.56 158.07 60.784 157.921 60.912C157.558 61.424 157.089 61.7867 156.513 62C155.937 62.2133 155.307 62.3413 154.625 62.384C153.942 62.4267 153.238 62.4267 152.513 62.384C151.809 62.3413 151.158 62.32 150.561 62.32C149.963 62.2347 149.409 62.0427 148.897 61.744C148.321 61.3387 147.841 60.816 147.457 60.176C147.073 59.5147 146.763 58.8 146.529 58.032C146.294 57.2427 146.134 56.4107 146.049 55.536C145.963 54.6613 145.942 53.7867 145.985 52.912C146.049 52.1227 146.113 51.3653 146.177 50.64C146.262 49.8933 146.433 49.168 146.689 48.464C146.966 47.8453 147.393 47.3227 147.969 46.896C148.545 46.448 149.195 46.1173 149.921 45.904C150.646 45.6693 151.414 45.5413 152.225 45.52C153.035 45.4987 153.825 45.584 154.593 45.776C155.574 45.9467 156.363 46.288 156.961 46.8C157.558 47.312 158.006 47.9307 158.305 48.656C158.625 49.3813 158.817 50.1813 158.881 51.056C158.945 51.9307 158.945 52.816 158.881 53.712C158.731 53.7547 158.443 53.7973 158.017 53.84C157.611 53.8827 157.121 53.9253 156.545 53.968C155.99 54.0107 155.393 54.0427 154.753 54.064C154.113 54.0853 153.494 54.096 152.897 54.096C152.321 54.096 151.798 54.0853 151.329 54.064ZM155.073 49.872C154.859 49.488 154.561 49.2 154.177 49.008C154.006 48.9013 153.835 48.8267 153.665 48.784C153.494 48.72 153.291 48.688 153.057 48.688C152.545 48.688 152.129 48.7413 151.809 48.848C151.489 48.9547 151.233 49.104 151.041 49.296C150.849 49.488 150.699 49.712 150.593 49.968C150.507 50.224 150.443 50.4907 150.401 50.768C150.358 51.0027 150.337 51.1733 150.337 51.28C150.358 51.3653 150.465 51.4293 150.657 51.472C150.849 51.4933 151.147 51.504 151.553 51.504C151.979 51.4827 152.598 51.472 153.409 51.472C153.963 51.472 154.379 51.4827 154.657 51.504C154.934 51.5253 155.126 51.536 155.233 51.536C155.361 51.5147 155.425 51.4827 155.425 51.44C155.425 51.376 155.425 51.2587 155.425 51.088C155.425 50.6613 155.307 50.256 155.073 49.872ZM14.432 80.864C14.9867 81.9093 15.1147 83.232 14.816 84.832H14.784C14.0373 84.96 13.2373 85.0453 12.384 85.088C11.5307 85.1093 10.7307 85.0133 9.984 84.8C10.112 84.224 9.99467 83.744 9.632 83.36C9.26933 82.976 8.832 82.7307 8.32 82.624C7.808 82.5173 7.30667 82.5707 6.816 82.784C6.34667 82.9973 6.06933 83.4027 5.984 84C5.94133 84.1493 5.92 84.2987 5.92 84.448C5.94133 84.576 5.96267 84.7147 5.984 84.864C6.15467 85.376 6.432 85.7173 6.816 85.888C7.2 86.0587 7.616 86.176 8.064 86.24C9.19467 86.368 10.24 86.7307 11.2 87.328C12.1813 87.9253 12.9813 88.6827 13.6 89.6C13.984 90.0907 14.272 90.624 14.464 91.2C14.656 91.7547 14.7627 92.3307 14.784 92.928C14.8267 93.5253 14.784 94.1333 14.656 94.752C14.5493 95.3493 14.368 95.9253 14.112 96.48C13.856 97.1413 13.5147 97.7067 13.088 98.176C12.6613 98.6453 12.1707 99.0293 11.616 99.328C11.0827 99.6267 10.496 99.8507 9.856 100C9.23733 100.128 8.59733 100.181 7.936 100.16C6.99733 100.139 6.05867 99.9787 5.12 99.68C4.20267 99.36 3.38133 98.9227 2.656 98.368C1.93067 97.8133 1.35467 97.1413 0.928 96.352C0.501333 95.5413 0.32 94.624 0.384 93.6V93.504V93.408C1.13067 93.3013 1.952 93.28 2.848 93.344C3.744 93.3867 4.55467 93.3973 5.28 93.376C5.32267 94.0587 5.58933 94.5707 6.08 94.912C6.592 95.2533 7.12533 95.424 7.68 95.424C8.256 95.4027 8.74667 95.2107 9.152 94.848C9.57867 94.4853 9.728 93.9307 9.6 93.184C9.536 92.672 9.344 92.2667 9.024 91.968C8.704 91.648 8.32 91.392 7.872 91.2C7.44533 91.008 6.976 90.8693 6.464 90.784C5.952 90.6773 5.472 90.5813 5.024 90.496C4.59733 90.4107 4.20267 90.272 3.84 90.08C3.47733 89.888 3.14667 89.664 2.848 89.408C1.86667 88.4693 1.22667 87.4347 0.928 86.304C0.650667 85.1733 0.64 84.0747 0.896 83.008C1.152 81.9413 1.632 80.9707 2.336 80.096C3.06133 79.2213 3.936 78.5707 4.96 78.144C5.472 77.9307 6.03733 77.792 6.656 77.728C7.27467 77.6427 7.89333 77.6213 8.512 77.664C9.152 77.6853 9.77067 77.7707 10.368 77.92C10.9867 78.0693 11.552 78.2613 12.064 78.496C13.088 79.0293 13.8773 79.8187 14.432 80.864ZM24.5233 99.072C24.5446 98.8373 24.5446 98.5707 24.5233 98.272C24.4166 98.336 24.2779 98.4107 24.1073 98.496C23.9579 98.5813 23.8299 98.6667 23.7233 98.752C23.2753 99.072 22.7739 99.328 22.2193 99.52C21.6646 99.712 21.0886 99.8187 20.4913 99.84C19.9153 99.8613 19.3499 99.7973 18.7953 99.648C18.2406 99.4987 17.7393 99.232 17.2913 98.848C17.0779 98.656 16.9073 98.2613 16.7793 97.664C16.6726 97.0453 16.5979 96.3093 16.5553 95.456C16.5339 94.6027 16.5233 93.6747 16.5233 92.672C16.5446 91.648 16.5659 90.624 16.5872 89.6C16.6086 88.5547 16.6299 87.552 16.6513 86.592C16.6726 85.632 16.6619 84.7893 16.6193 84.064C17.3659 83.9573 18.0273 83.9147 18.6033 83.936C19.2006 83.936 19.8726 83.936 20.6193 83.936C20.6619 84.4267 20.6833 84.9813 20.6833 85.6C20.6833 86.2187 20.6726 86.8587 20.6513 87.52C20.6513 88.1813 20.6513 88.8427 20.6513 89.504C20.6726 90.1653 20.7046 90.784 20.7473 91.36C20.7686 91.616 20.7899 91.904 20.8113 92.224C20.8326 92.5227 20.8646 92.8213 20.9073 93.12C20.9713 93.4187 21.0459 93.6853 21.1313 93.92C21.2379 94.1547 21.3766 94.336 21.5473 94.464C21.5686 94.4853 21.5899 94.496 21.6113 94.496C21.6326 94.496 21.6539 94.5067 21.6753 94.528C21.8459 94.6133 22.0913 94.688 22.4113 94.752C22.7526 94.7947 23.0833 94.7733 23.4033 94.688C23.7233 94.5813 24.0113 94.3893 24.2673 94.112C24.5233 93.8133 24.6726 93.376 24.7153 92.8C24.7579 92.0747 24.7686 91.3493 24.7473 90.624C24.7259 89.8987 24.6939 89.184 24.6513 88.48C24.6299 87.7547 24.6086 87.04 24.5873 86.336C24.5873 85.632 24.6406 84.928 24.7473 84.224V84.096C25.1099 83.9893 25.4193 83.9253 25.6753 83.904C25.9526 83.8827 26.2299 83.8827 26.5073 83.904C26.7846 83.904 27.0939 83.9147 27.4353 83.936C27.7766 83.9573 28.2033 83.9467 28.7153 83.904C28.7153 86.528 28.7366 89.152 28.7793 91.776C28.8433 94.4 28.8326 97.12 28.7473 99.936C28.4913 99.9147 28.2779 99.904 28.1073 99.904C27.9366 99.8827 27.7766 99.872 27.6273 99.872C27.4779 99.872 27.3179 99.8827 27.1473 99.904C26.9766 99.904 26.7633 99.9147 26.5073 99.936C26.4219 99.936 26.2726 99.9573 26.0593 100C25.8459 100.021 25.6326 100.043 25.4193 100.064C25.2059 100.085 25.0139 100.085 24.8433 100.064C24.6726 100.064 24.5873 100.032 24.5873 99.968C24.5446 99.6053 24.5233 99.3067 24.5233 99.072ZM35.4415 84.8C35.4628 84.864 35.4735 84.9707 35.4735 85.12C35.5588 85.0773 35.7508 84.992 36.0495 84.864C36.3695 84.736 36.6788 84.6187 36.9775 84.512C37.3828 84.384 37.8415 84.288 38.3535 84.224C38.8655 84.1387 39.3455 84.0853 39.7935 84.064C40.2415 84.0427 40.6148 84.0427 40.9135 84.064C41.2335 84.064 41.3935 84.0747 41.3935 84.096C41.3935 84.8213 41.3828 85.4613 41.3615 86.016C41.3615 86.5707 41.3615 87.072 41.3615 87.52C41.3615 87.9467 41.3615 88.3413 41.3615 88.704C41.3615 89.0667 41.3722 89.408 41.3935 89.728L41.1055 89.632C40.9988 89.5893 40.8815 89.5573 40.7535 89.536C40.6468 89.4933 40.5402 89.4507 40.4335 89.408C40.1775 89.344 39.9108 89.2907 39.6335 89.248C39.3775 89.2053 39.2388 89.184 39.2175 89.184C38.6415 89.12 38.1082 89.088 37.6175 89.088C37.1482 89.088 36.7322 89.1627 36.3695 89.312C36.0282 89.4613 35.7615 89.696 35.5695 90.016C35.3775 90.336 35.2922 90.7947 35.3135 91.392C35.3348 92.1387 35.3562 92.8427 35.3775 93.504C35.3988 94.1653 35.4095 94.8373 35.4095 95.52C35.4095 96.1813 35.4095 96.864 35.4095 97.568C35.4308 98.2507 35.4415 98.9867 35.4415 99.776V99.904C35.0788 100.011 34.7482 100.075 34.4495 100.096C34.1508 100.117 33.8415 100.117 33.5215 100.096C33.2015 100.096 32.8495 100.085 32.4655 100.064C32.1028 100.043 31.6655 100.053 31.1535 100.096C31.1535 97.472 31.1215 94.848 31.0575 92.224C31.0148 89.6 31.0362 86.88 31.1215 84.064C31.3775 84.0853 31.5908 84.1067 31.7615 84.128C31.9322 84.128 32.0922 84.128 32.2415 84.128C32.3908 84.128 32.5508 84.128 32.7215 84.128C32.8922 84.1067 33.1055 84.0853 33.3615 84.064C33.4468 84.064 33.5962 84.0533 33.8095 84.032C34.0442 84.0107 34.2788 83.9893 34.5135 83.968C34.7695 83.9467 34.9828 83.9467 35.1535 83.968C35.3455 83.968 35.4415 83.9893 35.4415 84.032C35.4415 84.2027 35.4415 84.3307 35.4415 84.416C35.4415 84.5013 35.4415 84.576 35.4415 84.64C35.4415 84.6827 35.4415 84.736 35.4415 84.8ZM48.6308 88.608V95.584V99.872C48.2681 99.8293 47.9054 99.8187 47.5428 99.84C47.1801 99.8613 46.8174 99.8933 46.4548 99.936C46.0921 99.9573 45.7401 99.9787 45.3988 100C45.0788 100.021 44.7801 100.011 44.5028 99.968C44.4601 99.712 44.4281 99.296 44.4068 98.72C44.4068 98.1227 44.3961 97.4613 44.3748 96.736C44.3748 95.9893 44.3748 95.2107 44.3748 94.4C44.3748 93.5893 44.3748 92.8107 44.3748 92.064C44.3961 91.296 44.4068 90.6133 44.4068 90.016C44.4281 89.4187 44.4388 88.96 44.4388 88.64C44.0974 88.64 43.7348 88.64 43.3508 88.64C42.9881 88.64 42.5934 88.6507 42.1668 88.672L42.0708 84.768C42.5188 84.768 42.9241 84.768 43.2868 84.768C43.6708 84.768 44.0334 84.7787 44.3748 84.8C44.3321 84.2667 44.3428 83.6907 44.4068 83.072C44.4708 82.4533 44.6201 81.856 44.8548 81.28C45.1108 80.6827 45.4628 80.1493 45.9108 79.68C46.3588 79.1893 46.9454 78.8267 47.6708 78.592C48.5668 78.2933 49.5374 78.112 50.5828 78.048C51.6494 77.9627 52.6841 77.9413 53.6868 77.984C53.7934 78.304 53.8574 78.656 53.8788 79.04C53.9214 79.424 53.9321 79.808 53.9108 80.192C53.8894 80.576 53.8574 80.9493 53.8148 81.312C53.7721 81.6747 53.7294 82.0053 53.6868 82.304C53.4308 82.2827 53.1321 82.2827 52.7908 82.304C52.4708 82.3253 52.1294 82.3573 51.7668 82.4C51.4041 82.4427 51.0414 82.496 50.6788 82.56C50.3161 82.6027 49.9854 82.6453 49.6868 82.688C49.1961 82.7733 48.8868 83.0293 48.7588 83.456C48.6521 83.8613 48.6521 84.3307 48.7588 84.864H53.6548C53.6121 85.0987 53.6014 85.3333 53.6228 85.568C53.6441 85.7813 53.6441 86.0373 53.6228 86.336C53.6228 86.5707 53.6228 86.7627 53.6228 86.912C53.6228 87.04 53.6121 87.1787 53.5908 87.328C53.5908 87.4773 53.5801 87.6693 53.5588 87.904C53.5374 88.1387 53.5054 88.4587 53.4628 88.864C52.3748 88.8 51.4574 88.7467 50.7108 88.704C49.9854 88.6613 49.2921 88.6293 48.6308 88.608ZM58.7398 77.44C59.0384 77.4613 59.1878 77.4827 59.1878 77.504V77.856C59.2091 78.2827 59.2198 78.6133 59.2198 78.848C59.2411 79.0613 59.2518 79.264 59.2518 79.456C59.2731 79.6267 59.2838 79.8187 59.2838 80.032C59.3051 80.224 59.3158 80.512 59.3158 80.896C59.3158 81.2587 59.3158 81.7493 59.3158 82.368C59.3158 82.9867 59.3051 83.7973 59.2838 84.8C59.3264 84.608 59.5611 84.4373 59.9878 84.288C60.4144 84.1387 60.9371 84.0427 61.5558 84C62.1744 83.936 62.8251 83.936 63.5078 84C64.2118 84.0427 64.8518 84.1707 65.4278 84.384C65.8971 84.5547 66.2918 84.8533 66.6118 85.28C66.9531 85.6853 67.2198 86.1867 67.4118 86.784C67.6251 87.36 67.7744 88 67.8598 88.704C67.9664 89.408 68.0198 90.1333 68.0198 90.88C67.9771 91.9467 67.9024 93.0027 67.7958 94.048C67.6891 95.0933 67.4544 96.0427 67.0918 96.896C66.7504 97.728 66.2278 98.4213 65.5238 98.976C64.8198 99.5093 63.8598 99.8187 62.6438 99.904C62.0464 99.9893 61.4811 99.9467 60.9478 99.776C60.4144 99.584 59.9878 99.168 59.6678 98.528C59.6038 98.4 59.5398 98.368 59.4758 98.432C59.4331 98.4747 59.3904 98.5493 59.3478 98.656C59.3478 98.8907 59.3371 99.072 59.3158 99.2C59.3158 99.328 59.3158 99.4987 59.3158 99.712C59.3158 99.8187 59.3051 99.8933 59.2838 99.936C58.6438 100.021 57.9291 100.043 57.1398 100C56.3504 99.9787 55.6251 99.968 54.9638 99.968C54.9211 98.432 54.8997 96.8427 54.8997 95.2C54.9211 93.536 54.9424 91.8507 54.9638 90.144C55.0064 88.416 55.0491 86.6667 55.0918 84.896C55.1344 83.1253 55.1558 81.3547 55.1558 79.584V77.472C55.4971 77.408 55.9024 77.376 56.3718 77.376C56.8411 77.3547 57.2784 77.3547 57.6838 77.376C58.1104 77.376 58.4624 77.3973 58.7398 77.44ZM64.3398 90.848C64.3184 90.528 64.2544 90.2187 64.1478 89.92C64.0411 89.1733 63.7211 88.608 63.1878 88.224C62.6758 87.84 61.9824 87.648 61.1078 87.648C60.6598 87.648 60.2971 87.6907 60.0198 87.776C59.7638 87.84 59.5718 88 59.4438 88.256C59.3158 88.512 59.2304 88.8853 59.1878 89.376C59.1664 89.8453 59.1558 90.496 59.1558 91.328C59.1558 92.0107 59.1664 92.64 59.1878 93.216C59.2304 93.7707 59.3264 94.2507 59.4758 94.656C59.6464 95.0613 59.8811 95.3813 60.1798 95.616C60.4784 95.8507 60.9051 95.968 61.4598 95.968C61.9078 95.968 62.3131 95.8507 62.6758 95.616C63.0384 95.3813 63.3478 95.072 63.6038 94.688C63.8598 94.2827 64.0518 93.8347 64.1798 93.344C64.3078 92.832 64.3718 92.3093 64.3718 91.776C64.3718 91.4773 64.3611 91.168 64.3398 90.848ZM69.8395 86.368C69.9675 85.9627 70.0635 85.6427 70.1275 85.408C70.2768 85.088 70.5115 84.8107 70.8315 84.576C71.1728 84.3413 71.5568 84.1493 71.9835 84C72.4315 83.8293 72.9008 83.712 73.3915 83.648C73.9035 83.584 74.4155 83.552 74.9275 83.552C75.3542 83.5947 75.7595 83.6053 76.1435 83.584C76.5488 83.5413 76.9755 83.5413 77.4235 83.584C78.1062 83.6267 78.7568 83.7653 79.3755 84C79.9942 84.2133 80.5275 84.5333 80.9755 84.96C81.2742 85.152 81.5088 85.4613 81.6795 85.888C81.8502 86.3147 81.9782 86.816 82.0635 87.392C82.1488 87.9467 82.2022 88.5653 82.2235 89.248C82.2448 89.9093 82.2662 90.592 82.2875 91.296C82.2662 91.9147 82.2342 92.6187 82.1915 93.408C82.1702 94.1973 82.1168 94.9547 82.0315 95.68C81.9675 96.4053 81.8715 97.056 81.7435 97.632C81.6368 98.208 81.4768 98.6027 81.2635 98.816C80.9008 99.328 80.4208 99.6907 79.8235 99.904C79.2475 100.117 78.6182 100.245 77.9355 100.288C77.2528 100.352 76.5488 100.352 75.8235 100.288C75.0982 100.245 74.4368 100.224 73.8395 100.224C72.7515 100.032 71.8342 99.5627 71.0875 98.816C70.5115 98.304 70.1168 97.664 69.9035 96.896C69.6902 96.128 69.5622 95.328 69.5195 94.496C69.4768 93.6427 69.4662 92.7893 69.4875 91.936C69.5302 91.0827 69.5195 90.304 69.4555 89.6C69.4555 89.216 69.4662 88.8427 69.4875 88.48C69.5088 88.096 69.5515 87.7013 69.6155 87.296C69.6368 87.0613 69.7115 86.752 69.8395 86.368ZM75.2155 88.48C74.7675 88.608 74.4048 88.8427 74.1275 89.184C73.9995 89.2693 73.9035 89.4827 73.8395 89.824C73.7542 90.5067 73.7115 91.1893 73.7115 91.872C73.7115 92.5333 73.6902 93.2373 73.6475 93.984C73.6262 94.4747 73.7542 94.8587 74.0315 95.136C74.3088 95.392 74.6395 95.5733 75.0235 95.68C75.4288 95.7653 75.8448 95.7867 76.2715 95.744C76.6982 95.68 77.0502 95.5733 77.3275 95.424C77.6902 95.2533 77.9355 94.9013 78.0635 94.368C78.1488 93.6853 78.2128 93.0027 78.2555 92.32C78.3195 91.616 78.2875 90.9547 78.1595 90.336C78.0528 89.5893 77.7435 89.0453 77.2315 88.704C76.7195 88.3627 76.0475 88.288 75.2155 88.48ZM95.2553 83.968C95.7886 83.9893 96.3966 84.0213 97.0793 84.064C97.1006 84.192 97.1113 84.32 97.1113 84.448C97.1326 84.576 97.1433 84.704 97.1433 84.832V85.152C97.0793 87.456 97.0899 89.728 97.1753 91.968C97.2606 94.1867 97.2286 96.4373 97.0793 98.72C97.0793 98.9973 97.0686 99.2747 97.0473 99.552C97.0473 99.8293 96.9193 99.9893 96.6633 100.032H96.2793C95.9379 100.032 95.5859 100.021 95.2233 100C94.8819 99.9573 94.5406 99.936 94.1993 99.936C93.9646 99.936 93.7299 99.9573 93.4953 100C93.2819 100.021 93.0579 100.032 92.8233 100.032C92.6739 99.9893 92.5673 99.904 92.5033 99.776C92.4606 99.648 92.4392 99.4987 92.4392 99.328C92.4392 99.0933 92.4606 98.9013 92.5033 98.752C92.5459 98.6027 92.5673 98.4213 92.5673 98.208C92.0553 98.72 91.4046 99.1573 90.6153 99.52C89.8473 99.8827 89.0899 100.064 88.3433 100.064C87.5113 100.064 86.7966 99.776 86.1993 99.2C85.6233 98.624 85.1433 97.9093 84.7593 97.056C84.3753 96.2027 84.0873 95.2747 83.8953 94.272C83.7246 93.2693 83.6393 92.3413 83.6393 91.488C83.6393 90.4213 83.7779 89.44 84.0553 88.544C84.3326 87.648 84.7059 86.88 85.1753 86.24C85.6659 85.5787 86.2419 85.0667 86.9033 84.704C87.5646 84.32 88.2686 84.1173 89.0153 84.096C89.3993 84.096 89.7513 84.1067 90.0713 84.128C90.4126 84.128 90.7219 84.1813 90.9993 84.288C91.2766 84.3733 91.5219 84.5227 91.7353 84.736C91.9486 84.928 92.1299 85.2053 92.2793 85.568C92.2579 85.2267 92.2686 84.9387 92.3113 84.704C92.3753 84.448 92.4073 84.192 92.4073 83.936C92.4073 83.9147 92.4713 83.904 92.5993 83.904C92.7486 83.8827 92.9086 83.8827 93.0793 83.904C93.2499 83.904 93.4206 83.904 93.5913 83.904C93.7619 83.904 93.8793 83.904 93.9433 83.904C94.3059 83.9253 94.7433 83.9467 95.2553 83.968ZM88.6633 89.024C88.1726 89.4293 87.8739 89.8987 87.7673 90.432C87.6819 90.7093 87.6286 90.9973 87.6073 91.296C87.5859 91.5733 87.5753 91.8507 87.5753 92.128C87.5753 93.088 87.8206 93.9093 88.3113 94.592C88.8233 95.2533 89.5273 95.584 90.4233 95.584C90.9566 95.584 91.3513 95.4987 91.6073 95.328C91.8846 95.136 92.0766 94.88 92.1833 94.56C92.3113 94.2187 92.3753 93.8133 92.3753 93.344C92.3966 92.8533 92.4073 92.3093 92.4073 91.712C92.4073 90.9653 92.3966 90.3787 92.3753 89.952C92.3753 89.504 92.3219 89.1627 92.2153 88.928C92.1299 88.6933 91.9699 88.544 91.7353 88.48C91.5219 88.416 91.1913 88.384 90.7433 88.384C89.8686 88.384 89.1753 88.5973 88.6633 89.024ZM103.754 84.8C103.775 84.864 103.786 84.9707 103.786 85.12C103.871 85.0773 104.063 84.992 104.362 84.864C104.682 84.736 104.991 84.6187 105.29 84.512C105.695 84.384 106.154 84.288 106.666 84.224C107.178 84.1387 107.658 84.0853 108.106 84.064C108.554 84.0427 108.927 84.0427 109.226 84.064C109.546 84.064 109.706 84.0747 109.706 84.096C109.706 84.8213 109.695 85.4613 109.674 86.016C109.674 86.5707 109.674 87.072 109.674 87.52C109.674 87.9467 109.674 88.3413 109.674 88.704C109.674 89.0667 109.685 89.408 109.706 89.728L109.418 89.632C109.311 89.5893 109.194 89.5573 109.066 89.536C108.959 89.4933 108.853 89.4507 108.746 89.408C108.49 89.344 108.223 89.2907 107.946 89.248C107.69 89.2053 107.551 89.184 107.53 89.184C106.954 89.12 106.421 89.088 105.93 89.088C105.461 89.088 105.045 89.1627 104.682 89.312C104.341 89.4613 104.074 89.696 103.882 90.016C103.69 90.336 103.605 90.7947 103.626 91.392C103.647 92.1387 103.669 92.8427 103.69 93.504C103.711 94.1653 103.722 94.8373 103.722 95.52C103.722 96.1813 103.722 96.864 103.722 97.568C103.743 98.2507 103.754 98.9867 103.754 99.776V99.904C103.391 100.011 103.061 100.075 102.762 100.096C102.463 100.117 102.154 100.117 101.834 100.096C101.514 100.096 101.162 100.085 100.778 100.064C100.415 100.043 99.978 100.053 99.466 100.096C99.466 97.472 99.434 94.848 99.37 92.224C99.3273 89.6 99.3487 86.88 99.434 84.064C99.69 84.0853 99.9033 84.1067 100.074 84.128C100.245 84.128 100.405 84.128 100.554 84.128C100.703 84.128 100.863 84.128 101.034 84.128C101.205 84.1067 101.418 84.0853 101.674 84.064C101.759 84.064 101.909 84.0533 102.122 84.032C102.357 84.0107 102.591 83.9893 102.826 83.968C103.082 83.9467 103.295 83.9467 103.466 83.968C103.658 83.968 103.754 83.9893 103.754 84.032C103.754 84.2027 103.754 84.3307 103.754 84.416C103.754 84.5013 103.754 84.576 103.754 84.64C103.754 84.6827 103.754 84.736 103.754 84.8ZM119.471 78.848C119.493 78.6133 119.514 78.2827 119.535 77.856V77.504C119.535 77.4827 119.674 77.4613 119.951 77.44C120.25 77.3973 120.602 77.376 121.007 77.376C121.434 77.3547 121.882 77.3547 122.351 77.376C122.821 77.376 123.226 77.408 123.567 77.472V79.584C123.567 83.1467 123.621 86.6667 123.727 90.144C123.834 93.6213 123.845 96.896 123.759 99.968C123.098 99.968 122.373 99.9787 121.583 100C120.794 100.043 120.079 100.021 119.439 99.936C119.418 99.8933 119.407 99.8187 119.407 99.712C119.407 99.4987 119.397 99.328 119.375 99.2C119.375 99.072 119.375 98.8907 119.375 98.656C119.333 98.5493 119.279 98.4747 119.215 98.432C119.173 98.368 119.119 98.4 119.055 98.528C118.735 99.168 118.309 99.584 117.775 99.776C117.242 99.9467 116.677 99.9893 116.079 99.904C114.863 99.8187 113.903 99.5093 113.199 98.976C112.495 98.4213 111.962 97.728 111.599 96.896C111.258 96.0427 111.023 95.0933 110.895 94.048C110.789 93.0027 110.725 91.9467 110.703 90.88C110.703 90.1333 110.746 89.408 110.831 88.704C110.938 88 111.087 87.36 111.279 86.784C111.493 86.1867 111.759 85.6853 112.079 85.28C112.421 84.8533 112.826 84.5547 113.295 84.384C113.871 84.1707 114.501 84.0427 115.183 84C115.887 83.936 116.549 83.936 117.167 84C117.786 84.0427 118.309 84.1387 118.735 84.288C119.162 84.4373 119.397 84.608 119.439 84.8C119.418 83.7973 119.407 82.9867 119.407 82.368C119.407 81.7493 119.407 81.2587 119.407 80.896C119.407 80.512 119.407 80.224 119.407 80.032C119.429 79.8187 119.439 79.6267 119.439 79.456C119.461 79.264 119.471 79.0613 119.471 78.848ZM115.503 88.224C114.991 88.608 114.682 89.1733 114.575 89.92C114.469 90.2187 114.405 90.528 114.383 90.848C114.362 91.168 114.351 91.4773 114.351 91.776C114.351 92.3093 114.415 92.832 114.543 93.344C114.671 93.8347 114.863 94.2827 115.119 94.688C115.375 95.072 115.685 95.3813 116.047 95.616C116.41 95.8507 116.815 95.968 117.263 95.968C117.797 95.968 118.213 95.8507 118.511 95.616C118.831 95.3813 119.066 95.0613 119.215 94.656C119.386 94.2507 119.482 93.7707 119.503 93.216C119.546 92.64 119.567 92.0107 119.567 91.328C119.567 90.496 119.546 89.8453 119.503 89.376C119.482 88.8853 119.407 88.512 119.279 88.256C119.151 88 118.949 87.84 118.671 87.776C118.415 87.6907 118.063 87.648 117.615 87.648C116.741 87.648 116.037 87.84 115.503 88.224ZM138.156 85.824C138.582 86.7413 138.796 87.776 138.796 88.928C138.113 89.0347 137.356 89.0987 136.524 89.12C135.713 89.1413 134.945 89.0773 134.22 88.928C134.284 88.672 134.252 88.416 134.124 88.16C134.017 87.904 133.846 87.68 133.612 87.488C133.398 87.296 133.142 87.1573 132.844 87.072C132.566 86.9653 132.289 86.9227 132.012 86.944C131.521 87.0293 131.148 87.2213 130.892 87.52C130.657 87.7973 130.54 88.1067 130.54 88.448C130.54 88.7893 130.668 89.1307 130.924 89.472C131.18 89.8133 131.553 90.0693 132.044 90.24C133.238 90.4107 134.358 90.6453 135.404 90.944C136.449 91.2213 137.217 91.68 137.708 92.32C138.177 93.088 138.465 93.8773 138.572 94.688C138.678 95.4773 138.529 96.4587 138.124 97.632C137.633 98.6773 136.865 99.424 135.82 99.872C134.774 100.32 133.633 100.533 132.396 100.512C131.308 100.555 130.326 100.459 129.452 100.224C128.577 99.9893 127.82 99.6373 127.18 99.168C126.561 98.6987 126.07 98.1227 125.708 97.44C125.366 96.7573 125.196 95.9893 125.196 95.136V95.04V94.976C125.9 94.8907 126.7 94.8693 127.596 94.912C128.492 94.9333 129.27 94.944 129.932 94.944C129.953 95.4347 130.177 95.84 130.604 96.16C131.052 96.4587 131.521 96.64 132.012 96.704C132.502 96.7467 132.95 96.6507 133.356 96.416C133.761 96.1813 133.953 95.7547 133.932 95.136C133.996 94.624 133.878 94.24 133.58 93.984C133.281 93.728 132.886 93.536 132.396 93.408C131.905 93.2587 131.35 93.1307 130.732 93.024C130.113 92.9173 129.505 92.736 128.908 92.48C127.713 92.0747 126.838 91.4453 126.284 90.592C125.75 89.7173 125.494 88.8213 125.516 87.904C125.558 86.9653 125.857 86.1013 126.412 85.312C126.988 84.5227 127.798 83.9893 128.844 83.712C129.249 83.6053 129.74 83.52 130.316 83.456C130.913 83.392 131.542 83.36 132.204 83.36C132.865 83.36 133.526 83.4027 134.188 83.488C134.849 83.552 135.457 83.648 136.012 83.776C137.014 84.2027 137.729 84.8853 138.156 85.824Z" fill="#0072CE"/>
</svg>
