<svg width="154" height="80" viewBox="0 0 154 80" fill="none" xmlns="http://www.w3.org/2000/svg">
<rect x="0.5" y="0.5" width="153" height="79" rx="3.5" fill="#FFB901"/>
<rect x="0.5" y="0.5" width="153" height="79" rx="3.5" stroke="#0072CE"/>
<path d="M59.3794 25.04C59.726 25.6933 59.806 26.52 59.6194 27.52H59.5994C59.1327 27.6 58.6327 27.6533 58.0994 27.68C57.566 27.6933 57.066 27.6333 56.5994 27.5C56.6794 27.14 56.606 26.84 56.3794 26.6C56.1527 26.36 55.8794 26.2067 55.5594 26.14C55.2394 26.0733 54.926 26.1067 54.6194 26.24C54.326 26.3733 54.1527 26.6267 54.0994 27C54.0727 27.0933 54.0594 27.1867 54.0594 27.28C54.0727 27.36 54.086 27.4467 54.0994 27.54C54.206 27.86 54.3794 28.0733 54.6194 28.18C54.8594 28.2867 55.1194 28.36 55.3994 28.4C56.106 28.48 56.7594 28.7067 57.3594 29.08C57.9727 29.4533 58.4727 29.9267 58.8594 30.5C59.0994 30.8067 59.2794 31.14 59.3994 31.5C59.5194 31.8467 59.586 32.2067 59.5994 32.58C59.626 32.9533 59.5994 33.3333 59.5194 33.72C59.4527 34.0933 59.3394 34.4533 59.1794 34.8C59.0194 35.2133 58.806 35.5667 58.5394 35.86C58.2727 36.1533 57.966 36.3933 57.6194 36.58C57.286 36.7667 56.9194 36.9067 56.5194 37C56.1327 37.08 55.7327 37.1133 55.3194 37.1C54.7327 37.0867 54.146 36.9867 53.5594 36.8C52.986 36.6 52.4727 36.3267 52.0194 35.98C51.566 35.6333 51.206 35.2133 50.9394 34.72C50.6727 34.2133 50.5594 33.64 50.5994 33V32.94V32.88C51.066 32.8133 51.5794 32.8 52.1394 32.84C52.6994 32.8667 53.206 32.8733 53.6594 32.86C53.686 33.2867 53.8527 33.6067 54.1594 33.82C54.4794 34.0333 54.8127 34.14 55.1594 34.14C55.5194 34.1267 55.826 34.0067 56.0794 33.78C56.346 33.5533 56.4394 33.2067 56.3594 32.74C56.3194 32.42 56.1994 32.1667 55.9994 31.98C55.7994 31.78 55.5594 31.62 55.2794 31.5C55.0127 31.38 54.7194 31.2933 54.3994 31.24C54.0794 31.1733 53.7794 31.1133 53.4994 31.06C53.2327 31.0067 52.986 30.92 52.7594 30.8C52.5327 30.68 52.326 30.54 52.1394 30.38C51.526 29.7933 51.126 29.1467 50.9394 28.44C50.766 27.7333 50.7594 27.0467 50.9194 26.38C51.0794 25.7133 51.3794 25.1067 51.8194 24.56C52.2727 24.0133 52.8194 23.6067 53.4594 23.34C53.7794 23.2067 54.1327 23.12 54.5194 23.08C54.906 23.0267 55.2927 23.0133 55.6794 23.04C56.0794 23.0533 56.466 23.1067 56.8394 23.2C57.226 23.2933 57.5794 23.4133 57.8994 23.56C58.5394 23.8933 59.0327 24.3867 59.3794 25.04ZM63.8264 32.04C63.5331 32.0267 63.3197 32.0067 63.1864 31.98V32.34C63.1997 32.74 63.2131 33.0667 63.2264 33.32C63.2531 33.5733 63.3397 33.82 63.4864 34.06C63.6464 34.3667 63.8731 34.5933 64.1664 34.74C64.4597 34.8867 64.7464 34.9333 65.0264 34.88C65.3064 34.8267 65.5397 34.6667 65.7264 34.4C65.9264 34.12 66.0131 33.7067 65.9864 33.16C66.1197 33.1733 66.2997 33.18 66.5264 33.18C66.7531 33.1667 66.9864 33.1533 67.2264 33.14C67.4797 33.1267 67.7197 33.1267 67.9464 33.14C68.1731 33.14 68.3597 33.16 68.5064 33.2C68.4797 33.5467 68.4531 33.8867 68.4264 34.22C68.3997 34.5533 68.3664 34.8667 68.3264 35.16C68.2864 35.44 68.2331 35.6867 68.1664 35.9C68.1131 36.1 68.0397 36.24 67.9464 36.32C67.7197 36.64 67.4264 36.8667 67.0664 37C66.7064 37.1333 66.3131 37.2133 65.8864 37.24C65.4597 37.2667 65.0197 37.2667 64.5664 37.24C64.1264 37.2133 63.7197 37.2 63.3464 37.2C62.9731 37.1467 62.6264 37.0267 62.3064 36.84C61.9464 36.5867 61.6464 36.26 61.4064 35.86C61.1664 35.4467 60.9731 35 60.8264 34.52C60.6797 34.0267 60.5797 33.5067 60.5264 32.96C60.4731 32.4133 60.4597 31.8667 60.4864 31.32C60.5264 30.8267 60.5664 30.3533 60.6064 29.9C60.6597 29.4333 60.7664 28.98 60.9264 28.54C61.0997 28.1533 61.3664 27.8267 61.7264 27.56C62.0864 27.28 62.4931 27.0733 62.9464 26.94C63.3997 26.7933 63.8797 26.7133 64.3864 26.7C64.8931 26.6867 65.3864 26.74 65.8664 26.86C66.4797 26.9667 66.9731 27.18 67.3464 27.5C67.7197 27.82 67.9997 28.2067 68.1864 28.66C68.3864 29.1133 68.5064 29.6133 68.5464 30.16C68.5864 30.7067 68.5864 31.26 68.5464 31.82C68.4531 31.8467 68.2731 31.8733 68.0064 31.9C67.7531 31.9267 67.4464 31.9533 67.0864 31.98C66.7397 32.0067 66.3664 32.0267 65.9664 32.04C65.5664 32.0533 65.1797 32.06 64.8064 32.06C64.4464 32.06 64.1197 32.0533 63.8264 32.04ZM66.1664 29.42C66.0331 29.18 65.8464 29 65.6064 28.88C65.4997 28.8133 65.3931 28.7667 65.2864 28.74C65.1797 28.7 65.0531 28.68 64.9064 28.68C64.5864 28.68 64.3264 28.7133 64.1264 28.78C63.9264 28.8467 63.7664 28.94 63.6464 29.06C63.5264 29.18 63.4331 29.32 63.3664 29.48C63.3131 29.64 63.2731 29.8067 63.2464 29.98C63.2197 30.1267 63.2064 30.2333 63.2064 30.3C63.2197 30.3533 63.2864 30.3933 63.4064 30.42C63.5264 30.4333 63.7131 30.44 63.9664 30.44C64.2331 30.4267 64.6197 30.42 65.1264 30.42C65.4731 30.42 65.7331 30.4267 65.9064 30.44C66.0797 30.4533 66.1997 30.46 66.2664 30.46C66.3464 30.4467 66.3864 30.4267 66.3864 30.4C66.3864 30.36 66.3864 30.2867 66.3864 30.18C66.3864 29.9133 66.3131 29.66 66.1664 29.42ZM76.5931 26.98C76.9265 26.9933 77.3065 27.0133 77.7331 27.04C77.7465 27.12 77.7531 27.2 77.7531 27.28C77.7665 27.36 77.7731 27.44 77.7731 27.52V27.72C77.7331 29.16 77.7398 30.58 77.7931 31.98C77.8465 33.3667 77.8265 34.7733 77.7331 36.2C77.7331 36.3733 77.7265 36.5467 77.7131 36.72C77.7131 36.8933 77.6331 36.9933 77.4731 37.02H77.2331C77.0198 37.02 76.7998 37.0133 76.5731 37C76.3598 36.9733 76.1465 36.96 75.9331 36.96C75.7865 36.96 75.6398 36.9733 75.4931 37C75.3598 37.0133 75.2198 37.02 75.0731 37.02C74.9798 36.9933 74.9131 36.94 74.8731 36.86C74.8465 36.78 74.8331 36.6867 74.8331 36.58C74.8331 36.4333 74.8465 36.3133 74.8731 36.22C74.8998 36.1267 74.9131 36.0133 74.9131 35.88C74.5931 36.2 74.1865 36.4733 73.6931 36.7C73.2131 36.9267 72.7398 37.04 72.2731 37.04C71.7531 37.04 71.3065 36.86 70.9331 36.5C70.5731 36.14 70.2731 35.6933 70.0331 35.16C69.7931 34.6267 69.6131 34.0467 69.4931 33.42C69.3865 32.7933 69.3331 32.2133 69.3331 31.68C69.3331 31.0133 69.4198 30.4 69.5931 29.84C69.7665 29.28 69.9998 28.8 70.2931 28.4C70.5998 27.9867 70.9598 27.6667 71.3731 27.44C71.7865 27.2 72.2265 27.0733 72.6931 27.06C72.9331 27.06 73.1531 27.0667 73.3531 27.08C73.5665 27.08 73.7598 27.1133 73.9331 27.18C74.1065 27.2333 74.2598 27.3267 74.3931 27.46C74.5265 27.58 74.6398 27.7533 74.7331 27.98C74.7198 27.7667 74.7265 27.5867 74.7531 27.44C74.7931 27.28 74.8131 27.12 74.8131 26.96C74.8131 26.9467 74.8531 26.94 74.9331 26.94C75.0265 26.9267 75.1265 26.9267 75.2331 26.94C75.3398 26.94 75.4465 26.94 75.5531 26.94C75.6598 26.94 75.7331 26.94 75.7731 26.94C75.9998 26.9533 76.2731 26.9667 76.5931 26.98ZM72.4731 30.14C72.1665 30.3933 71.9798 30.6867 71.9131 31.02C71.8598 31.1933 71.8265 31.3733 71.8131 31.56C71.7998 31.7333 71.7931 31.9067 71.7931 32.08C71.7931 32.68 71.9465 33.1933 72.2531 33.62C72.5731 34.0333 73.0131 34.24 73.5731 34.24C73.9065 34.24 74.1531 34.1867 74.3131 34.08C74.4865 33.96 74.6065 33.8 74.6731 33.6C74.7531 33.3867 74.7931 33.1333 74.7931 32.84C74.8065 32.5333 74.8131 32.1933 74.8131 31.82C74.8131 31.3533 74.8065 30.9867 74.7931 30.72C74.7931 30.44 74.7598 30.2267 74.6931 30.08C74.6398 29.9333 74.5398 29.84 74.3931 29.8C74.2598 29.76 74.0531 29.74 73.7731 29.74C73.2265 29.74 72.7931 29.8733 72.4731 30.14ZM81.9048 27.5C81.9182 27.54 81.9248 27.6067 81.9248 27.7C81.9782 27.6733 82.0982 27.62 82.2848 27.54C82.4848 27.46 82.6782 27.3867 82.8648 27.32C83.1182 27.24 83.4048 27.18 83.7248 27.14C84.0448 27.0867 84.3448 27.0533 84.6248 27.04C84.9048 27.0267 85.1382 27.0267 85.3248 27.04C85.5248 27.04 85.6248 27.0467 85.6248 27.06C85.6248 27.5133 85.6182 27.9133 85.6048 28.26C85.6048 28.6067 85.6048 28.92 85.6048 29.2C85.6048 29.4667 85.6048 29.7133 85.6048 29.94C85.6048 30.1667 85.6115 30.38 85.6248 30.58L85.4448 30.52C85.3782 30.4933 85.3048 30.4733 85.2248 30.46C85.1582 30.4333 85.0915 30.4067 85.0248 30.38C84.8648 30.34 84.6982 30.3067 84.5248 30.28C84.3648 30.2533 84.2782 30.24 84.2648 30.24C83.9048 30.2 83.5715 30.18 83.2648 30.18C82.9715 30.18 82.7115 30.2267 82.4848 30.32C82.2715 30.4133 82.1048 30.56 81.9848 30.76C81.8648 30.96 81.8115 31.2467 81.8248 31.62C81.8382 32.0867 81.8515 32.5267 81.8648 32.94C81.8782 33.3533 81.8848 33.7733 81.8848 34.2C81.8848 34.6133 81.8848 35.04 81.8848 35.48C81.8982 35.9067 81.9048 36.3667 81.9048 36.86V36.94C81.6782 37.0067 81.4715 37.0467 81.2848 37.06C81.0982 37.0733 80.9048 37.0733 80.7048 37.06C80.5048 37.06 80.2848 37.0533 80.0448 37.04C79.8182 37.0267 79.5448 37.0333 79.2248 37.06C79.2248 35.42 79.2048 33.78 79.1648 32.14C79.1382 30.5 79.1515 28.8 79.2048 27.04C79.3648 27.0533 79.4982 27.0667 79.6048 27.08C79.7115 27.08 79.8115 27.08 79.9048 27.08C79.9982 27.08 80.0982 27.08 80.2048 27.08C80.3115 27.0667 80.4448 27.0533 80.6048 27.04C80.6582 27.04 80.7515 27.0333 80.8848 27.02C81.0315 27.0067 81.1782 26.9933 81.3248 26.98C81.4848 26.9667 81.6182 26.9667 81.7248 26.98C81.8448 26.98 81.9048 26.9933 81.9048 27.02C81.9048 27.1267 81.9048 27.2067 81.9048 27.26C81.9048 27.3133 81.9048 27.36 81.9048 27.4C81.9048 27.4267 81.9048 27.46 81.9048 27.5ZM93.6881 33.1C93.9148 33.1 94.1015 33.12 94.2481 33.16C94.2215 33.5067 94.1948 33.8467 94.1681 34.18C94.1415 34.5133 94.1081 34.8267 94.0681 35.12C94.0281 35.4 93.9748 35.6467 93.9081 35.86C93.8548 36.06 93.7815 36.2067 93.6881 36.3C93.4615 36.62 93.1615 36.8467 92.7881 36.98C92.4281 37.1133 92.0348 37.1933 91.6081 37.22C91.1815 37.26 90.7415 37.26 90.2881 37.22C89.8348 37.1933 89.4215 37.18 89.0481 37.18C88.3681 37.06 87.7948 36.7667 87.3281 36.3C86.9681 35.98 86.7215 35.58 86.5881 35.1C86.4548 34.62 86.3748 34.12 86.3481 33.6C86.3215 33.0667 86.3148 32.5333 86.3281 32C86.3548 31.4667 86.3415 30.98 86.2881 30.54C86.2881 30.06 86.3281 29.58 86.4081 29.1C86.4215 28.9533 86.4681 28.7533 86.5481 28.5C86.6281 28.2467 86.6881 28.0533 86.7281 27.92C86.8215 27.72 86.9681 27.5467 87.1681 27.4C87.3815 27.2533 87.6215 27.1333 87.8881 27.04C88.1681 26.9333 88.4615 26.86 88.7681 26.82C89.0881 26.78 89.4081 26.76 89.7281 26.76C89.9948 26.7867 90.2481 26.7933 90.4881 26.78C90.7415 26.7533 91.0081 26.7533 91.2881 26.78C91.7148 26.8067 92.1215 26.8867 92.5081 27.02C92.8948 27.1533 93.2281 27.3533 93.5081 27.62C93.6948 27.7533 93.8348 27.9333 93.9281 28.16C94.0348 28.3867 94.1148 28.6533 94.1681 28.96C94.2215 29.2667 94.2481 29.6133 94.2481 30C94.2615 30.3733 94.2748 30.78 94.2881 31.22C94.1148 31.26 93.9148 31.28 93.6881 31.28C93.4748 31.28 93.2481 31.2733 93.0081 31.26C92.7815 31.2467 92.5548 31.2267 92.3281 31.2C92.1148 31.1733 91.9215 31.1467 91.7481 31.12C91.6815 30.6533 91.4881 30.2933 91.1681 30.04C90.8481 29.7733 90.4281 29.7067 89.9081 29.84C89.6281 29.92 89.4015 30.0667 89.2281 30.28C89.1481 30.3333 89.0881 30.4667 89.0481 30.68C88.9948 31.0933 88.9681 31.5133 88.9681 31.94C88.9681 32.3667 88.9548 32.8133 88.9281 33.28C88.9015 33.5867 88.9748 33.8267 89.1481 34C89.3348 34.1733 89.5548 34.2933 89.8081 34.36C90.0615 34.4133 90.3215 34.4267 90.5881 34.4C90.8548 34.36 91.0681 34.2867 91.2281 34.18C91.3615 34.0867 91.4615 33.9333 91.5281 33.72C91.6081 33.4933 91.6681 33.2933 91.7081 33.12C91.8415 33.1333 92.0215 33.14 92.2481 33.14C92.4748 33.1267 92.7148 33.1133 92.9681 33.1C93.2215 33.0867 93.4615 33.0867 93.6881 33.1ZM98.0158 27.58C98.0158 27.86 98.0158 28.0267 98.0158 28.08C98.0824 28.04 98.1624 27.9933 98.2558 27.94C98.3624 27.8867 98.4491 27.8333 98.5158 27.78C98.7958 27.58 99.1091 27.42 99.4558 27.3C99.8024 27.18 100.156 27.1133 100.516 27.1C100.889 27.0867 101.249 27.1267 101.596 27.22C101.942 27.3133 102.256 27.48 102.536 27.72C102.669 27.84 102.769 28.0933 102.836 28.48C102.916 28.8533 102.962 29.3067 102.976 29.84C103.002 30.3733 103.009 30.96 102.996 31.6C102.996 32.2267 102.989 32.8667 102.976 33.52C102.962 34.16 102.949 34.78 102.936 35.38C102.922 35.98 102.929 36.5067 102.956 36.96C102.489 37.0267 102.069 37.0533 101.696 37.04C101.336 37.04 100.922 37.04 100.456 37.04C100.429 36.7333 100.416 36.3867 100.416 36C100.416 35.6133 100.416 35.2133 100.416 34.8C100.429 34.3867 100.429 33.9733 100.416 33.56C100.416 33.1467 100.402 32.76 100.376 32.4C100.362 32.24 100.349 32.0667 100.336 31.88C100.322 31.68 100.296 31.4867 100.256 31.3C100.229 31.1133 100.182 30.9467 100.116 30.8C100.062 30.6533 99.9824 30.54 99.8758 30.46C99.8624 30.4467 99.8491 30.44 99.8358 30.44C99.8224 30.44 99.8091 30.4333 99.7958 30.42C99.6891 30.3667 99.5291 30.3267 99.3158 30.3C99.1158 30.26 98.9158 30.2733 98.7158 30.34C98.5158 30.3933 98.3358 30.5133 98.1758 30.7C98.0158 30.8733 97.9224 31.14 97.8958 31.5C97.8691 31.9667 97.8624 32.4267 97.8758 32.88C97.8891 33.32 97.9024 33.7667 97.9158 34.22C97.9424 34.66 97.9558 35.1 97.9558 35.54C97.9558 35.98 97.9291 36.42 97.8758 36.86V36.94C97.6491 37.0067 97.4491 37.0467 97.2758 37.06C97.1158 37.0733 96.9491 37.0733 96.7758 37.06C96.6024 37.06 96.4091 37.0533 96.1958 37.04C95.9824 37.0267 95.7158 37.0333 95.3958 37.06C95.3958 36.5133 95.3891 35.86 95.3758 35.1C95.3758 34.3267 95.3691 33.5 95.3558 32.62C95.3558 31.74 95.3558 30.8333 95.3558 29.9C95.3558 28.9533 95.3558 28.0333 95.3558 27.14C95.3558 26.2467 95.3558 25.4067 95.3558 24.62C95.3691 23.82 95.3824 23.1267 95.3958 22.54C95.5558 22.5533 95.6891 22.5667 95.7958 22.58C95.9024 22.58 96.0024 22.58 96.0958 22.58C96.1891 22.58 96.2891 22.58 96.3958 22.58C96.5024 22.5667 96.6358 22.5533 96.7958 22.54C96.8491 22.54 96.9424 22.5333 97.0758 22.52C97.2091 22.4933 97.3424 22.4733 97.4758 22.46C97.6091 22.4467 97.7291 22.4467 97.8358 22.46C97.9424 22.46 97.9958 22.48 97.9958 22.52C98.0091 22.5867 98.0158 22.7667 98.0158 23.06C98.0158 23.34 98.0158 23.68 98.0158 24.08C98.0158 24.4667 98.0158 24.8867 98.0158 25.34C98.0158 25.78 98.0158 26.1933 98.0158 26.58C98.0158 26.9667 98.0158 27.3 98.0158 27.58ZM53.2924 42.9C53.4791 42.9133 53.5724 42.9267 53.5724 42.94V43.16C53.5858 43.4267 53.5924 43.6333 53.5924 43.78C53.6058 43.9133 53.6124 44.04 53.6124 44.16C53.6258 44.2667 53.6324 44.3867 53.6324 44.52C53.6458 44.64 53.6524 44.82 53.6524 45.06C53.6524 45.2867 53.6524 45.5933 53.6524 45.98C53.6524 46.3667 53.6458 46.8733 53.6324 47.5C53.6591 47.38 53.8058 47.2733 54.0724 47.18C54.3391 47.0867 54.6658 47.0267 55.0524 47C55.4391 46.96 55.8458 46.96 56.2724 47C56.7124 47.0267 57.1124 47.1067 57.4724 47.24C57.7658 47.3467 58.0124 47.5333 58.2124 47.8C58.4258 48.0533 58.5924 48.3667 58.7124 48.74C58.8458 49.1 58.9391 49.5 58.9924 49.94C59.0591 50.38 59.0924 50.8333 59.0924 51.3C59.0658 51.9667 59.0191 52.6267 58.9524 53.28C58.8858 53.9333 58.7391 54.5267 58.5124 55.06C58.2991 55.58 57.9724 56.0133 57.5324 56.36C57.0924 56.6933 56.4924 56.8867 55.7324 56.94C55.3591 56.9933 55.0058 56.9667 54.6724 56.86C54.3391 56.74 54.0724 56.48 53.8724 56.08C53.8324 56 53.7924 55.98 53.7524 56.02C53.7258 56.0467 53.6991 56.0933 53.6724 56.16C53.6724 56.3067 53.6658 56.42 53.6524 56.5C53.6524 56.58 53.6524 56.6867 53.6524 56.82C53.6524 56.8867 53.6458 56.9333 53.6324 56.96C53.2324 57.0133 52.7858 57.0267 52.2924 57C51.7991 56.9867 51.3458 56.98 50.9324 56.98C50.9058 56.02 50.8924 55.0267 50.8924 54C50.9058 52.96 50.9191 51.9067 50.9324 50.84C50.9591 49.76 50.9858 48.6667 51.0124 47.56C51.0391 46.4533 51.0524 45.3467 51.0524 44.24V42.92C51.2658 42.88 51.5191 42.86 51.8124 42.86C52.1058 42.8467 52.3791 42.8467 52.6324 42.86C52.8991 42.86 53.1191 42.8733 53.2924 42.9ZM56.7924 51.28C56.7791 51.08 56.7391 50.8867 56.6724 50.7C56.6058 50.2333 56.4058 49.88 56.0724 49.64C55.7524 49.4 55.3191 49.28 54.7724 49.28C54.4924 49.28 54.2658 49.3067 54.0924 49.36C53.9324 49.4 53.8124 49.5 53.7324 49.66C53.6524 49.82 53.5991 50.0533 53.5724 50.36C53.5591 50.6533 53.5524 51.06 53.5524 51.58C53.5524 52.0067 53.5591 52.4 53.5724 52.76C53.5991 53.1067 53.6591 53.4067 53.7524 53.66C53.8591 53.9133 54.0058 54.1133 54.1924 54.26C54.3791 54.4067 54.6458 54.48 54.9924 54.48C55.2724 54.48 55.5258 54.4067 55.7524 54.26C55.9791 54.1133 56.1724 53.92 56.3324 53.68C56.4924 53.4267 56.6124 53.1467 56.6924 52.84C56.7724 52.52 56.8124 52.1933 56.8124 51.86C56.8124 51.6733 56.8058 51.48 56.7924 51.28ZM60.8359 47.04C61.3692 47 61.8492 47.0067 62.2759 47.06C62.3692 47.54 62.4759 48.1133 62.5959 48.78C62.7159 49.4333 62.8425 50.1 62.9759 50.78C63.1092 51.46 63.2492 52.1133 63.3959 52.74C63.5425 53.3533 63.6892 53.86 63.8359 54.26C63.9825 53.86 64.1025 53.3333 64.1959 52.68C64.2892 52.0267 64.3759 51.3467 64.4559 50.64C64.5492 49.9333 64.6492 49.2533 64.7559 48.6C64.8625 47.9467 64.9959 47.42 65.1559 47.02C65.6092 47.0333 66.0692 47.0267 66.5359 47C67.0025 46.9733 67.5159 46.98 68.0759 47.02C67.8625 47.82 67.6692 48.5867 67.4959 49.32C67.3359 50.04 67.1759 50.7467 67.0159 51.44C66.8425 52.0933 66.6825 52.78 66.5359 53.5C66.4025 54.22 66.2292 54.9267 66.0159 55.62C65.8159 56.3133 65.5559 56.9733 65.2359 57.6C64.9159 58.2267 64.4892 58.7667 63.9559 59.22C63.4359 59.6867 62.7825 60.04 61.9959 60.28C61.2225 60.52 60.2692 60.6067 59.1359 60.54C59.0025 60.14 58.9359 59.6867 58.9359 59.18C58.9225 58.6867 58.9492 58.2533 59.0159 57.88C59.3359 57.88 59.6625 57.8933 59.9959 57.92C60.3425 57.9467 60.6492 57.9267 60.9159 57.86C61.1825 57.8067 61.3825 57.68 61.5159 57.48C61.6625 57.28 61.7025 56.96 61.6359 56.52C61.3559 54.9067 61.0025 53.2933 60.5759 51.68C60.1492 50.0667 59.7292 48.5067 59.3159 47C59.7959 47.0533 60.3025 47.0667 60.8359 47.04ZM80.9321 45.04C81.2788 45.6933 81.3588 46.52 81.1721 47.52H81.1521C80.6854 47.6 80.1854 47.6533 79.6521 47.68C79.1188 47.6933 78.6188 47.6333 78.1521 47.5C78.2321 47.14 78.1588 46.84 77.9321 46.6C77.7054 46.36 77.4321 46.2067 77.1121 46.14C76.7921 46.0733 76.4788 46.1067 76.1721 46.24C75.8788 46.3733 75.7054 46.6267 75.6521 47C75.6254 47.0933 75.6121 47.1867 75.6121 47.28C75.6254 47.36 75.6388 47.4467 75.6521 47.54C75.7588 47.86 75.9321 48.0733 76.1721 48.18C76.4121 48.2867 76.6721 48.36 76.9521 48.4C77.6588 48.48 78.3121 48.7067 78.9121 49.08C79.5254 49.4533 80.0254 49.9267 80.4121 50.5C80.6521 50.8067 80.8321 51.14 80.9521 51.5C81.0721 51.8467 81.1388 52.2067 81.1521 52.58C81.1788 52.9533 81.1521 53.3333 81.0721 53.72C81.0054 54.0933 80.8921 54.4533 80.7321 54.8C80.5721 55.2133 80.3588 55.5667 80.0921 55.86C79.8254 56.1533 79.5188 56.3933 79.1721 56.58C78.8388 56.7667 78.4721 56.9067 78.0721 57C77.6854 57.08 77.2854 57.1133 76.8721 57.1C76.2854 57.0867 75.6988 56.9867 75.1121 56.8C74.5388 56.6 74.0254 56.3267 73.5721 55.98C73.1188 55.6333 72.7588 55.2133 72.4921 54.72C72.2254 54.2133 72.1121 53.64 72.1521 53V52.94V52.88C72.6188 52.8133 73.1321 52.8 73.6921 52.84C74.2521 52.8667 74.7588 52.8733 75.2121 52.86C75.2388 53.2867 75.4054 53.6067 75.7121 53.82C76.0321 54.0333 76.3654 54.14 76.7121 54.14C77.0721 54.1267 77.3788 54.0067 77.6321 53.78C77.8988 53.5533 77.9921 53.2067 77.9121 52.74C77.8721 52.42 77.7521 52.1667 77.5521 51.98C77.3521 51.78 77.1121 51.62 76.8321 51.5C76.5654 51.38 76.2721 51.2933 75.9521 51.24C75.6321 51.1733 75.3321 51.1133 75.0521 51.06C74.7854 51.0067 74.5388 50.92 74.3121 50.8C74.0854 50.68 73.8788 50.54 73.6921 50.38C73.0788 49.7933 72.6788 49.1467 72.4921 48.44C72.3188 47.7333 72.3121 47.0467 72.4721 46.38C72.6321 45.7133 72.9321 45.1067 73.3721 44.56C73.8254 44.0133 74.3721 43.6067 75.0121 43.34C75.3321 43.2067 75.6854 43.12 76.0721 43.08C76.4588 43.0267 76.8454 43.0133 77.2321 43.04C77.6321 43.0533 78.0188 43.1067 78.3921 43.2C78.7788 43.2933 79.1321 43.4133 79.4521 43.56C80.0921 43.8933 80.5854 44.3867 80.9321 45.04ZM83.6791 46.94C83.9858 46.9533 84.3525 46.9533 84.7791 46.94H85.1191V47C85.1058 48.6133 85.0725 50.26 85.0191 51.94C84.9791 53.62 85.0058 55.2667 85.0991 56.88C85.0325 56.96 84.8658 57 84.5991 57C84.3325 57.0133 84.0391 57.0133 83.7191 57C83.4125 57 83.1191 56.9933 82.8391 56.98C82.5591 56.9667 82.3725 56.9733 82.2791 57C82.3458 56.16 82.3725 55.3067 82.3591 54.44C82.3591 53.5733 82.3458 52.7133 82.3191 51.86C82.2925 51.0067 82.2791 50.1667 82.2791 49.34C82.2791 48.5 82.3191 47.6867 82.3991 46.9V46.88C82.4525 46.8667 82.5391 46.8667 82.6591 46.88C82.7925 46.8933 82.8925 46.9 82.9591 46.9C83.1325 46.9133 83.3725 46.9267 83.6791 46.94ZM82.3391 44.14C82.3125 43.7133 82.3058 43.1933 82.3191 42.58L85.0391 42.64C85.0391 42.72 85.0391 42.8667 85.0391 43.08C85.0525 43.28 85.0591 43.5067 85.0591 43.76C85.0725 44 85.0791 44.2533 85.0791 44.52C85.0925 44.7733 85.0991 45 85.0991 45.2C85.0458 45.28 84.9191 45.3333 84.7191 45.36C84.5325 45.3867 84.3058 45.4 84.0391 45.4C83.7858 45.3867 83.5125 45.3733 83.2191 45.36C82.9258 45.3333 82.6525 45.3267 82.3991 45.34C82.3991 44.9533 82.3791 44.5533 82.3391 44.14ZM93.9998 47.04C94.2398 47.0267 94.3864 47.0333 94.4398 47.06C94.4398 47.5667 94.4264 48.0333 94.3998 48.46C94.3731 48.8733 94.3864 49.3 94.4398 49.74C93.7598 50.4733 93.0198 51.2133 92.2198 51.96C91.4198 52.6933 90.6798 53.44 89.9998 54.2C90.6664 54.1467 91.3731 54.14 92.1198 54.18C92.8798 54.22 93.6198 54.1867 94.3398 54.08C94.3398 54.5067 94.3464 54.96 94.3598 55.44C94.3731 55.92 94.3798 56.3933 94.3798 56.86C93.7664 56.8733 93.1131 56.8867 92.4198 56.9C91.7398 56.9133 91.0464 56.9267 90.3398 56.94C89.6331 56.9533 88.9331 56.9667 88.2398 56.98C87.5464 56.98 86.8798 56.98 86.2398 56.98C86.2531 56.5933 86.2531 56.28 86.2398 56.04C86.2398 55.8 86.2331 55.5933 86.2198 55.42C86.2064 55.2467 86.1931 55.0867 86.1798 54.94C86.1798 54.7933 86.1864 54.62 86.1998 54.42C86.5198 54.0067 86.8731 53.6067 87.2598 53.22C87.6464 52.82 88.0464 52.4333 88.4598 52.06C88.8731 51.6733 89.2798 51.2933 89.6798 50.92C90.0798 50.5333 90.4464 50.14 90.7798 49.74C90.4331 49.7533 90.0598 49.7667 89.6598 49.78C89.2598 49.7933 88.8598 49.8133 88.4598 49.84C88.0598 49.8667 87.6731 49.9 87.2998 49.94C86.9398 49.98 86.6131 50.02 86.3198 50.06C86.2931 49.7 86.2798 49.3933 86.2798 49.14C86.2798 48.8867 86.2798 48.66 86.2798 48.46C86.2931 48.2467 86.3064 48.0333 86.3198 47.82C86.3331 47.6067 86.3331 47.3533 86.3198 47.06C87.3998 47.06 88.4131 47.06 89.3598 47.06C90.3198 47.0467 91.1598 47.04 91.8798 47.04C91.9864 47.0667 92.1664 47.08 92.4198 47.08C92.6864 47.0667 92.9598 47.06 93.2398 47.06C93.5198 47.0467 93.7731 47.04 93.9998 47.04ZM98.6409 52.04C98.3475 52.0267 98.1342 52.0067 98.0009 51.98V52.34C98.0142 52.74 98.0275 53.0667 98.0409 53.32C98.0675 53.5733 98.1542 53.82 98.3009 54.06C98.4609 54.3667 98.6875 54.5933 98.9809 54.74C99.2742 54.8867 99.5609 54.9333 99.8409 54.88C100.121 54.8267 100.354 54.6667 100.541 54.4C100.741 54.12 100.828 53.7067 100.801 53.16C100.934 53.1733 101.114 53.18 101.341 53.18C101.568 53.1667 101.801 53.1533 102.041 53.14C102.294 53.1267 102.534 53.1267 102.761 53.14C102.988 53.14 103.174 53.16 103.321 53.2C103.294 53.5467 103.268 53.8867 103.241 54.22C103.214 54.5533 103.181 54.8667 103.141 55.16C103.101 55.44 103.048 55.6867 102.981 55.9C102.928 56.1 102.854 56.24 102.761 56.32C102.534 56.64 102.241 56.8667 101.881 57C101.521 57.1333 101.128 57.2133 100.701 57.24C100.274 57.2667 99.8342 57.2667 99.3809 57.24C98.9409 57.2133 98.5342 57.2 98.1609 57.2C97.7875 57.1467 97.4409 57.0267 97.1209 56.84C96.7609 56.5867 96.4609 56.26 96.2209 55.86C95.9809 55.4467 95.7875 55 95.6409 54.52C95.4942 54.0267 95.3942 53.5067 95.3409 52.96C95.2875 52.4133 95.2742 51.8667 95.3009 51.32C95.3409 50.8267 95.3809 50.3533 95.4209 49.9C95.4742 49.4333 95.5809 48.98 95.7409 48.54C95.9142 48.1533 96.1809 47.8267 96.5409 47.56C96.9009 47.28 97.3075 47.0733 97.7609 46.94C98.2142 46.7933 98.6942 46.7133 99.2009 46.7C99.7075 46.6867 100.201 46.74 100.681 46.86C101.294 46.9667 101.788 47.18 102.161 47.5C102.534 47.82 102.814 48.2067 103.001 48.66C103.201 49.1133 103.321 49.6133 103.361 50.16C103.401 50.7067 103.401 51.26 103.361 51.82C103.268 51.8467 103.088 51.8733 102.821 51.9C102.568 51.9267 102.261 51.9533 101.901 51.98C101.554 52.0067 101.181 52.0267 100.781 52.04C100.381 52.0533 99.9942 52.06 99.6209 52.06C99.2609 52.06 98.9342 52.0533 98.6409 52.04ZM100.981 49.42C100.848 49.18 100.661 49 100.421 48.88C100.314 48.8133 100.208 48.7667 100.101 48.74C99.9942 48.7 99.8675 48.68 99.7209 48.68C99.4009 48.68 99.1409 48.7133 98.9409 48.78C98.7409 48.8467 98.5809 48.94 98.4609 49.06C98.3409 49.18 98.2475 49.32 98.1809 49.48C98.1275 49.64 98.0875 49.8067 98.0609 49.98C98.0342 50.1267 98.0209 50.2333 98.0209 50.3C98.0342 50.3533 98.1009 50.3933 98.2209 50.42C98.3409 50.4333 98.5275 50.44 98.7809 50.44C99.0475 50.4267 99.4342 50.42 99.9409 50.42C100.288 50.42 100.548 50.4267 100.721 50.44C100.894 50.4533 101.014 50.46 101.081 50.46C101.161 50.4467 101.201 50.4267 101.201 50.4C101.201 50.36 101.201 50.2867 101.201 50.18C101.201 49.9133 101.128 49.66 100.981 49.42Z" fill="#0072CE"/>
</svg>
