<svg width="157" height="80" viewBox="0 0 157 80" fill="none" xmlns="http://www.w3.org/2000/svg">
<rect x="0.5" y="0.5" width="156" height="79" rx="3.5" fill="#FFB901"/>
<rect x="0.5" y="0.5" width="156" height="79" rx="3.5" stroke="#0072CE"/>
<path d="M60.8794 25.04C61.226 25.6933 61.306 26.52 61.1194 27.52H61.0994C60.6327 27.6 60.1327 27.6533 59.5994 27.68C59.066 27.6933 58.566 27.6333 58.0994 27.5C58.1794 27.14 58.106 26.84 57.8794 26.6C57.6527 26.36 57.3794 26.2067 57.0594 26.14C56.7394 26.0733 56.426 26.1067 56.1194 26.24C55.826 26.3733 55.6527 26.6267 55.5994 27C55.5727 27.0933 55.5594 27.1867 55.5594 27.28C55.5727 27.36 55.586 27.4467 55.5994 27.54C55.706 27.86 55.8794 28.0733 56.1194 28.18C56.3594 28.2867 56.6194 28.36 56.8994 28.4C57.606 28.48 58.2594 28.7067 58.8594 29.08C59.4727 29.4533 59.9727 29.9267 60.3594 30.5C60.5994 30.8067 60.7794 31.14 60.8994 31.5C61.0194 31.8467 61.086 32.2067 61.0994 32.58C61.126 32.9533 61.0994 33.3333 61.0194 33.72C60.9527 34.0933 60.8394 34.4533 60.6794 34.8C60.5194 35.2133 60.306 35.5667 60.0394 35.86C59.7727 36.1533 59.466 36.3933 59.1194 36.58C58.786 36.7667 58.4194 36.9067 58.0194 37C57.6327 37.08 57.2327 37.1133 56.8194 37.1C56.2327 37.0867 55.646 36.9867 55.0594 36.8C54.486 36.6 53.9727 36.3267 53.5194 35.98C53.066 35.6333 52.706 35.2133 52.4394 34.72C52.1727 34.2133 52.0594 33.64 52.0994 33V32.94V32.88C52.566 32.8133 53.0794 32.8 53.6394 32.84C54.1994 32.8667 54.706 32.8733 55.1594 32.86C55.186 33.2867 55.3527 33.6067 55.6594 33.82C55.9794 34.0333 56.3127 34.14 56.6594 34.14C57.0194 34.1267 57.326 34.0067 57.5794 33.78C57.846 33.5533 57.9394 33.2067 57.8594 32.74C57.8194 32.42 57.6994 32.1667 57.4994 31.98C57.2994 31.78 57.0594 31.62 56.7794 31.5C56.5127 31.38 56.2194 31.2933 55.8994 31.24C55.5794 31.1733 55.2794 31.1133 54.9994 31.06C54.7327 31.0067 54.486 30.92 54.2594 30.8C54.0327 30.68 53.826 30.54 53.6394 30.38C53.026 29.7933 52.626 29.1467 52.4394 28.44C52.266 27.7333 52.2594 27.0467 52.4194 26.38C52.5794 25.7133 52.8794 25.1067 53.3194 24.56C53.7727 24.0133 54.3194 23.6067 54.9594 23.34C55.2794 23.2067 55.6327 23.12 56.0194 23.08C56.406 23.0267 56.7927 23.0133 57.1794 23.04C57.5794 23.0533 57.966 23.1067 58.3394 23.2C58.726 23.2933 59.0794 23.4133 59.3994 23.56C60.0394 23.8933 60.5327 24.3867 60.8794 25.04ZM65.3264 32.04C65.0331 32.0267 64.8197 32.0067 64.6864 31.98V32.34C64.6997 32.74 64.7131 33.0667 64.7264 33.32C64.7531 33.5733 64.8397 33.82 64.9864 34.06C65.1464 34.3667 65.3731 34.5933 65.6664 34.74C65.9597 34.8867 66.2464 34.9333 66.5264 34.88C66.8064 34.8267 67.0397 34.6667 67.2264 34.4C67.4264 34.12 67.5131 33.7067 67.4864 33.16C67.6197 33.1733 67.7997 33.18 68.0264 33.18C68.2531 33.1667 68.4864 33.1533 68.7264 33.14C68.9797 33.1267 69.2197 33.1267 69.4464 33.14C69.6731 33.14 69.8597 33.16 70.0064 33.2C69.9797 33.5467 69.9531 33.8867 69.9264 34.22C69.8997 34.5533 69.8664 34.8667 69.8264 35.16C69.7864 35.44 69.7331 35.6867 69.6664 35.9C69.6131 36.1 69.5397 36.24 69.4464 36.32C69.2197 36.64 68.9264 36.8667 68.5664 37C68.2064 37.1333 67.8131 37.2133 67.3864 37.24C66.9597 37.2667 66.5197 37.2667 66.0664 37.24C65.6264 37.2133 65.2197 37.2 64.8464 37.2C64.4731 37.1467 64.1264 37.0267 63.8064 36.84C63.4464 36.5867 63.1464 36.26 62.9064 35.86C62.6664 35.4467 62.4731 35 62.3264 34.52C62.1797 34.0267 62.0797 33.5067 62.0264 32.96C61.9731 32.4133 61.9597 31.8667 61.9864 31.32C62.0264 30.8267 62.0664 30.3533 62.1064 29.9C62.1597 29.4333 62.2664 28.98 62.4264 28.54C62.5997 28.1533 62.8664 27.8267 63.2264 27.56C63.5864 27.28 63.9931 27.0733 64.4464 26.94C64.8997 26.7933 65.3797 26.7133 65.8864 26.7C66.3931 26.6867 66.8864 26.74 67.3664 26.86C67.9797 26.9667 68.4731 27.18 68.8464 27.5C69.2197 27.82 69.4997 28.2067 69.6864 28.66C69.8864 29.1133 70.0064 29.6133 70.0464 30.16C70.0864 30.7067 70.0864 31.26 70.0464 31.82C69.9531 31.8467 69.7731 31.8733 69.5064 31.9C69.2531 31.9267 68.9464 31.9533 68.5864 31.98C68.2397 32.0067 67.8664 32.0267 67.4664 32.04C67.0664 32.0533 66.6797 32.06 66.3064 32.06C65.9464 32.06 65.6197 32.0533 65.3264 32.04ZM67.6664 29.42C67.5331 29.18 67.3464 29 67.1064 28.88C66.9997 28.8133 66.8931 28.7667 66.7864 28.74C66.6797 28.7 66.5531 28.68 66.4064 28.68C66.0864 28.68 65.8264 28.7133 65.6264 28.78C65.4264 28.8467 65.2664 28.94 65.1464 29.06C65.0264 29.18 64.9331 29.32 64.8664 29.48C64.8131 29.64 64.7731 29.8067 64.7464 29.98C64.7197 30.1267 64.7064 30.2333 64.7064 30.3C64.7197 30.3533 64.7864 30.3933 64.9064 30.42C65.0264 30.4333 65.2131 30.44 65.4664 30.44C65.7331 30.4267 66.1197 30.42 66.6264 30.42C66.9731 30.42 67.2331 30.4267 67.4064 30.44C67.5797 30.4533 67.6997 30.46 67.7664 30.46C67.8464 30.4467 67.8864 30.4267 67.8864 30.4C67.8864 30.36 67.8864 30.2867 67.8864 30.18C67.8864 29.9133 67.8131 29.66 67.6664 29.42ZM78.0931 26.98C78.4265 26.9933 78.8065 27.0133 79.2331 27.04C79.2465 27.12 79.2531 27.2 79.2531 27.28C79.2665 27.36 79.2731 27.44 79.2731 27.52V27.72C79.2331 29.16 79.2398 30.58 79.2931 31.98C79.3465 33.3667 79.3265 34.7733 79.2331 36.2C79.2331 36.3733 79.2265 36.5467 79.2131 36.72C79.2131 36.8933 79.1331 36.9933 78.9731 37.02H78.7331C78.5198 37.02 78.2998 37.0133 78.0731 37C77.8598 36.9733 77.6465 36.96 77.4331 36.96C77.2865 36.96 77.1398 36.9733 76.9931 37C76.8598 37.0133 76.7198 37.02 76.5731 37.02C76.4798 36.9933 76.4131 36.94 76.3731 36.86C76.3465 36.78 76.3331 36.6867 76.3331 36.58C76.3331 36.4333 76.3465 36.3133 76.3731 36.22C76.3998 36.1267 76.4131 36.0133 76.4131 35.88C76.0931 36.2 75.6865 36.4733 75.1931 36.7C74.7131 36.9267 74.2398 37.04 73.7731 37.04C73.2531 37.04 72.8065 36.86 72.4331 36.5C72.0731 36.14 71.7731 35.6933 71.5331 35.16C71.2931 34.6267 71.1131 34.0467 70.9931 33.42C70.8865 32.7933 70.8331 32.2133 70.8331 31.68C70.8331 31.0133 70.9198 30.4 71.0931 29.84C71.2665 29.28 71.4998 28.8 71.7931 28.4C72.0998 27.9867 72.4598 27.6667 72.8731 27.44C73.2865 27.2 73.7265 27.0733 74.1931 27.06C74.4331 27.06 74.6531 27.0667 74.8531 27.08C75.0665 27.08 75.2598 27.1133 75.4331 27.18C75.6065 27.2333 75.7598 27.3267 75.8931 27.46C76.0265 27.58 76.1398 27.7533 76.2331 27.98C76.2198 27.7667 76.2265 27.5867 76.2531 27.44C76.2931 27.28 76.3131 27.12 76.3131 26.96C76.3131 26.9467 76.3531 26.94 76.4331 26.94C76.5265 26.9267 76.6265 26.9267 76.7331 26.94C76.8398 26.94 76.9465 26.94 77.0531 26.94C77.1598 26.94 77.2331 26.94 77.2731 26.94C77.4998 26.9533 77.7731 26.9667 78.0931 26.98ZM73.9731 30.14C73.6665 30.3933 73.4798 30.6867 73.4131 31.02C73.3598 31.1933 73.3265 31.3733 73.3131 31.56C73.2998 31.7333 73.2931 31.9067 73.2931 32.08C73.2931 32.68 73.4465 33.1933 73.7531 33.62C74.0731 34.0333 74.5131 34.24 75.0731 34.24C75.4065 34.24 75.6531 34.1867 75.8131 34.08C75.9865 33.96 76.1065 33.8 76.1731 33.6C76.2531 33.3867 76.2931 33.1333 76.2931 32.84C76.3065 32.5333 76.3131 32.1933 76.3131 31.82C76.3131 31.3533 76.3065 30.9867 76.2931 30.72C76.2931 30.44 76.2598 30.2267 76.1931 30.08C76.1398 29.9333 76.0398 29.84 75.8931 29.8C75.7598 29.76 75.5531 29.74 75.2731 29.74C74.7265 29.74 74.2931 29.8733 73.9731 30.14ZM83.4048 27.5C83.4182 27.54 83.4248 27.6067 83.4248 27.7C83.4782 27.6733 83.5982 27.62 83.7848 27.54C83.9848 27.46 84.1782 27.3867 84.3648 27.32C84.6182 27.24 84.9048 27.18 85.2248 27.14C85.5448 27.0867 85.8448 27.0533 86.1248 27.04C86.4048 27.0267 86.6382 27.0267 86.8248 27.04C87.0248 27.04 87.1248 27.0467 87.1248 27.06C87.1248 27.5133 87.1182 27.9133 87.1048 28.26C87.1048 28.6067 87.1048 28.92 87.1048 29.2C87.1048 29.4667 87.1048 29.7133 87.1048 29.94C87.1048 30.1667 87.1115 30.38 87.1248 30.58L86.9448 30.52C86.8782 30.4933 86.8048 30.4733 86.7248 30.46C86.6582 30.4333 86.5915 30.4067 86.5248 30.38C86.3648 30.34 86.1982 30.3067 86.0248 30.28C85.8648 30.2533 85.7782 30.24 85.7648 30.24C85.4048 30.2 85.0715 30.18 84.7648 30.18C84.4715 30.18 84.2115 30.2267 83.9848 30.32C83.7715 30.4133 83.6048 30.56 83.4848 30.76C83.3648 30.96 83.3115 31.2467 83.3248 31.62C83.3382 32.0867 83.3515 32.5267 83.3648 32.94C83.3782 33.3533 83.3848 33.7733 83.3848 34.2C83.3848 34.6133 83.3848 35.04 83.3848 35.48C83.3982 35.9067 83.4048 36.3667 83.4048 36.86V36.94C83.1782 37.0067 82.9715 37.0467 82.7848 37.06C82.5982 37.0733 82.4048 37.0733 82.2048 37.06C82.0048 37.06 81.7848 37.0533 81.5448 37.04C81.3182 37.0267 81.0448 37.0333 80.7248 37.06C80.7248 35.42 80.7048 33.78 80.6648 32.14C80.6382 30.5 80.6515 28.8 80.7048 27.04C80.8648 27.0533 80.9982 27.0667 81.1048 27.08C81.2115 27.08 81.3115 27.08 81.4048 27.08C81.4982 27.08 81.5982 27.08 81.7048 27.08C81.8115 27.0667 81.9448 27.0533 82.1048 27.04C82.1582 27.04 82.2515 27.0333 82.3848 27.02C82.5315 27.0067 82.6782 26.9933 82.8248 26.98C82.9848 26.9667 83.1182 26.9667 83.2248 26.98C83.3448 26.98 83.4048 26.9933 83.4048 27.02C83.4048 27.1267 83.4048 27.2067 83.4048 27.26C83.4048 27.3133 83.4048 27.36 83.4048 27.4C83.4048 27.4267 83.4048 27.46 83.4048 27.5ZM95.1881 33.1C95.4148 33.1 95.6015 33.12 95.7481 33.16C95.7215 33.5067 95.6948 33.8467 95.6681 34.18C95.6415 34.5133 95.6081 34.8267 95.5681 35.12C95.5281 35.4 95.4748 35.6467 95.4081 35.86C95.3548 36.06 95.2815 36.2067 95.1881 36.3C94.9615 36.62 94.6615 36.8467 94.2881 36.98C93.9281 37.1133 93.5348 37.1933 93.1081 37.22C92.6815 37.26 92.2415 37.26 91.7881 37.22C91.3348 37.1933 90.9215 37.18 90.5481 37.18C89.8681 37.06 89.2948 36.7667 88.8281 36.3C88.4681 35.98 88.2215 35.58 88.0881 35.1C87.9548 34.62 87.8748 34.12 87.8481 33.6C87.8215 33.0667 87.8148 32.5333 87.8281 32C87.8548 31.4667 87.8415 30.98 87.7881 30.54C87.7881 30.06 87.8281 29.58 87.9081 29.1C87.9215 28.9533 87.9681 28.7533 88.0481 28.5C88.1281 28.2467 88.1881 28.0533 88.2281 27.92C88.3215 27.72 88.4681 27.5467 88.6681 27.4C88.8815 27.2533 89.1215 27.1333 89.3881 27.04C89.6681 26.9333 89.9615 26.86 90.2681 26.82C90.5881 26.78 90.9081 26.76 91.2281 26.76C91.4948 26.7867 91.7481 26.7933 91.9881 26.78C92.2415 26.7533 92.5081 26.7533 92.7881 26.78C93.2148 26.8067 93.6215 26.8867 94.0081 27.02C94.3948 27.1533 94.7281 27.3533 95.0081 27.62C95.1948 27.7533 95.3348 27.9333 95.4281 28.16C95.5348 28.3867 95.6148 28.6533 95.6681 28.96C95.7215 29.2667 95.7481 29.6133 95.7481 30C95.7615 30.3733 95.7748 30.78 95.7881 31.22C95.6148 31.26 95.4148 31.28 95.1881 31.28C94.9748 31.28 94.7481 31.2733 94.5081 31.26C94.2815 31.2467 94.0548 31.2267 93.8281 31.2C93.6148 31.1733 93.4215 31.1467 93.2481 31.12C93.1815 30.6533 92.9881 30.2933 92.6681 30.04C92.3481 29.7733 91.9281 29.7067 91.4081 29.84C91.1281 29.92 90.9015 30.0667 90.7281 30.28C90.6481 30.3333 90.5881 30.4667 90.5481 30.68C90.4948 31.0933 90.4681 31.5133 90.4681 31.94C90.4681 32.3667 90.4548 32.8133 90.4281 33.28C90.4015 33.5867 90.4748 33.8267 90.6481 34C90.8348 34.1733 91.0548 34.2933 91.3081 34.36C91.5615 34.4133 91.8215 34.4267 92.0881 34.4C92.3548 34.36 92.5681 34.2867 92.7281 34.18C92.8615 34.0867 92.9615 33.9333 93.0281 33.72C93.1081 33.4933 93.1681 33.2933 93.2081 33.12C93.3415 33.1333 93.5215 33.14 93.7481 33.14C93.9748 33.1267 94.2148 33.1133 94.4681 33.1C94.7215 33.0867 94.9615 33.0867 95.1881 33.1ZM99.5158 27.58C99.5158 27.86 99.5158 28.0267 99.5158 28.08C99.5824 28.04 99.6624 27.9933 99.7558 27.94C99.8624 27.8867 99.9491 27.8333 100.016 27.78C100.296 27.58 100.609 27.42 100.956 27.3C101.302 27.18 101.656 27.1133 102.016 27.1C102.389 27.0867 102.749 27.1267 103.096 27.22C103.442 27.3133 103.756 27.48 104.036 27.72C104.169 27.84 104.269 28.0933 104.336 28.48C104.416 28.8533 104.462 29.3067 104.476 29.84C104.502 30.3733 104.509 30.96 104.496 31.6C104.496 32.2267 104.489 32.8667 104.476 33.52C104.462 34.16 104.449 34.78 104.436 35.38C104.422 35.98 104.429 36.5067 104.456 36.96C103.989 37.0267 103.569 37.0533 103.196 37.04C102.836 37.04 102.422 37.04 101.956 37.04C101.929 36.7333 101.916 36.3867 101.916 36C101.916 35.6133 101.916 35.2133 101.916 34.8C101.929 34.3867 101.929 33.9733 101.916 33.56C101.916 33.1467 101.902 32.76 101.876 32.4C101.862 32.24 101.849 32.0667 101.836 31.88C101.822 31.68 101.796 31.4867 101.756 31.3C101.729 31.1133 101.682 30.9467 101.616 30.8C101.562 30.6533 101.482 30.54 101.376 30.46C101.362 30.4467 101.349 30.44 101.336 30.44C101.322 30.44 101.309 30.4333 101.296 30.42C101.189 30.3667 101.029 30.3267 100.816 30.3C100.616 30.26 100.416 30.2733 100.216 30.34C100.016 30.3933 99.8358 30.5133 99.6758 30.7C99.5158 30.8733 99.4224 31.14 99.3958 31.5C99.3691 31.9667 99.3624 32.4267 99.3758 32.88C99.3891 33.32 99.4024 33.7667 99.4158 34.22C99.4424 34.66 99.4558 35.1 99.4558 35.54C99.4558 35.98 99.4291 36.42 99.3758 36.86V36.94C99.1491 37.0067 98.9491 37.0467 98.7758 37.06C98.6158 37.0733 98.4491 37.0733 98.2758 37.06C98.1024 37.06 97.9091 37.0533 97.6958 37.04C97.4824 37.0267 97.2158 37.0333 96.8958 37.06C96.8958 36.5133 96.8891 35.86 96.8758 35.1C96.8758 34.3267 96.8691 33.5 96.8558 32.62C96.8558 31.74 96.8558 30.8333 96.8558 29.9C96.8558 28.9533 96.8558 28.0333 96.8558 27.14C96.8558 26.2467 96.8558 25.4067 96.8558 24.62C96.8691 23.82 96.8824 23.1267 96.8958 22.54C97.0558 22.5533 97.1891 22.5667 97.2958 22.58C97.4024 22.58 97.5024 22.58 97.5958 22.58C97.6891 22.58 97.7891 22.58 97.8958 22.58C98.0024 22.5667 98.1358 22.5533 98.2958 22.54C98.3491 22.54 98.4424 22.5333 98.5758 22.52C98.7091 22.4933 98.8424 22.4733 98.9758 22.46C99.1091 22.4467 99.2291 22.4467 99.3358 22.46C99.4424 22.46 99.4958 22.48 99.4958 22.52C99.5091 22.5867 99.5158 22.7667 99.5158 23.06C99.5158 23.34 99.5158 23.68 99.5158 24.08C99.5158 24.4667 99.5158 24.8867 99.5158 25.34C99.5158 25.78 99.5158 26.1933 99.5158 26.58C99.5158 26.9667 99.5158 27.3 99.5158 27.58ZM53.308 42.9C53.4947 42.9133 53.588 42.9267 53.588 42.94V43.16C53.6014 43.4267 53.608 43.6333 53.608 43.78C53.6214 43.9133 53.628 44.04 53.628 44.16C53.6414 44.2667 53.648 44.3867 53.648 44.52C53.6614 44.64 53.668 44.82 53.668 45.06C53.668 45.2867 53.668 45.5933 53.668 45.98C53.668 46.3667 53.6614 46.8733 53.648 47.5C53.6747 47.38 53.8214 47.2733 54.088 47.18C54.3547 47.0867 54.6814 47.0267 55.068 47C55.4547 46.96 55.8614 46.96 56.288 47C56.728 47.0267 57.128 47.1067 57.488 47.24C57.7814 47.3467 58.028 47.5333 58.228 47.8C58.4414 48.0533 58.608 48.3667 58.728 48.74C58.8614 49.1 58.9547 49.5 59.008 49.94C59.0747 50.38 59.108 50.8333 59.108 51.3C59.0814 51.9667 59.0347 52.6267 58.968 53.28C58.9014 53.9333 58.7547 54.5267 58.528 55.06C58.3147 55.58 57.988 56.0133 57.548 56.36C57.108 56.6933 56.508 56.8867 55.748 56.94C55.3747 56.9933 55.0214 56.9667 54.688 56.86C54.3547 56.74 54.088 56.48 53.888 56.08C53.848 56 53.808 55.98 53.768 56.02C53.7414 56.0467 53.7147 56.0933 53.688 56.16C53.688 56.3067 53.6814 56.42 53.668 56.5C53.668 56.58 53.668 56.6867 53.668 56.82C53.668 56.8867 53.6614 56.9333 53.648 56.96C53.248 57.0133 52.8014 57.0267 52.308 57C51.8147 56.9867 51.3614 56.98 50.948 56.98C50.9214 56.02 50.908 55.0267 50.908 54C50.9214 52.96 50.9347 51.9067 50.948 50.84C50.9747 49.76 51.0014 48.6667 51.028 47.56C51.0547 46.4533 51.068 45.3467 51.068 44.24V42.92C51.2814 42.88 51.5347 42.86 51.828 42.86C52.1214 42.8467 52.3947 42.8467 52.648 42.86C52.9147 42.86 53.1347 42.8733 53.308 42.9ZM56.808 51.28C56.7947 51.08 56.7547 50.8867 56.688 50.7C56.6214 50.2333 56.4214 49.88 56.088 49.64C55.768 49.4 55.3347 49.28 54.788 49.28C54.508 49.28 54.2814 49.3067 54.108 49.36C53.948 49.4 53.828 49.5 53.748 49.66C53.668 49.82 53.6147 50.0533 53.588 50.36C53.5747 50.6533 53.568 51.06 53.568 51.58C53.568 52.0067 53.5747 52.4 53.588 52.76C53.6147 53.1067 53.6747 53.4067 53.768 53.66C53.8747 53.9133 54.0214 54.1133 54.208 54.26C54.3947 54.4067 54.6614 54.48 55.008 54.48C55.288 54.48 55.5414 54.4067 55.768 54.26C55.9947 54.1133 56.188 53.92 56.348 53.68C56.508 53.4267 56.628 53.1467 56.708 52.84C56.788 52.52 56.828 52.1933 56.828 51.86C56.828 51.6733 56.8214 51.48 56.808 51.28ZM60.8515 47.04C61.3848 47 61.8648 47.0067 62.2915 47.06C62.3848 47.54 62.4915 48.1133 62.6115 48.78C62.7315 49.4333 62.8582 50.1 62.9915 50.78C63.1248 51.46 63.2648 52.1133 63.4115 52.74C63.5582 53.3533 63.7048 53.86 63.8515 54.26C63.9982 53.86 64.1182 53.3333 64.2115 52.68C64.3048 52.0267 64.3915 51.3467 64.4715 50.64C64.5648 49.9333 64.6648 49.2533 64.7715 48.6C64.8782 47.9467 65.0115 47.42 65.1715 47.02C65.6248 47.0333 66.0848 47.0267 66.5515 47C67.0182 46.9733 67.5315 46.98 68.0915 47.02C67.8782 47.82 67.6848 48.5867 67.5115 49.32C67.3515 50.04 67.1915 50.7467 67.0315 51.44C66.8582 52.0933 66.6982 52.78 66.5515 53.5C66.4182 54.22 66.2448 54.9267 66.0315 55.62C65.8315 56.3133 65.5715 56.9733 65.2515 57.6C64.9315 58.2267 64.5048 58.7667 63.9715 59.22C63.4515 59.6867 62.7982 60.04 62.0115 60.28C61.2382 60.52 60.2848 60.6067 59.1515 60.54C59.0182 60.14 58.9515 59.6867 58.9515 59.18C58.9382 58.6867 58.9648 58.2533 59.0315 57.88C59.3515 57.88 59.6782 57.8933 60.0115 57.92C60.3582 57.9467 60.6648 57.9267 60.9315 57.86C61.1982 57.8067 61.3982 57.68 61.5315 57.48C61.6782 57.28 61.7182 56.96 61.6515 56.52C61.3715 54.9067 61.0182 53.2933 60.5915 51.68C60.1648 50.0667 59.7448 48.5067 59.3315 47C59.8115 47.0533 60.3182 47.0667 60.8515 47.04ZM75.9566 42.9C77.41 42.8867 78.8233 42.9533 80.1966 43.1C80.2233 43.54 80.23 44.0467 80.2166 44.62C80.2166 45.1933 80.1833 45.72 80.1166 46.2C79.8633 46.1467 79.55 46.1267 79.1766 46.14C78.8033 46.1533 78.3033 46.1733 77.6766 46.2H77.6366H77.6166C77.6166 46.2133 77.61 46.2267 77.5966 46.24C77.5966 46.24 77.5966 46.2467 77.5966 46.26C77.5833 46.3267 77.57 46.4333 77.5566 46.58C77.5566 46.7133 77.5566 46.9333 77.5566 47.24C77.5566 47.5333 77.5566 47.9267 77.5566 48.42C77.57 48.9 77.5833 49.5267 77.5966 50.3C77.61 51.06 77.6233 51.98 77.6366 53.06C77.65 54.1267 77.67 55.3867 77.6966 56.84V56.86V56.88C77.4566 56.92 77.19 56.9467 76.8966 56.96C76.6166 56.96 76.33 56.96 76.0366 56.96C75.7566 56.96 75.4766 56.96 75.1966 56.96C74.9166 56.96 74.6566 56.98 74.4166 57.02C74.4033 56.9667 74.4033 56.7267 74.4166 56.3C74.43 55.8733 74.4366 55.24 74.4366 54.4C74.45 53.5467 74.4433 52.46 74.4166 51.14C74.4033 49.82 74.3566 48.2267 74.2766 46.36L74.2566 46.34C74.0966 46.26 73.8966 46.2133 73.6566 46.2C73.4166 46.1733 73.1766 46.16 72.9366 46.16C72.6966 46.1467 72.4766 46.14 72.2766 46.14C72.0766 46.14 71.9366 46.1267 71.8566 46.1C71.83 46.0467 71.8033 45.9133 71.7766 45.7C71.7633 45.4867 71.75 45.2333 71.7366 44.94C71.7366 44.6333 71.7366 44.3067 71.7366 43.96C71.7366 43.6133 71.75 43.28 71.7766 42.96C71.7766 42.9467 71.77 42.94 71.7566 42.94C71.7566 42.94 71.7566 42.9333 71.7566 42.92C73.1166 42.9067 74.5166 42.9 75.9566 42.9ZM81.1835 47.04C81.7168 47 82.1968 47.0067 82.6235 47.06C82.7168 47.54 82.8235 48.1133 82.9435 48.78C83.0635 49.4333 83.1902 50.1 83.3235 50.78C83.4568 51.46 83.5968 52.1133 83.7435 52.74C83.8902 53.3533 84.0368 53.86 84.1835 54.26C84.3302 53.86 84.4502 53.3333 84.5435 52.68C84.6368 52.0267 84.7235 51.3467 84.8035 50.64C84.8968 49.9333 84.9968 49.2533 85.1035 48.6C85.2102 47.9467 85.3435 47.42 85.5035 47.02C85.9568 47.0333 86.4168 47.0267 86.8835 47C87.3502 46.9733 87.8635 46.98 88.4235 47.02C88.2102 47.82 88.0168 48.5867 87.8435 49.32C87.6835 50.04 87.5235 50.7467 87.3635 51.44C87.1902 52.0933 87.0302 52.78 86.8835 53.5C86.7502 54.22 86.5768 54.9267 86.3635 55.62C86.1635 56.3133 85.9035 56.9733 85.5835 57.6C85.2635 58.2267 84.8368 58.7667 84.3035 59.22C83.7835 59.6867 83.1302 60.04 82.3435 60.28C81.5702 60.52 80.6168 60.6067 79.4835 60.54C79.3502 60.14 79.2835 59.6867 79.2835 59.18C79.2702 58.6867 79.2968 58.2533 79.3635 57.88C79.6835 57.88 80.0102 57.8933 80.3435 57.92C80.6902 57.9467 80.9968 57.9267 81.2635 57.86C81.5302 57.8067 81.7302 57.68 81.8635 57.48C82.0102 57.28 82.0502 56.96 81.9835 56.52C81.7035 54.9067 81.3502 53.2933 80.9235 51.68C80.4968 50.0667 80.0768 48.5067 79.6635 47C80.1435 47.0533 80.6502 47.0667 81.1835 47.04ZM91.9479 60.22C91.9479 60.3667 91.9412 60.5733 91.9279 60.84V61.06C91.9279 61.0733 91.8346 61.0867 91.6479 61.1C91.4746 61.1267 91.2546 61.14 90.9879 61.14C90.7346 61.1533 90.4612 61.1533 90.1679 61.14C89.8746 61.14 89.6212 61.12 89.4079 61.08V59.76C89.4079 58.6533 89.3946 57.5467 89.3679 56.44C89.3412 55.3333 89.3146 54.2467 89.2879 53.18C89.2746 52.1 89.2612 51.0467 89.2479 50.02C89.2479 48.98 89.2612 47.98 89.2879 47.02C89.7012 47.02 90.1546 47.0133 90.6479 47C91.1412 46.9733 91.5879 46.9867 91.9879 47.04C92.0012 47.0667 92.0079 47.1133 92.0079 47.18C92.0079 47.3133 92.0079 47.42 92.0079 47.5C92.0212 47.58 92.0279 47.6933 92.0279 47.84C92.0546 47.9067 92.0812 47.96 92.1079 48C92.1479 48.0267 92.1879 48 92.2279 47.92C92.4279 47.52 92.6946 47.2667 93.0279 47.16C93.3612 47.04 93.7146 47.0067 94.0879 47.06C94.8479 47.1133 95.4479 47.3133 95.8879 47.66C96.3279 47.9933 96.6546 48.4267 96.8679 48.96C97.0946 49.48 97.2412 50.0667 97.3079 50.72C97.3746 51.3733 97.4212 52.0333 97.4479 52.7C97.4479 53.1667 97.4146 53.62 97.3479 54.06C97.2946 54.5 97.2012 54.9067 97.0679 55.28C96.9479 55.64 96.7812 55.9533 96.5679 56.22C96.3679 56.4733 96.1212 56.6533 95.8279 56.76C95.4679 56.8933 95.0679 56.9733 94.6279 57C94.2012 57.04 93.7946 57.04 93.4079 57C93.0212 56.9733 92.6946 56.9133 92.4279 56.82C92.1612 56.7267 92.0146 56.62 91.9879 56.5C92.0012 57.1267 92.0079 57.6333 92.0079 58.02C92.0079 58.4067 92.0079 58.7133 92.0079 58.94C92.0079 59.18 92.0012 59.36 91.9879 59.48C91.9879 59.6133 91.9812 59.7333 91.9679 59.84C91.9679 59.96 91.9612 60.0867 91.9479 60.22ZM94.4279 54.36C94.7612 54.12 94.9612 53.7667 95.0279 53.3C95.0946 53.1133 95.1346 52.92 95.1479 52.72C95.1612 52.52 95.1679 52.3267 95.1679 52.14C95.1679 51.8067 95.1279 51.4867 95.0479 51.18C94.9679 50.86 94.8479 50.58 94.6879 50.34C94.5279 50.0867 94.3346 49.8867 94.1079 49.74C93.8812 49.5933 93.6279 49.52 93.3479 49.52C93.0012 49.52 92.7346 49.5933 92.5479 49.74C92.3612 49.8867 92.2146 50.0867 92.1079 50.34C92.0146 50.5933 91.9546 50.9 91.9279 51.26C91.9146 51.62 91.9079 52.0067 91.9079 52.42C91.9079 52.94 91.9146 53.3533 91.9279 53.66C91.9546 53.9533 92.0079 54.18 92.0879 54.34C92.1679 54.5 92.2879 54.6067 92.4479 54.66C92.6212 54.7 92.8479 54.72 93.1279 54.72C93.6746 54.72 94.1079 54.6 94.4279 54.36ZM101.625 52.04C101.332 52.0267 101.119 52.0067 100.985 51.98V52.34C100.999 52.74 101.012 53.0667 101.025 53.32C101.052 53.5733 101.139 53.82 101.285 54.06C101.445 54.3667 101.672 54.5933 101.965 54.74C102.259 54.8867 102.545 54.9333 102.825 54.88C103.105 54.8267 103.339 54.6667 103.525 54.4C103.725 54.12 103.812 53.7067 103.785 53.16C103.919 53.1733 104.099 53.18 104.325 53.18C104.552 53.1667 104.785 53.1533 105.025 53.14C105.279 53.1267 105.519 53.1267 105.745 53.14C105.972 53.14 106.159 53.16 106.305 53.2C106.279 53.5467 106.252 53.8867 106.225 54.22C106.199 54.5533 106.165 54.8667 106.125 55.16C106.085 55.44 106.032 55.6867 105.965 55.9C105.912 56.1 105.839 56.24 105.745 56.32C105.519 56.64 105.225 56.8667 104.865 57C104.505 57.1333 104.112 57.2133 103.685 57.24C103.259 57.2667 102.819 57.2667 102.365 57.24C101.925 57.2133 101.519 57.2 101.145 57.2C100.772 57.1467 100.425 57.0267 100.105 56.84C99.7452 56.5867 99.4452 56.26 99.2052 55.86C98.9652 55.4467 98.7719 55 98.6252 54.52C98.4786 54.0267 98.3786 53.5067 98.3252 52.96C98.2719 52.4133 98.2586 51.8667 98.2852 51.32C98.3252 50.8267 98.3652 50.3533 98.4052 49.9C98.4586 49.4333 98.5652 48.98 98.7252 48.54C98.8986 48.1533 99.1652 47.8267 99.5252 47.56C99.8852 47.28 100.292 47.0733 100.745 46.94C101.199 46.7933 101.679 46.7133 102.185 46.7C102.692 46.6867 103.185 46.74 103.665 46.86C104.279 46.9667 104.772 47.18 105.145 47.5C105.519 47.82 105.799 48.2067 105.985 48.66C106.185 49.1133 106.305 49.6133 106.345 50.16C106.385 50.7067 106.385 51.26 106.345 51.82C106.252 51.8467 106.072 51.8733 105.805 51.9C105.552 51.9267 105.245 51.9533 104.885 51.98C104.539 52.0067 104.165 52.0267 103.765 52.04C103.365 52.0533 102.979 52.06 102.605 52.06C102.245 52.06 101.919 52.0533 101.625 52.04ZM103.965 49.42C103.832 49.18 103.645 49 103.405 48.88C103.299 48.8133 103.192 48.7667 103.085 48.74C102.979 48.7 102.852 48.68 102.705 48.68C102.385 48.68 102.125 48.7133 101.925 48.78C101.725 48.8467 101.565 48.94 101.445 49.06C101.325 49.18 101.232 49.32 101.165 49.48C101.112 49.64 101.072 49.8067 101.045 49.98C101.019 50.1267 101.005 50.2333 101.005 50.3C101.019 50.3533 101.085 50.3933 101.205 50.42C101.325 50.4333 101.512 50.44 101.765 50.44C102.032 50.4267 102.419 50.42 102.925 50.42C103.272 50.42 103.532 50.4267 103.705 50.44C103.879 50.4533 103.999 50.46 104.065 50.46C104.145 50.4467 104.185 50.4267 104.185 50.4C104.185 50.36 104.185 50.2867 104.185 50.18C104.185 49.9133 104.112 49.66 103.965 49.42Z" fill="#0072CE"/>
</svg>
