<svg width="174" height="30" viewBox="0 0 174 30" fill="none" xmlns="http://www.w3.org/2000/svg">
<path d="M18.5088 5.08C19.2021 6.38667 19.3621 8.04 18.9888 10.04H18.9488C18.0154 10.2 17.0154 10.3067 15.9488 10.36C14.8821 10.3867 13.8821 10.2667 12.9488 10C13.1088 9.28 12.9621 8.68 12.5088 8.2C12.0554 7.72 11.5088 7.41333 10.8688 7.28C10.2288 7.14667 9.60208 7.21333 8.98875 7.48C8.40208 7.74667 8.05542 8.25333 7.94875 9C7.89542 9.18667 7.86875 9.37333 7.86875 9.56C7.89542 9.72 7.92208 9.89333 7.94875 10.08C8.16208 10.72 8.50875 11.1467 8.98875 11.36C9.46875 11.5733 9.98875 11.72 10.5488 11.8C11.9621 11.96 13.2688 12.4133 14.4688 13.16C15.6954 13.9067 16.6954 14.8533 17.4688 16C17.9488 16.6133 18.3088 17.28 18.5488 18C18.7888 18.6933 18.9221 19.4133 18.9488 20.16C19.0021 20.9067 18.9488 21.6667 18.7888 22.44C18.6554 23.1867 18.4288 23.9067 18.1088 24.6C17.7888 25.4267 17.3621 26.1333 16.8288 26.72C16.2954 27.3067 15.6821 27.7867 14.9888 28.16C14.3221 28.5333 13.5888 28.8133 12.7888 29C12.0154 29.16 11.2154 29.2267 10.3888 29.2C9.21542 29.1733 8.04208 28.9733 6.86875 28.6C5.72208 28.2 4.69542 27.6533 3.78875 26.96C2.88208 26.2667 2.16208 25.4267 1.62875 24.44C1.09542 23.4267 0.86875 22.28 0.94875 21V20.88V20.76C1.88208 20.6267 2.90875 20.6 4.02875 20.68C5.14875 20.7333 6.16208 20.7467 7.06875 20.72C7.12208 21.5733 7.45542 22.2133 8.06875 22.64C8.70875 23.0667 9.37542 23.28 10.0688 23.28C10.7888 23.2533 11.4021 23.0133 11.9088 22.56C12.4421 22.1067 12.6288 21.4133 12.4688 20.48C12.3888 19.84 12.1488 19.3333 11.7488 18.96C11.3488 18.56 10.8688 18.24 10.3088 18C9.77542 17.76 9.18875 17.5867 8.54875 17.48C7.90875 17.3467 7.30875 17.2267 6.74875 17.12C6.21542 17.0133 5.72208 16.84 5.26875 16.6C4.81542 16.36 4.40208 16.08 4.02875 15.76C2.80208 14.5867 2.00208 13.2933 1.62875 11.88C1.28208 10.4667 1.26875 9.09333 1.58875 7.76C1.90875 6.42667 2.50875 5.21333 3.38875 4.12C4.29542 3.02666 5.38875 2.21333 6.66875 1.68C7.30875 1.41333 8.01542 1.24 8.78875 1.16C9.56208 1.05333 10.3354 1.02667 11.1088 1.08C11.9088 1.10667 12.6821 1.21333 13.4288 1.4C14.2021 1.58667 14.9088 1.82667 15.5488 2.12C16.8288 2.78667 17.8154 3.77333 18.5088 5.08ZM31.1228 27.84C31.1495 27.5467 31.1495 27.2133 31.1228 26.84C30.9895 26.92 30.8161 27.0133 30.6028 27.12C30.4161 27.2267 30.2561 27.3333 30.1228 27.44C29.5628 27.84 28.9361 28.16 28.2428 28.4C27.5495 28.64 26.8295 28.7733 26.0828 28.8C25.3628 28.8267 24.6561 28.7467 23.9628 28.56C23.2695 28.3733 22.6428 28.04 22.0828 27.56C21.8161 27.32 21.6028 26.8267 21.4428 26.08C21.3095 25.3067 21.2161 24.3867 21.1628 23.32C21.1361 22.2533 21.1228 21.0933 21.1228 19.84C21.1495 18.56 21.1761 17.28 21.2028 16C21.2295 14.6933 21.2561 13.44 21.2828 12.24C21.3095 11.04 21.2961 9.98667 21.2428 9.08C22.1761 8.94667 23.0028 8.89333 23.7228 8.92C24.4695 8.92 25.3095 8.92 26.2428 8.92C26.2961 9.53333 26.3228 10.2267 26.3228 11C26.3228 11.7733 26.3095 12.5733 26.2828 13.4C26.2828 14.2267 26.2828 15.0533 26.2828 15.88C26.3095 16.7067 26.3495 17.48 26.4028 18.2C26.4295 18.52 26.4561 18.88 26.4828 19.28C26.5095 19.6533 26.5495 20.0267 26.6028 20.4C26.6828 20.7733 26.7761 21.1067 26.8828 21.4C27.0161 21.6933 27.1895 21.92 27.4028 22.08C27.4295 22.1067 27.4561 22.12 27.4828 22.12C27.5095 22.12 27.5361 22.1333 27.5628 22.16C27.7761 22.2667 28.0828 22.36 28.4828 22.44C28.9095 22.4933 29.3228 22.4667 29.7228 22.36C30.1228 22.2267 30.4828 21.9867 30.8028 21.64C31.1228 21.2667 31.3095 20.72 31.3628 20C31.4161 19.0933 31.4295 18.1867 31.4028 17.28C31.3761 16.3733 31.3361 15.48 31.2828 14.6C31.2561 13.6933 31.2295 12.8 31.2028 11.92C31.2028 11.04 31.2695 10.16 31.4028 9.28V9.12C31.8561 8.98667 32.2428 8.90667 32.5628 8.88C32.9095 8.85333 33.2561 8.85333 33.6028 8.88C33.9495 8.88 34.3361 8.89333 34.7628 8.92C35.1895 8.94666 35.7228 8.93333 36.3628 8.88C36.3628 12.16 36.3895 15.44 36.4428 18.72C36.5228 22 36.5095 25.4 36.4028 28.92C36.0828 28.8933 35.8161 28.88 35.6028 28.88C35.3895 28.8533 35.1895 28.84 35.0028 28.84C34.8161 28.84 34.6161 28.8533 34.4028 28.88C34.1895 28.88 33.9228 28.8933 33.6028 28.92C33.4961 28.92 33.3095 28.9467 33.0428 29C32.7761 29.0267 32.5095 29.0533 32.2428 29.08C31.9761 29.1067 31.7361 29.1067 31.5228 29.08C31.3095 29.08 31.2028 29.04 31.2028 28.96C31.1495 28.5067 31.1228 28.1333 31.1228 27.84ZM44.7706 10C44.7973 10.08 44.8106 10.2133 44.8106 10.4C44.9173 10.3467 45.1573 10.24 45.5306 10.08C45.9306 9.92 46.3173 9.77333 46.6906 9.64C47.1973 9.48 47.7706 9.36 48.4106 9.28C49.0506 9.17333 49.6506 9.10667 50.2106 9.08C50.7706 9.05333 51.2373 9.05333 51.6106 9.08C52.0106 9.08 52.2106 9.09333 52.2106 9.12C52.2106 10.0267 52.1973 10.8267 52.1706 11.52C52.1706 12.2133 52.1706 12.84 52.1706 13.4C52.1706 13.9333 52.1706 14.4267 52.1706 14.88C52.1706 15.3333 52.184 15.76 52.2106 16.16L51.8506 16.04C51.7173 15.9867 51.5706 15.9467 51.4106 15.92C51.2773 15.8667 51.144 15.8133 51.0106 15.76C50.6906 15.68 50.3573 15.6133 50.0106 15.56C49.6906 15.5067 49.5173 15.48 49.4906 15.48C48.7706 15.4 48.104 15.36 47.4906 15.36C46.904 15.36 46.384 15.4533 45.9306 15.64C45.504 15.8267 45.1706 16.12 44.9306 16.52C44.6906 16.92 44.584 17.4933 44.6106 18.24C44.6373 19.1733 44.664 20.0533 44.6906 20.88C44.7173 21.7067 44.7306 22.5467 44.7306 23.4C44.7306 24.2267 44.7306 25.08 44.7306 25.96C44.7573 26.8133 44.7706 27.7333 44.7706 28.72V28.88C44.3173 29.0133 43.904 29.0933 43.5306 29.12C43.1573 29.1467 42.7706 29.1467 42.3706 29.12C41.9706 29.12 41.5306 29.1067 41.0506 29.08C40.5973 29.0533 40.0506 29.0667 39.4106 29.12C39.4106 25.84 39.3706 22.56 39.2906 19.28C39.2373 16 39.264 12.6 39.3706 9.08C39.6906 9.10667 39.9573 9.13333 40.1706 9.16C40.384 9.16 40.584 9.16 40.7706 9.16C40.9573 9.16 41.1573 9.16 41.3706 9.16C41.584 9.13333 41.8506 9.10667 42.1706 9.08C42.2773 9.08 42.464 9.06667 42.7306 9.04C43.024 9.01333 43.3173 8.98667 43.6106 8.96C43.9306 8.93333 44.1973 8.93333 44.4106 8.96C44.6506 8.96 44.7706 8.98667 44.7706 9.04C44.7706 9.25333 44.7706 9.41333 44.7706 9.52C44.7706 9.62667 44.7706 9.72 44.7706 9.8C44.7706 9.85333 44.7706 9.92 44.7706 10ZM61.2572 14.76V23.48V28.84C60.8039 28.7867 60.3505 28.7733 59.8972 28.8C59.4439 28.8267 58.9905 28.8667 58.5372 28.92C58.0839 28.9467 57.6439 28.9733 57.2172 29C56.8172 29.0267 56.4439 29.0133 56.0972 28.96C56.0439 28.64 56.0039 28.12 55.9772 27.4C55.9772 26.6533 55.9639 25.8267 55.9372 24.92C55.9372 23.9867 55.9372 23.0133 55.9372 22C55.9372 20.9867 55.9372 20.0133 55.9372 19.08C55.9639 18.12 55.9772 17.2667 55.9772 16.52C56.0039 15.7733 56.0172 15.2 56.0172 14.8C55.5905 14.8 55.1372 14.8 54.6572 14.8C54.2039 14.8 53.7105 14.8133 53.1772 14.84L53.0572 9.96C53.6172 9.96 54.1239 9.96 54.5772 9.96C55.0572 9.96 55.5105 9.97333 55.9372 10C55.8839 9.33333 55.8972 8.61333 55.9772 7.84C56.0572 7.06667 56.2439 6.32 56.5372 5.6C56.8572 4.85333 57.2972 4.18667 57.8572 3.6C58.4172 2.98666 59.1505 2.53333 60.0572 2.24C61.1772 1.86667 62.3905 1.64 63.6972 1.56C65.0305 1.45333 66.3239 1.42666 67.5772 1.48C67.7105 1.88 67.7905 2.32 67.8172 2.8C67.8705 3.28 67.8839 3.76 67.8572 4.24C67.8305 4.72 67.7905 5.18667 67.7372 5.64C67.6839 6.09333 67.6305 6.50667 67.5772 6.88C67.2572 6.85333 66.8839 6.85333 66.4572 6.88C66.0572 6.90667 65.6305 6.94667 65.1772 7C64.7239 7.05333 64.2705 7.12 63.8172 7.2C63.3639 7.25333 62.9505 7.30667 62.5772 7.36C61.9639 7.46667 61.5772 7.78667 61.4172 8.32C61.2839 8.82667 61.2839 9.41333 61.4172 10.08H67.5372C67.4839 10.3733 67.4705 10.6667 67.4972 10.96C67.5239 11.2267 67.5239 11.5467 67.4972 11.92C67.4972 12.2133 67.4972 12.4533 67.4972 12.64C67.4972 12.8 67.4839 12.9733 67.4572 13.16C67.4572 13.3467 67.4439 13.5867 67.4172 13.88C67.3905 14.1733 67.3505 14.5733 67.2972 15.08C65.9372 15 64.7905 14.9333 63.8572 14.88C62.9505 14.8267 62.0839 14.7867 61.2572 14.76ZM73.8934 0.799998C74.2668 0.826665 74.4534 0.853332 74.4534 0.88V1.32C74.4801 1.85333 74.4934 2.26667 74.4934 2.56C74.5201 2.82667 74.5334 3.08 74.5334 3.32C74.5601 3.53333 74.5734 3.77333 74.5734 4.04C74.6001 4.28 74.6134 4.64 74.6134 5.12C74.6134 5.57333 74.6134 6.18667 74.6134 6.96C74.6134 7.73333 74.6001 8.74667 74.5734 10C74.6268 9.76 74.9201 9.54667 75.4534 9.36C75.9868 9.17333 76.6401 9.05333 77.4134 9C78.1868 8.92 79.0001 8.92 79.8534 9C80.7334 9.05333 81.5334 9.21333 82.2534 9.48C82.8401 9.69333 83.3334 10.0667 83.7334 10.6C84.1601 11.1067 84.4934 11.7333 84.7334 12.48C85.0001 13.2 85.1868 14 85.2934 14.88C85.4268 15.76 85.4934 16.6667 85.4934 17.6C85.4401 18.9333 85.3468 20.2533 85.2134 21.56C85.0801 22.8667 84.7868 24.0533 84.3334 25.12C83.9068 26.16 83.2534 27.0267 82.3734 27.72C81.4934 28.3867 80.2934 28.7733 78.7734 28.88C78.0268 28.9867 77.3201 28.9333 76.6534 28.72C75.9868 28.48 75.4534 27.96 75.0534 27.16C74.9734 27 74.8934 26.96 74.8134 27.04C74.7601 27.0933 74.7068 27.1867 74.6534 27.32C74.6534 27.6133 74.6401 27.84 74.6134 28C74.6134 28.16 74.6134 28.3733 74.6134 28.64C74.6134 28.7733 74.6001 28.8667 74.5734 28.92C73.7734 29.0267 72.8801 29.0533 71.8934 29C70.9068 28.9733 70.0001 28.96 69.1734 28.96C69.1201 27.04 69.0934 25.0533 69.0934 23C69.1201 20.92 69.1468 18.8133 69.1734 16.68C69.2268 14.52 69.2801 12.3333 69.3334 10.12C69.3868 7.90667 69.4134 5.69333 69.4134 3.48V0.839998C69.8401 0.759999 70.3468 0.719999 70.9334 0.719999C71.5201 0.693333 72.0668 0.693333 72.5734 0.719999C73.1068 0.719999 73.5468 0.746666 73.8934 0.799998ZM80.8934 17.56C80.8668 17.16 80.7868 16.7733 80.6534 16.4C80.5201 15.4667 80.1201 14.76 79.4534 14.28C78.8134 13.8 77.9468 13.56 76.8534 13.56C76.2934 13.56 75.8401 13.6133 75.4934 13.72C75.1734 13.8 74.9334 14 74.7734 14.32C74.6134 14.64 74.5068 15.1067 74.4534 15.72C74.4268 16.3067 74.4134 17.12 74.4134 18.16C74.4134 19.0133 74.4268 19.8 74.4534 20.52C74.5068 21.2133 74.6268 21.8133 74.8134 22.32C75.0268 22.8267 75.3201 23.2267 75.6934 23.52C76.0668 23.8133 76.6001 23.96 77.2934 23.96C77.8534 23.96 78.3601 23.8133 78.8134 23.52C79.2668 23.2267 79.6534 22.84 79.9734 22.36C80.2934 21.8533 80.5334 21.2933 80.6934 20.68C80.8534 20.04 80.9334 19.3867 80.9334 18.72C80.9334 18.3467 80.9201 17.96 80.8934 17.56ZM87.7681 11.96C87.9281 11.4533 88.0481 11.0533 88.1281 10.76C88.3148 10.36 88.6081 10.0133 89.0081 9.72C89.4348 9.42667 89.9148 9.18667 90.4481 9C91.0081 8.78667 91.5948 8.64 92.2081 8.56C92.8481 8.48 93.4881 8.44 94.1281 8.44C94.6615 8.49333 95.1681 8.50667 95.6481 8.48C96.1548 8.42667 96.6881 8.42667 97.2481 8.48C98.1015 8.53333 98.9148 8.70667 99.6881 9C100.461 9.26667 101.128 9.66667 101.688 10.2C102.061 10.44 102.355 10.8267 102.568 11.36C102.781 11.8933 102.941 12.52 103.048 13.24C103.155 13.9333 103.221 14.7067 103.248 15.56C103.275 16.3867 103.301 17.24 103.328 18.12C103.301 18.8933 103.261 19.7733 103.208 20.76C103.181 21.7467 103.115 22.6933 103.008 23.6C102.928 24.5067 102.808 25.32 102.648 26.04C102.515 26.76 102.315 27.2533 102.048 27.52C101.595 28.16 100.995 28.6133 100.248 28.88C99.5281 29.1467 98.7415 29.3067 97.8881 29.36C97.0348 29.44 96.1548 29.44 95.2481 29.36C94.3415 29.3067 93.5148 29.28 92.7681 29.28C91.4081 29.04 90.2615 28.4533 89.3281 27.52C88.6081 26.88 88.1148 26.08 87.8481 25.12C87.5815 24.16 87.4215 23.16 87.3681 22.12C87.3148 21.0533 87.3015 19.9867 87.3281 18.92C87.3815 17.8533 87.3681 16.88 87.2881 16C87.2881 15.52 87.3015 15.0533 87.3281 14.6C87.3548 14.12 87.4081 13.6267 87.4881 13.12C87.5148 12.8267 87.6081 12.44 87.7681 11.96ZM94.4881 14.6C93.9281 14.76 93.4748 15.0533 93.1281 15.48C92.9681 15.5867 92.8481 15.8533 92.7681 16.28C92.6615 17.1333 92.6081 17.9867 92.6081 18.84C92.6081 19.6667 92.5815 20.5467 92.5281 21.48C92.5015 22.0933 92.6615 22.5733 93.0081 22.92C93.3548 23.24 93.7681 23.4667 94.2481 23.6C94.7548 23.7067 95.2748 23.7333 95.8081 23.68C96.3415 23.6 96.7815 23.4667 97.1281 23.28C97.5815 23.0667 97.8881 22.6267 98.0481 21.96C98.1548 21.1067 98.2348 20.2533 98.2881 19.4C98.3681 18.52 98.3281 17.6933 98.1681 16.92C98.0348 15.9867 97.6481 15.3067 97.0081 14.88C96.3681 14.4533 95.5281 14.36 94.4881 14.6ZM119.538 8.96C120.204 8.98667 120.964 9.02667 121.818 9.08C121.844 9.24 121.858 9.4 121.858 9.56C121.884 9.72 121.898 9.88 121.898 10.04V10.44C121.818 13.32 121.831 16.16 121.938 18.96C122.044 21.7333 122.004 24.5467 121.818 27.4C121.818 27.7467 121.804 28.0933 121.778 28.44C121.778 28.7867 121.618 28.9867 121.298 29.04H120.818C120.391 29.04 119.951 29.0267 119.498 29C119.071 28.9467 118.644 28.92 118.218 28.92C117.924 28.92 117.631 28.9467 117.338 29C117.071 29.0267 116.791 29.04 116.498 29.04C116.311 28.9867 116.178 28.88 116.098 28.72C116.044 28.56 116.018 28.3733 116.018 28.16C116.018 27.8667 116.044 27.6267 116.098 27.44C116.151 27.2533 116.178 27.0267 116.178 26.76C115.538 27.4 114.724 27.9467 113.738 28.4C112.778 28.8533 111.831 29.08 110.898 29.08C109.858 29.08 108.964 28.72 108.218 28C107.498 27.28 106.898 26.3867 106.418 25.32C105.938 24.2533 105.578 23.0933 105.338 21.84C105.124 20.5867 105.018 19.4267 105.018 18.36C105.018 17.0267 105.191 15.8 105.538 14.68C105.884 13.56 106.351 12.6 106.938 11.8C107.551 10.9733 108.271 10.3333 109.098 9.88C109.924 9.4 110.804 9.14667 111.738 9.12C112.218 9.12 112.658 9.13333 113.058 9.16C113.484 9.16 113.871 9.22667 114.218 9.36C114.564 9.46667 114.871 9.65333 115.138 9.92C115.404 10.16 115.631 10.5067 115.818 10.96C115.791 10.5333 115.804 10.1733 115.858 9.88C115.938 9.56 115.978 9.24 115.978 8.92C115.978 8.89333 116.058 8.88 116.218 8.88C116.404 8.85333 116.604 8.85333 116.818 8.88C117.031 8.88 117.244 8.88 117.458 8.88C117.671 8.88 117.818 8.88 117.898 8.88C118.351 8.90667 118.898 8.93333 119.538 8.96ZM111.298 15.28C110.684 15.7867 110.311 16.3733 110.178 17.04C110.071 17.3867 110.004 17.7467 109.978 18.12C109.951 18.4667 109.938 18.8133 109.938 19.16C109.938 20.36 110.244 21.3867 110.858 22.24C111.498 23.0667 112.378 23.48 113.498 23.48C114.164 23.48 114.658 23.3733 114.978 23.16C115.324 22.92 115.564 22.6 115.698 22.2C115.858 21.7733 115.938 21.2667 115.938 20.68C115.964 20.0667 115.978 19.3867 115.978 18.64C115.978 17.7067 115.964 16.9733 115.938 16.44C115.938 15.88 115.871 15.4533 115.738 15.16C115.631 14.8667 115.431 14.68 115.138 14.6C114.871 14.52 114.458 14.48 113.898 14.48C112.804 14.48 111.938 14.7467 111.298 15.28ZM130.161 10C130.188 10.08 130.201 10.2133 130.201 10.4C130.308 10.3467 130.548 10.24 130.921 10.08C131.321 9.92 131.708 9.77333 132.081 9.64C132.588 9.48 133.161 9.36 133.801 9.28C134.441 9.17333 135.041 9.10667 135.601 9.08C136.161 9.05333 136.628 9.05333 137.001 9.08C137.401 9.08 137.601 9.09333 137.601 9.12C137.601 10.0267 137.588 10.8267 137.561 11.52C137.561 12.2133 137.561 12.84 137.561 13.4C137.561 13.9333 137.561 14.4267 137.561 14.88C137.561 15.3333 137.575 15.76 137.601 16.16L137.241 16.04C137.108 15.9867 136.961 15.9467 136.801 15.92C136.668 15.8667 136.535 15.8133 136.401 15.76C136.081 15.68 135.748 15.6133 135.401 15.56C135.081 15.5067 134.908 15.48 134.881 15.48C134.161 15.4 133.495 15.36 132.881 15.36C132.295 15.36 131.775 15.4533 131.321 15.64C130.895 15.8267 130.561 16.12 130.321 16.52C130.081 16.92 129.975 17.4933 130.001 18.24C130.028 19.1733 130.055 20.0533 130.081 20.88C130.108 21.7067 130.121 22.5467 130.121 23.4C130.121 24.2267 130.121 25.08 130.121 25.96C130.148 26.8133 130.161 27.7333 130.161 28.72V28.88C129.708 29.0133 129.295 29.0933 128.921 29.12C128.548 29.1467 128.161 29.1467 127.761 29.12C127.361 29.12 126.921 29.1067 126.441 29.08C125.988 29.0533 125.441 29.0667 124.801 29.12C124.801 25.84 124.761 22.56 124.681 19.28C124.628 16 124.655 12.6 124.761 9.08C125.081 9.10667 125.348 9.13333 125.561 9.16C125.775 9.16 125.975 9.16 126.161 9.16C126.348 9.16 126.548 9.16 126.761 9.16C126.975 9.13333 127.241 9.10667 127.561 9.08C127.668 9.08 127.855 9.06667 128.121 9.04C128.415 9.01333 128.708 8.98667 129.001 8.96C129.321 8.93333 129.588 8.93333 129.801 8.96C130.041 8.96 130.161 8.98667 130.161 9.04C130.161 9.25333 130.161 9.41333 130.161 9.52C130.161 9.62667 130.161 9.72 130.161 9.8C130.161 9.85333 130.161 9.92 130.161 10ZM149.808 2.56C149.834 2.26667 149.861 1.85333 149.888 1.32V0.88C149.888 0.853332 150.061 0.826665 150.408 0.799998C150.781 0.746666 151.221 0.719999 151.728 0.719999C152.261 0.693333 152.821 0.693333 153.408 0.719999C153.994 0.719999 154.501 0.759999 154.928 0.839998V3.48C154.928 7.93333 154.994 12.3333 155.128 16.68C155.261 21.0267 155.274 25.12 155.168 28.96C154.341 28.96 153.434 28.9733 152.448 29C151.461 29.0533 150.568 29.0267 149.768 28.92C149.741 28.8667 149.728 28.7733 149.728 28.64C149.728 28.3733 149.714 28.16 149.688 28C149.688 27.84 149.688 27.6133 149.688 27.32C149.634 27.1867 149.568 27.0933 149.488 27.04C149.434 26.96 149.368 27 149.288 27.16C148.888 27.96 148.354 28.48 147.688 28.72C147.021 28.9333 146.314 28.9867 145.568 28.88C144.048 28.7733 142.848 28.3867 141.968 27.72C141.088 27.0267 140.421 26.16 139.968 25.12C139.541 24.0533 139.248 22.8667 139.088 21.56C138.954 20.2533 138.874 18.9333 138.848 17.6C138.848 16.6667 138.901 15.76 139.008 14.88C139.141 14 139.328 13.2 139.568 12.48C139.834 11.7333 140.168 11.1067 140.568 10.6C140.994 10.0667 141.501 9.69333 142.088 9.48C142.808 9.21333 143.594 9.05333 144.448 9C145.328 8.92 146.154 8.92 146.928 9C147.701 9.05333 148.354 9.17333 148.888 9.36C149.421 9.54667 149.714 9.76 149.768 10C149.741 8.74667 149.728 7.73333 149.728 6.96C149.728 6.18667 149.728 5.57333 149.728 5.12C149.728 4.64 149.728 4.28 149.728 4.04C149.754 3.77333 149.768 3.53333 149.768 3.32C149.794 3.08 149.808 2.82667 149.808 2.56ZM144.848 14.28C144.208 14.76 143.821 15.4667 143.688 16.4C143.554 16.7733 143.474 17.16 143.448 17.56C143.421 17.96 143.408 18.3467 143.408 18.72C143.408 19.3867 143.488 20.04 143.648 20.68C143.808 21.2933 144.048 21.8533 144.368 22.36C144.688 22.84 145.074 23.2267 145.528 23.52C145.981 23.8133 146.488 23.96 147.048 23.96C147.714 23.96 148.234 23.8133 148.608 23.52C149.008 23.2267 149.301 22.8267 149.488 22.32C149.701 21.8133 149.821 21.2133 149.848 20.52C149.901 19.8 149.928 19.0133 149.928 18.16C149.928 17.12 149.901 16.3067 149.848 15.72C149.821 15.1067 149.728 14.64 149.568 14.32C149.408 14 149.154 13.8 148.808 13.72C148.488 13.6133 148.048 13.56 147.488 13.56C146.394 13.56 145.514 13.8 144.848 14.28ZM173.163 11.28C173.697 12.4267 173.963 13.72 173.963 15.16C173.11 15.2933 172.163 15.3733 171.123 15.4C170.11 15.4267 169.15 15.3467 168.243 15.16C168.323 14.84 168.283 14.52 168.123 14.2C167.99 13.88 167.777 13.6 167.483 13.36C167.217 13.12 166.897 12.9467 166.523 12.84C166.177 12.7067 165.83 12.6533 165.483 12.68C164.87 12.7867 164.403 13.0267 164.083 13.4C163.79 13.7467 163.643 14.1333 163.643 14.56C163.643 14.9867 163.803 15.4133 164.123 15.84C164.443 16.2667 164.91 16.5867 165.523 16.8C167.017 17.0133 168.417 17.3067 169.723 17.68C171.03 18.0267 171.99 18.6 172.603 19.4C173.19 20.36 173.55 21.3467 173.683 22.36C173.817 23.3467 173.63 24.5733 173.123 26.04C172.51 27.3467 171.55 28.28 170.243 28.84C168.937 29.4 167.51 29.6667 165.963 29.64C164.603 29.6933 163.377 29.5733 162.283 29.28C161.19 28.9867 160.243 28.5467 159.443 27.96C158.67 27.3733 158.057 26.6533 157.603 25.8C157.177 24.9467 156.963 23.9867 156.963 22.92V22.8V22.72C157.843 22.6133 158.843 22.5867 159.963 22.64C161.083 22.6667 162.057 22.68 162.883 22.68C162.91 23.2933 163.19 23.8 163.723 24.2C164.283 24.5733 164.87 24.8 165.483 24.88C166.097 24.9333 166.657 24.8133 167.163 24.52C167.67 24.2267 167.91 23.6933 167.883 22.92C167.963 22.28 167.817 21.8 167.443 21.48C167.07 21.16 166.577 20.92 165.963 20.76C165.35 20.5733 164.657 20.4133 163.883 20.28C163.11 20.1467 162.35 19.92 161.603 19.6C160.11 19.0933 159.017 18.3067 158.323 17.24C157.657 16.1467 157.337 15.0267 157.363 13.88C157.417 12.7067 157.79 11.6267 158.483 10.64C159.203 9.65333 160.217 8.98667 161.523 8.64C162.03 8.50667 162.643 8.4 163.363 8.32C164.11 8.24 164.897 8.2 165.723 8.2C166.55 8.2 167.377 8.25333 168.203 8.36C169.03 8.44 169.79 8.56 170.483 8.72C171.737 9.25333 172.63 10.1067 173.163 11.28Z" fill="#0072CE"/>
</svg>
