<svg width="375" height="100" viewBox="0 0 375 100" fill="none" xmlns="http://www.w3.org/2000/svg">
<path d="M46.592 33.512C46.592 33.7253 46.6027 33.9173 46.624 34.088C46.6667 34.856 46.688 35.4427 46.688 35.848C46.688 36.232 46.656 36.52 46.592 36.712C46.5493 36.8827 46.464 36.9787 46.336 37C46.208 37 46.0267 37 45.792 37C45.5573 36.9787 45.248 36.9787 44.864 37C44.5013 37.0213 43.872 37.0427 42.976 37.064C42.1013 37.0853 40.8853 37.096 39.328 37.096C37.792 37.096 35.7333 37.0747 33.152 37.032V36.456C33.216 34.856 33.2693 33.416 33.312 32.136C33.3547 30.8347 33.376 29.6293 33.376 28.52C33.3973 27.3893 33.408 26.3013 33.408 25.256C33.408 24.2107 33.3973 23.144 33.376 22.056C33.3547 20.968 33.3333 19.816 33.312 18.6C33.2907 17.3627 33.2693 15.9973 33.248 14.504C33.4613 14.4187 33.792 14.3547 34.24 14.312C34.688 14.248 35.168 14.216 35.68 14.216C36.192 14.216 36.6933 14.248 37.184 14.312C37.6747 14.376 38.0693 14.472 38.368 14.6C38.3253 15.9867 38.304 17.416 38.304 18.888C38.3253 20.3387 38.3467 21.8 38.368 23.272C38.3893 24.744 38.4 26.216 38.4 27.688C38.4213 29.1387 38.4213 30.5467 38.4 31.912V31.944C38.5493 31.9013 38.8267 31.8907 39.232 31.912C39.6587 31.912 40.1493 31.9227 40.704 31.944C41.2587 31.9653 41.8453 31.9973 42.464 32.04C43.104 32.0613 43.7013 32.0827 44.256 32.104C44.832 32.1253 45.3333 32.1467 45.76 32.168C46.208 32.168 46.5173 32.1573 46.688 32.136C46.688 32.3707 46.6773 32.6053 46.656 32.84C46.6347 33.0533 46.6133 33.2773 46.592 33.512ZM51.326 20.904C51.8167 20.9253 52.4033 20.9253 53.086 20.904H53.63V21C53.6087 23.5813 53.5553 26.216 53.47 28.904C53.406 31.592 53.4487 34.2267 53.598 36.808C53.4913 36.936 53.2247 37 52.798 37C52.3713 37.0213 51.902 37.0213 51.39 37C50.8993 37 50.43 36.9893 49.982 36.968C49.534 36.9467 49.2353 36.9573 49.086 37C49.1927 35.656 49.2353 34.2907 49.214 32.904C49.214 31.5173 49.1927 30.1413 49.15 28.776C49.1073 27.4107 49.086 26.0667 49.086 24.744C49.086 23.4 49.15 22.0987 49.278 20.84V20.808C49.3633 20.7867 49.502 20.7867 49.694 20.808C49.9073 20.8293 50.0673 20.84 50.174 20.84C50.4513 20.8613 50.8353 20.8827 51.326 20.904ZM49.182 16.424C49.1393 15.7413 49.1287 14.9093 49.15 13.928L53.502 14.024C53.502 14.152 53.502 14.3867 53.502 14.728C53.5233 15.048 53.534 15.4107 53.534 15.816C53.5553 16.2 53.566 16.6053 53.566 17.032C53.5873 17.4373 53.598 17.8 53.598 18.12C53.5127 18.248 53.31 18.3333 52.99 18.376C52.6913 18.4187 52.3287 18.44 51.902 18.44C51.4967 18.4187 51.0593 18.3973 50.59 18.376C50.1207 18.3333 49.6833 18.3227 49.278 18.344C49.278 17.7253 49.246 17.0853 49.182 16.424ZM62.847 25.608V32.584V36.872C62.4843 36.8293 62.1217 36.8187 61.759 36.84C61.3963 36.8613 61.0337 36.8933 60.671 36.936C60.3083 36.9573 59.9563 36.9787 59.615 37C59.295 37.0213 58.9963 37.0107 58.719 36.968C58.6763 36.712 58.6443 36.296 58.623 35.72C58.623 35.1227 58.6123 34.4613 58.591 33.736C58.591 32.9893 58.591 32.2107 58.591 31.4C58.591 30.5893 58.591 29.8107 58.591 29.064C58.6123 28.296 58.623 27.6133 58.623 27.016C58.6443 26.4187 58.655 25.96 58.655 25.64C58.3137 25.64 57.951 25.64 57.567 25.64C57.2043 25.64 56.8097 25.6507 56.383 25.672L56.287 21.768C56.735 21.768 57.1403 21.768 57.503 21.768C57.887 21.768 58.2497 21.7787 58.591 21.8C58.5483 21.2667 58.559 20.6907 58.623 20.072C58.687 19.4533 58.8363 18.856 59.071 18.28C59.327 17.6827 59.679 17.1493 60.127 16.68C60.575 16.1893 61.1617 15.8267 61.887 15.592C62.783 15.2933 63.7537 15.112 64.799 15.048C65.8657 14.9627 66.9003 14.9413 67.903 14.984C68.0097 15.304 68.0737 15.656 68.095 16.04C68.1377 16.424 68.1483 16.808 68.127 17.192C68.1057 17.576 68.0737 17.9493 68.031 18.312C67.9883 18.6747 67.9457 19.0053 67.903 19.304C67.647 19.2827 67.3483 19.2827 67.007 19.304C66.687 19.3253 66.3457 19.3573 65.983 19.4C65.6203 19.4427 65.2577 19.496 64.895 19.56C64.5323 19.6027 64.2017 19.6453 63.903 19.688C63.4123 19.7733 63.103 20.0293 62.975 20.456C62.8683 20.8613 62.8683 21.3307 62.975 21.864H67.871C67.8283 22.0987 67.8177 22.3333 67.839 22.568C67.8603 22.7813 67.8603 23.0373 67.839 23.336C67.839 23.5707 67.839 23.7627 67.839 23.912C67.839 24.04 67.8283 24.1787 67.807 24.328C67.807 24.4773 67.7963 24.6693 67.775 24.904C67.7537 25.1387 67.7217 25.4587 67.679 25.864C66.591 25.8 65.6737 25.7467 64.927 25.704C64.2017 25.6613 63.5083 25.6293 62.847 25.608ZM75.356 29.064C74.8867 29.0427 74.5453 29.0107 74.332 28.968V29.544C74.3533 30.184 74.3747 30.7067 74.396 31.112C74.4387 31.5173 74.5773 31.912 74.812 32.296C75.068 32.7867 75.4307 33.1493 75.9 33.384C76.3693 33.6187 76.828 33.6933 77.276 33.608C77.724 33.5227 78.0973 33.2667 78.396 32.84C78.716 32.392 78.8547 31.7307 78.812 30.856C79.0253 30.8773 79.3133 30.888 79.676 30.888C80.0387 30.8667 80.412 30.8453 80.796 30.824C81.2013 30.8027 81.5853 30.8027 81.948 30.824C82.3107 30.824 82.6093 30.856 82.844 30.92C82.8013 31.4747 82.7587 32.0187 82.716 32.552C82.6733 33.0853 82.62 33.5867 82.556 34.056C82.492 34.504 82.4067 34.8987 82.3 35.24C82.2147 35.56 82.0973 35.784 81.948 35.912C81.5853 36.424 81.116 36.7867 80.54 37C79.964 37.2133 79.3347 37.3413 78.652 37.384C77.9693 37.4267 77.2653 37.4267 76.54 37.384C75.836 37.3413 75.1853 37.32 74.588 37.32C73.9907 37.2347 73.436 37.0427 72.924 36.744C72.348 36.3387 71.868 35.816 71.484 35.176C71.1 34.5147 70.7907 33.8 70.556 33.032C70.3213 32.2427 70.1613 31.4107 70.076 30.536C69.9907 29.6613 69.9693 28.7867 70.012 27.912C70.076 27.1227 70.14 26.3653 70.204 25.64C70.2893 24.8933 70.46 24.168 70.716 23.464C70.9933 22.8453 71.42 22.3227 71.996 21.896C72.572 21.448 73.2227 21.1173 73.948 20.904C74.6733 20.6693 75.4413 20.5413 76.252 20.52C77.0627 20.4987 77.852 20.584 78.62 20.776C79.6013 20.9467 80.3907 21.288 80.988 21.8C81.5853 22.312 82.0333 22.9307 82.332 23.656C82.652 24.3813 82.844 25.1813 82.908 26.056C82.972 26.9307 82.972 27.816 82.908 28.712C82.7587 28.7547 82.4707 28.7973 82.044 28.84C81.6387 28.8827 81.148 28.9253 80.572 28.968C80.0173 29.0107 79.42 29.0427 78.78 29.064C78.14 29.0853 77.5213 29.096 76.924 29.096C76.348 29.096 75.8253 29.0853 75.356 29.064ZM79.1 24.872C78.8867 24.488 78.588 24.2 78.204 24.008C78.0333 23.9013 77.8627 23.8267 77.692 23.784C77.5213 23.72 77.3187 23.688 77.084 23.688C76.572 23.688 76.156 23.7413 75.836 23.848C75.516 23.9547 75.26 24.104 75.068 24.296C74.876 24.488 74.7267 24.712 74.62 24.968C74.5347 25.224 74.4707 25.4907 74.428 25.768C74.3853 26.0027 74.364 26.1733 74.364 26.28C74.3853 26.3653 74.492 26.4293 74.684 26.472C74.876 26.4933 75.1747 26.504 75.58 26.504C76.0067 26.4827 76.6253 26.472 77.436 26.472C77.9907 26.472 78.4067 26.4827 78.684 26.504C78.9613 26.5253 79.1533 26.536 79.26 26.536C79.388 26.5147 79.452 26.4827 79.452 26.44C79.452 26.376 79.452 26.2587 79.452 26.088C79.452 25.6613 79.3347 25.256 79.1 24.872ZM95.821 20.904C96.3117 20.9253 96.8983 20.9253 97.581 20.904H98.125V21C98.1037 23.5813 98.0503 26.216 97.965 28.904C97.901 31.592 97.9437 34.2267 98.093 36.808C97.9863 36.936 97.7197 37 97.293 37C96.8663 37.0213 96.397 37.0213 95.885 37C95.3943 37 94.925 36.9893 94.477 36.968C94.029 36.9467 93.7303 36.9573 93.581 37C93.6877 35.656 93.7303 34.2907 93.709 32.904C93.709 31.5173 93.6877 30.1413 93.645 28.776C93.6023 27.4107 93.581 26.0667 93.581 24.744C93.581 23.4 93.645 22.0987 93.773 20.84V20.808C93.8583 20.7867 93.997 20.7867 94.189 20.808C94.4023 20.8293 94.5623 20.84 94.669 20.84C94.9463 20.8613 95.3303 20.8827 95.821 20.904ZM93.677 16.424C93.6343 15.7413 93.6237 14.9093 93.645 13.928L97.997 14.024C97.997 14.152 97.997 14.3867 97.997 14.728C98.0183 15.048 98.029 15.4107 98.029 15.816C98.0503 16.2 98.061 16.6053 98.061 17.032C98.0823 17.4373 98.093 17.8 98.093 18.12C98.0077 18.248 97.805 18.3333 97.485 18.376C97.1863 18.4187 96.8237 18.44 96.397 18.44C95.9917 18.4187 95.5543 18.3973 95.085 18.376C94.6157 18.3333 94.1783 18.3227 93.773 18.344C93.773 17.7253 93.741 17.0853 93.677 16.424ZM113.742 22.824C114.169 23.7413 114.382 24.776 114.382 25.928C113.699 26.0347 112.942 26.0987 112.11 26.12C111.299 26.1413 110.531 26.0773 109.806 25.928C109.87 25.672 109.838 25.416 109.71 25.16C109.603 24.904 109.433 24.68 109.198 24.488C108.985 24.296 108.729 24.1573 108.43 24.072C108.153 23.9653 107.875 23.9227 107.598 23.944C107.107 24.0293 106.734 24.2213 106.478 24.52C106.243 24.7973 106.126 25.1067 106.126 25.448C106.126 25.7893 106.254 26.1307 106.51 26.472C106.766 26.8133 107.139 27.0693 107.63 27.24C108.825 27.4107 109.945 27.6453 110.99 27.944C112.035 28.2213 112.803 28.68 113.294 29.32C113.763 30.088 114.051 30.8773 114.158 31.688C114.265 32.4773 114.115 33.4587 113.71 34.632C113.219 35.6773 112.451 36.424 111.406 36.872C110.361 37.32 109.219 37.5333 107.982 37.512C106.894 37.5547 105.913 37.4587 105.038 37.224C104.163 36.9893 103.406 36.6373 102.766 36.168C102.147 35.6987 101.657 35.1227 101.294 34.44C100.953 33.7573 100.782 32.9893 100.782 32.136V32.04V31.976C101.486 31.8907 102.286 31.8693 103.182 31.912C104.078 31.9333 104.857 31.944 105.518 31.944C105.539 32.4347 105.763 32.84 106.19 33.16C106.638 33.4587 107.107 33.64 107.598 33.704C108.089 33.7467 108.537 33.6507 108.942 33.416C109.347 33.1813 109.539 32.7547 109.518 32.136C109.582 31.624 109.465 31.24 109.166 30.984C108.867 30.728 108.473 30.536 107.982 30.408C107.491 30.2587 106.937 30.1307 106.318 30.024C105.699 29.9173 105.091 29.736 104.494 29.48C103.299 29.0747 102.425 28.4453 101.87 27.592C101.337 26.7173 101.081 25.8213 101.102 24.904C101.145 23.9653 101.443 23.1013 101.998 22.312C102.574 21.5227 103.385 20.9893 104.43 20.712C104.835 20.6053 105.326 20.52 105.902 20.456C106.499 20.392 107.129 20.36 107.79 20.36C108.451 20.36 109.113 20.4027 109.774 20.488C110.435 20.552 111.043 20.648 111.598 20.776C112.601 21.2027 113.315 21.8853 113.742 22.824ZM136.218 26.088C136.261 26.1733 136.336 26.28 136.442 26.408C136.784 26.8347 137.104 27.2613 137.402 27.688C137.722 28.0933 137.989 28.5307 138.202 29C138.437 29.448 138.597 29.9493 138.682 30.504C138.768 31.0587 138.746 31.6773 138.618 32.36C138.448 33.3627 138.117 34.184 137.626 34.824C137.157 35.4427 136.581 35.9227 135.898 36.264C135.216 36.6053 134.458 36.84 133.626 36.968C132.794 37.0747 131.93 37.128 131.034 37.128C130.16 37.1493 129.274 37.128 128.378 37.064C127.504 37 126.682 36.9573 125.914 36.936C125.786 36.936 125.658 36.936 125.53 36.936C125.424 36.936 125.317 36.9147 125.21 36.872C125.082 33.1813 125.05 29.5227 125.114 25.896C125.178 22.248 125.178 18.568 125.114 14.856L125.146 14.824C126 14.5893 126.906 14.408 127.866 14.28C128.826 14.152 129.776 14.1093 130.714 14.152C131.653 14.1947 132.549 14.3333 133.402 14.568C134.277 14.8027 135.045 15.1867 135.706 15.72C136.368 16.232 136.89 16.904 137.274 17.736C137.658 18.5467 137.85 19.5493 137.85 20.744C137.85 21.64 137.69 22.5147 137.37 23.368C137.072 24.2213 136.709 25.0107 136.282 25.736C136.197 25.8853 136.176 26.0027 136.218 26.088ZM132.666 32.296C132.965 32.168 133.221 31.976 133.434 31.72C133.669 31.4 133.776 31.016 133.754 30.568C133.754 30.12 133.68 29.7147 133.53 29.352C133.402 29.096 133.21 28.872 132.954 28.68C132.698 28.4667 132.432 28.328 132.154 28.264C131.749 28.1573 131.333 28.104 130.906 28.104C130.48 28.0827 130.064 28.0507 129.658 28.008C129.573 28.328 129.498 28.6907 129.434 29.096C129.37 29.5013 129.328 29.9173 129.306 30.344C129.306 30.7493 129.338 31.144 129.402 31.528C129.466 31.912 129.584 32.232 129.754 32.488L129.818 32.52C130.117 32.52 130.426 32.5307 130.746 32.552C131.088 32.552 131.418 32.5413 131.738 32.52C132.08 32.4773 132.389 32.4027 132.666 32.296ZM132.698 23.336C132.997 23.1653 133.232 22.92 133.402 22.6C133.552 22.344 133.68 22.0453 133.786 21.704C133.893 21.3627 133.861 21.0213 133.69 20.68C133.52 20.3387 133.296 20.0827 133.018 19.912C132.762 19.72 132.464 19.5813 132.122 19.496C131.696 19.4107 131.237 19.368 130.746 19.368C130.277 19.3467 129.882 19.4213 129.562 19.592C129.605 20.0827 129.584 20.68 129.498 21.384C129.434 22.088 129.498 22.8133 129.69 23.56C130.01 23.6027 130.352 23.6347 130.714 23.656C131.077 23.6773 131.429 23.6667 131.77 23.624C132.112 23.5813 132.421 23.4853 132.698 23.336ZM146.348 29.064C145.879 29.0427 145.538 29.0107 145.324 28.968V29.544C145.346 30.184 145.367 30.7067 145.388 31.112C145.431 31.5173 145.57 31.912 145.804 32.296C146.06 32.7867 146.423 33.1493 146.892 33.384C147.362 33.6187 147.82 33.6933 148.268 33.608C148.716 33.5227 149.09 33.2667 149.388 32.84C149.708 32.392 149.847 31.7307 149.804 30.856C150.018 30.8773 150.306 30.888 150.668 30.888C151.031 30.8667 151.404 30.8453 151.788 30.824C152.194 30.8027 152.578 30.8027 152.94 30.824C153.303 30.824 153.602 30.856 153.836 30.92C153.794 31.4747 153.751 32.0187 153.708 32.552C153.666 33.0853 153.612 33.5867 153.548 34.056C153.484 34.504 153.399 34.8987 153.292 35.24C153.207 35.56 153.09 35.784 152.94 35.912C152.578 36.424 152.108 36.7867 151.532 37C150.956 37.2133 150.327 37.3413 149.644 37.384C148.962 37.4267 148.258 37.4267 147.532 37.384C146.828 37.3413 146.178 37.32 145.58 37.32C144.983 37.2347 144.428 37.0427 143.916 36.744C143.34 36.3387 142.86 35.816 142.476 35.176C142.092 34.5147 141.783 33.8 141.548 33.032C141.314 32.2427 141.154 31.4107 141.068 30.536C140.983 29.6613 140.962 28.7867 141.004 27.912C141.068 27.1227 141.132 26.3653 141.196 25.64C141.282 24.8933 141.452 24.168 141.708 23.464C141.986 22.8453 142.412 22.3227 142.988 21.896C143.564 21.448 144.215 21.1173 144.94 20.904C145.666 20.6693 146.434 20.5413 147.244 20.52C148.055 20.4987 148.844 20.584 149.612 20.776C150.594 20.9467 151.383 21.288 151.98 21.8C152.578 22.312 153.026 22.9307 153.324 23.656C153.644 24.3813 153.836 25.1813 153.9 26.056C153.964 26.9307 153.964 27.816 153.9 28.712C153.751 28.7547 153.463 28.7973 153.036 28.84C152.631 28.8827 152.14 28.9253 151.564 28.968C151.01 29.0107 150.412 29.0427 149.772 29.064C149.132 29.0853 148.514 29.096 147.916 29.096C147.34 29.096 146.818 29.0853 146.348 29.064ZM150.092 24.872C149.879 24.488 149.58 24.2 149.196 24.008C149.026 23.9013 148.855 23.8267 148.684 23.784C148.514 23.72 148.311 23.688 148.076 23.688C147.564 23.688 147.148 23.7413 146.828 23.848C146.508 23.9547 146.252 24.104 146.06 24.296C145.868 24.488 145.719 24.712 145.612 24.968C145.527 25.224 145.463 25.4907 145.42 25.768C145.378 26.0027 145.356 26.1733 145.356 26.28C145.378 26.3653 145.484 26.4293 145.676 26.472C145.868 26.4933 146.167 26.504 146.572 26.504C146.999 26.4827 147.618 26.472 148.428 26.472C148.983 26.472 149.399 26.4827 149.676 26.504C149.954 26.5253 150.146 26.536 150.252 26.536C150.38 26.5147 150.444 26.4827 150.444 26.44C150.444 26.376 150.444 26.2587 150.444 26.088C150.444 25.6613 150.327 25.256 150.092 24.872ZM168.055 20.968C168.589 20.9893 169.197 21.0213 169.879 21.064C169.901 21.192 169.911 21.32 169.911 21.448C169.933 21.576 169.943 21.704 169.943 21.832V22.152C169.879 24.456 169.89 26.728 169.975 28.968C170.061 31.1867 170.029 33.4373 169.879 35.72C169.879 35.9973 169.869 36.2747 169.847 36.552C169.847 36.8293 169.719 36.9893 169.463 37.032H169.079C168.738 37.032 168.386 37.0213 168.023 37C167.682 36.9573 167.341 36.936 166.999 36.936C166.765 36.936 166.53 36.9573 166.295 37C166.082 37.0213 165.858 37.032 165.623 37.032C165.474 36.9893 165.367 36.904 165.303 36.776C165.261 36.648 165.239 36.4987 165.239 36.328C165.239 36.0933 165.261 35.9013 165.303 35.752C165.346 35.6027 165.367 35.4213 165.367 35.208C164.855 35.72 164.205 36.1573 163.415 36.52C162.647 36.8827 161.89 37.064 161.143 37.064C160.311 37.064 159.597 36.776 158.999 36.2C158.423 35.624 157.943 34.9093 157.559 34.056C157.175 33.2027 156.887 32.2747 156.695 31.272C156.525 30.2693 156.439 29.3413 156.439 28.488C156.439 27.4213 156.578 26.44 156.855 25.544C157.133 24.648 157.506 23.88 157.975 23.24C158.466 22.5787 159.042 22.0667 159.703 21.704C160.365 21.32 161.069 21.1173 161.815 21.096C162.199 21.096 162.551 21.1067 162.871 21.128C163.213 21.128 163.522 21.1813 163.799 21.288C164.077 21.3733 164.322 21.5227 164.535 21.736C164.749 21.928 164.93 22.2053 165.079 22.568C165.058 22.2267 165.069 21.9387 165.111 21.704C165.175 21.448 165.207 21.192 165.207 20.936C165.207 20.9147 165.271 20.904 165.399 20.904C165.549 20.8827 165.709 20.8827 165.879 20.904C166.05 20.904 166.221 20.904 166.391 20.904C166.562 20.904 166.679 20.904 166.743 20.904C167.106 20.9253 167.543 20.9467 168.055 20.968ZM161.463 26.024C160.973 26.4293 160.674 26.8987 160.567 27.432C160.482 27.7093 160.429 27.9973 160.407 28.296C160.386 28.5733 160.375 28.8507 160.375 29.128C160.375 30.088 160.621 30.9093 161.111 31.592C161.623 32.2533 162.327 32.584 163.223 32.584C163.757 32.584 164.151 32.4987 164.407 32.328C164.685 32.136 164.877 31.88 164.983 31.56C165.111 31.2187 165.175 30.8133 165.175 30.344C165.197 29.8533 165.207 29.3093 165.207 28.712C165.207 27.9653 165.197 27.3787 165.175 26.952C165.175 26.504 165.122 26.1627 165.015 25.928C164.93 25.6933 164.77 25.544 164.535 25.48C164.322 25.416 163.991 25.384 163.543 25.384C162.669 25.384 161.975 25.5973 161.463 26.024ZM181.322 36.072C181.343 35.8373 181.343 35.5707 181.322 35.272C181.215 35.336 181.077 35.4107 180.906 35.496C180.757 35.5813 180.629 35.6667 180.522 35.752C180.074 36.072 179.573 36.328 179.018 36.52C178.463 36.712 177.887 36.8187 177.29 36.84C176.714 36.8613 176.149 36.7973 175.594 36.648C175.039 36.4987 174.538 36.232 174.09 35.848C173.877 35.656 173.706 35.2613 173.578 34.664C173.471 34.0453 173.397 33.3093 173.354 32.456C173.333 31.6027 173.322 30.6747 173.322 29.672C173.343 28.648 173.365 27.624 173.386 26.6C173.407 25.5547 173.429 24.552 173.45 23.592C173.471 22.632 173.461 21.7893 173.418 21.064C174.165 20.9573 174.826 20.9147 175.402 20.936C175.999 20.936 176.671 20.936 177.418 20.936C177.461 21.4267 177.482 21.9813 177.482 22.6C177.482 23.2187 177.471 23.8587 177.45 24.52C177.45 25.1813 177.45 25.8427 177.45 26.504C177.471 27.1653 177.503 27.784 177.546 28.36C177.567 28.616 177.589 28.904 177.61 29.224C177.631 29.5227 177.663 29.8213 177.706 30.12C177.77 30.4187 177.845 30.6853 177.93 30.92C178.037 31.1547 178.175 31.336 178.346 31.464C178.367 31.4853 178.389 31.496 178.41 31.496C178.431 31.496 178.453 31.5067 178.474 31.528C178.645 31.6133 178.89 31.688 179.21 31.752C179.551 31.7947 179.882 31.7733 180.202 31.688C180.522 31.5813 180.81 31.3893 181.066 31.112C181.322 30.8133 181.471 30.376 181.514 29.8C181.557 29.0747 181.567 28.3493 181.546 27.624C181.525 26.8987 181.493 26.184 181.45 25.48C181.429 24.7547 181.407 24.04 181.386 23.336C181.386 22.632 181.439 21.928 181.546 21.224V21.096C181.909 20.9893 182.218 20.9253 182.474 20.904C182.751 20.8827 183.029 20.8827 183.306 20.904C183.583 20.904 183.893 20.9147 184.234 20.936C184.575 20.9573 185.002 20.9467 185.514 20.904C185.514 23.528 185.535 26.152 185.578 28.776C185.642 31.4 185.631 34.12 185.546 36.936C185.29 36.9147 185.077 36.904 184.906 36.904C184.735 36.8827 184.575 36.872 184.426 36.872C184.277 36.872 184.117 36.8827 183.946 36.904C183.775 36.904 183.562 36.9147 183.306 36.936C183.221 36.936 183.071 36.9573 182.858 37C182.645 37.0213 182.431 37.0427 182.218 37.064C182.005 37.0853 181.813 37.0853 181.642 37.064C181.471 37.064 181.386 37.032 181.386 36.968C181.343 36.6053 181.322 36.3067 181.322 36.072ZM193.808 15.144C194.171 15.1653 194.534 15.1547 194.896 15.112V19.4C194.896 19.6773 194.896 19.9653 194.896 20.264C194.918 20.5627 194.928 20.872 194.928 21.192C195.59 21.1707 196.283 21.1387 197.008 21.096C197.755 21.0533 198.672 21 199.76 20.936C199.91 21.1067 199.995 21.3627 200.016 21.704C200.038 22.024 200.038 22.376 200.016 22.76C199.995 23.144 199.963 23.5387 199.92 23.944C199.899 24.328 199.91 24.6587 199.952 24.936H194.992C194.992 26.088 194.992 27.2187 194.992 28.328C194.992 29.416 195.003 30.44 195.024 31.4C195.238 31.6987 195.547 31.9333 195.952 32.104C196.358 32.2747 196.795 32.4133 197.264 32.52C197.734 32.6053 198.203 32.6587 198.672 32.68C199.163 32.7013 199.59 32.7013 199.952 32.68C199.995 32.9787 200.038 33.3093 200.08 33.672C200.123 34.0347 200.155 34.408 200.176 34.792C200.198 35.176 200.187 35.56 200.144 35.944C200.123 36.328 200.059 36.68 199.952 37C199.099 37.0427 198.214 37.0427 197.296 37C196.379 36.936 195.515 36.808 194.704 36.616C193.894 36.424 193.168 36.136 192.528 35.752C191.91 35.368 191.462 34.8453 191.184 34.184C190.907 32.5413 190.747 30.9947 190.704 29.544C190.662 28.072 190.651 26.5573 190.672 25C190.331 25.0213 189.968 25.032 189.584 25.032C189.222 25.032 188.816 25.032 188.368 25.032L188.464 21.128C188.891 21.1493 189.286 21.16 189.648 21.16C190.032 21.16 190.395 21.16 190.736 21.16C190.736 20.6907 190.726 20.1893 190.704 19.656C190.683 19.1013 190.672 18.5467 190.672 17.992C190.672 17.4373 190.672 16.904 190.672 16.392C190.694 15.88 190.726 15.4213 190.768 15.016C191.046 14.9733 191.344 14.9627 191.664 14.984C192.006 15.0053 192.358 15.0373 192.72 15.08C193.083 15.1013 193.446 15.1227 193.808 15.144ZM204.967 20.904C205.458 20.9253 206.045 20.9253 206.727 20.904H207.271V21C207.25 23.5813 207.197 26.216 207.111 28.904C207.047 31.592 207.09 34.2267 207.239 36.808C207.133 36.936 206.866 37 206.439 37C206.013 37.0213 205.543 37.0213 205.031 37C204.541 37 204.071 36.9893 203.623 36.968C203.175 36.9467 202.877 36.9573 202.727 37C202.834 35.656 202.877 34.2907 202.855 32.904C202.855 31.5173 202.834 30.1413 202.791 28.776C202.749 27.4107 202.727 26.0667 202.727 24.744C202.727 23.4 202.791 22.0987 202.919 20.84V20.808C203.005 20.7867 203.143 20.7867 203.335 20.808C203.549 20.8293 203.709 20.84 203.815 20.84C204.093 20.8613 204.477 20.8827 204.967 20.904ZM202.823 16.424C202.781 15.7413 202.77 14.9093 202.791 13.928L207.143 14.024C207.143 14.152 207.143 14.3867 207.143 14.728C207.165 15.048 207.175 15.4107 207.175 15.816C207.197 16.2 207.207 16.6053 207.207 17.032C207.229 17.4373 207.239 17.8 207.239 18.12C207.154 18.248 206.951 18.3333 206.631 18.376C206.333 18.4187 205.97 18.44 205.543 18.44C205.138 18.4187 204.701 18.3973 204.231 18.376C203.762 18.3333 203.325 18.3227 202.919 18.344C202.919 17.7253 202.887 17.0853 202.823 16.424ZM216.488 25.608V32.584V36.872C216.126 36.8293 215.763 36.8187 215.4 36.84C215.038 36.8613 214.675 36.8933 214.312 36.936C213.95 36.9573 213.598 36.9787 213.256 37C212.936 37.0213 212.638 37.0107 212.36 36.968C212.318 36.712 212.286 36.296 212.264 35.72C212.264 35.1227 212.254 34.4613 212.232 33.736C212.232 32.9893 212.232 32.2107 212.232 31.4C212.232 30.5893 212.232 29.8107 212.232 29.064C212.254 28.296 212.264 27.6133 212.264 27.016C212.286 26.4187 212.296 25.96 212.296 25.64C211.955 25.64 211.592 25.64 211.208 25.64C210.846 25.64 210.451 25.6507 210.024 25.672L209.928 21.768C210.376 21.768 210.782 21.768 211.144 21.768C211.528 21.768 211.891 21.7787 212.232 21.8C212.19 21.2667 212.2 20.6907 212.264 20.072C212.328 19.4533 212.478 18.856 212.712 18.28C212.968 17.6827 213.32 17.1493 213.768 16.68C214.216 16.1893 214.803 15.8267 215.528 15.592C216.424 15.2933 217.395 15.112 218.44 15.048C219.507 14.9627 220.542 14.9413 221.544 14.984C221.651 15.304 221.715 15.656 221.736 16.04C221.779 16.424 221.79 16.808 221.768 17.192C221.747 17.576 221.715 17.9493 221.672 18.312C221.63 18.6747 221.587 19.0053 221.544 19.304C221.288 19.2827 220.99 19.2827 220.648 19.304C220.328 19.3253 219.987 19.3573 219.624 19.4C219.262 19.4427 218.899 19.496 218.536 19.56C218.174 19.6027 217.843 19.6453 217.544 19.688C217.054 19.7733 216.744 20.0293 216.616 20.456C216.51 20.8613 216.51 21.3307 216.616 21.864H221.512C221.47 22.0987 221.459 22.3333 221.48 22.568C221.502 22.7813 221.502 23.0373 221.48 23.336C221.48 23.5707 221.48 23.7627 221.48 23.912C221.48 24.04 221.47 24.1787 221.448 24.328C221.448 24.4773 221.438 24.6693 221.416 24.904C221.395 25.1387 221.363 25.4587 221.32 25.864C220.232 25.8 219.315 25.7467 218.568 25.704C217.843 25.6613 217.15 25.6293 216.488 25.608ZM231.973 36.072C231.995 35.8373 231.995 35.5707 231.973 35.272C231.867 35.336 231.728 35.4107 231.557 35.496C231.408 35.5813 231.28 35.6667 231.173 35.752C230.725 36.072 230.224 36.328 229.669 36.52C229.115 36.712 228.539 36.8187 227.941 36.84C227.365 36.8613 226.8 36.7973 226.245 36.648C225.691 36.4987 225.189 36.232 224.741 35.848C224.528 35.656 224.357 35.2613 224.229 34.664C224.123 34.0453 224.048 33.3093 224.005 32.456C223.984 31.6027 223.973 30.6747 223.973 29.672C223.995 28.648 224.016 27.624 224.037 26.6C224.059 25.5547 224.08 24.552 224.101 23.592C224.123 22.632 224.112 21.7893 224.069 21.064C224.816 20.9573 225.477 20.9147 226.053 20.936C226.651 20.936 227.323 20.936 228.069 20.936C228.112 21.4267 228.133 21.9813 228.133 22.6C228.133 23.2187 228.123 23.8587 228.101 24.52C228.101 25.1813 228.101 25.8427 228.101 26.504C228.123 27.1653 228.155 27.784 228.197 28.36C228.219 28.616 228.24 28.904 228.261 29.224C228.283 29.5227 228.315 29.8213 228.357 30.12C228.421 30.4187 228.496 30.6853 228.581 30.92C228.688 31.1547 228.827 31.336 228.997 31.464C229.019 31.4853 229.04 31.496 229.061 31.496C229.083 31.496 229.104 31.5067 229.125 31.528C229.296 31.6133 229.541 31.688 229.861 31.752C230.203 31.7947 230.533 31.7733 230.853 31.688C231.173 31.5813 231.461 31.3893 231.717 31.112C231.973 30.8133 232.123 30.376 232.165 29.8C232.208 29.0747 232.219 28.3493 232.197 27.624C232.176 26.8987 232.144 26.184 232.101 25.48C232.08 24.7547 232.059 24.04 232.037 23.336C232.037 22.632 232.091 21.928 232.197 21.224V21.096C232.56 20.9893 232.869 20.9253 233.125 20.904C233.403 20.8827 233.68 20.8827 233.957 20.904C234.235 20.904 234.544 20.9147 234.885 20.936C235.227 20.9573 235.653 20.9467 236.165 20.904C236.165 23.528 236.187 26.152 236.229 28.776C236.293 31.4 236.283 34.12 236.197 36.936C235.941 36.9147 235.728 36.904 235.557 36.904C235.387 36.8827 235.227 36.872 235.077 36.872C234.928 36.872 234.768 36.8827 234.597 36.904C234.427 36.904 234.213 36.9147 233.957 36.936C233.872 36.936 233.723 36.9573 233.509 37C233.296 37.0213 233.083 37.0427 232.869 37.064C232.656 37.0853 232.464 37.0853 232.293 37.064C232.123 37.064 232.037 37.032 232.037 36.968C231.995 36.6053 231.973 36.3067 231.973 36.072ZM239.627 19.56C239.627 17.6187 239.723 15.6773 239.915 13.736L244.267 13.832C244.267 14.7067 244.257 15.7627 244.235 17C244.214 18.2373 244.193 19.56 244.171 20.968C244.15 22.376 244.129 23.8373 244.107 25.352C244.107 26.8667 244.107 28.328 244.107 29.736C244.107 31.144 244.118 32.4667 244.139 33.704C244.161 34.92 244.193 35.9547 244.235 36.808C244.129 36.936 243.862 37 243.435 37C243.009 37.0213 242.539 37.0213 242.027 37C241.537 37 241.067 36.9893 240.619 36.968C240.171 36.9467 239.873 36.9573 239.723 37C239.873 35.08 239.926 33.1493 239.883 31.208C239.862 29.2667 239.819 27.3253 239.755 25.384C239.691 23.4427 239.649 21.5013 239.627 19.56Z" fill="#0072CE"/>
<path d="M42.592 80.616C43.9573 80.68 45.3653 80.6907 46.816 80.648V80.712C46.8587 81.3947 46.8693 82.1093 46.848 82.856C46.8267 83.5813 46.7307 84.264 46.56 84.904C44.384 84.8827 42.1653 84.9147 39.904 85C37.664 85.064 35.5093 85.0107 33.44 84.84C33.44 82.984 33.4187 81.1493 33.376 79.336C33.3333 77.5013 33.3013 75.6773 33.28 73.864C33.2587 72.0507 33.2587 70.2373 33.28 68.424C33.3013 66.6107 33.3653 64.7867 33.472 62.952C34.304 62.9093 35.2 62.8773 36.16 62.856C37.1413 62.8133 38.1227 62.7813 39.104 62.76C40.0853 62.7387 41.0347 62.7173 41.952 62.696C42.8693 62.6747 43.68 62.664 44.384 62.664C45.088 62.664 45.6533 62.6747 46.08 62.696C46.5067 62.7173 46.72 62.7387 46.72 62.76C46.8267 63.5067 46.848 64.264 46.784 65.032C46.7413 65.8 46.72 66.5573 46.72 67.304V67.336C46.0373 67.4853 45.344 67.5813 44.64 67.624C43.9573 67.6453 43.264 67.656 42.56 67.656C41.856 67.6347 41.152 67.624 40.448 67.624C39.744 67.624 39.04 67.656 38.336 67.72H38.24L38.208 67.752C38.2293 68.3707 38.1973 69.0107 38.112 69.672C38.048 70.312 38.0907 70.92 38.24 71.496L38.272 71.528C38.912 71.5707 39.5627 71.592 40.224 71.592C40.8853 71.592 41.5467 71.6027 42.208 71.624V71.656C42.3147 72.3813 42.3467 73.1067 42.304 73.832C42.2613 74.5573 42.2507 75.3147 42.272 76.104C41.952 76.1893 41.5893 76.2427 41.184 76.264C40.7787 76.264 40.384 76.264 40 76.264C39.6373 76.264 39.3067 76.2747 39.008 76.296C38.7093 76.3173 38.5067 76.3707 38.4 76.456C38.2933 77.0747 38.2507 77.768 38.272 78.536C38.3147 79.304 38.3573 79.944 38.4 80.456L38.432 80.488C39.84 80.488 41.2267 80.5307 42.592 80.616ZM54.0303 69.928C54.0303 70.1627 54.0409 70.4293 54.0623 70.728C54.1689 70.664 54.2969 70.5893 54.4463 70.504C54.6169 70.4187 54.7556 70.3333 54.8623 70.248C55.3103 69.928 55.8116 69.672 56.3663 69.48C56.9209 69.288 57.4863 69.1813 58.0623 69.16C58.6596 69.1387 59.2356 69.2027 59.7903 69.352C60.3449 69.5013 60.8463 69.768 61.2943 70.152C61.4009 70.2587 61.5076 70.44 61.6143 70.696C61.7209 70.632 61.8489 70.568 61.9983 70.504C62.1476 70.4187 62.2756 70.3333 62.3823 70.248C62.8303 69.928 63.3316 69.672 63.8863 69.48C64.4409 69.288 65.0063 69.1813 65.5823 69.16C66.1796 69.1387 66.7556 69.2027 67.3103 69.352C67.8649 69.5013 68.3663 69.768 68.8143 70.152C69.0276 70.344 69.1876 70.7493 69.2943 71.368C69.4223 71.9653 69.4969 72.6907 69.5183 73.544C69.5609 74.3973 69.5716 75.336 69.5503 76.36C69.5503 77.3627 69.5396 78.3867 69.5183 79.432C69.4969 80.456 69.4756 81.448 69.4543 82.408C69.4329 83.368 69.4436 84.2107 69.4863 84.936C68.7396 85.0427 68.0676 85.0853 67.4703 85.064C66.8943 85.064 66.2329 85.064 65.4863 85.064C65.4436 84.5733 65.4223 84.0187 65.4223 83.4C65.4223 82.7813 65.4223 82.1413 65.4223 81.48C65.4436 80.8187 65.4436 80.1573 65.4223 79.496C65.4223 78.8347 65.4009 78.216 65.3583 77.64C65.3369 77.384 65.3156 77.1067 65.2943 76.808C65.2729 76.488 65.2303 76.1787 65.1663 75.88C65.1236 75.5813 65.0489 75.3147 64.9423 75.08C64.8569 74.8453 64.7289 74.664 64.5583 74.536C64.5369 74.5147 64.5156 74.504 64.4943 74.504C64.4729 74.504 64.4516 74.4933 64.4303 74.472C64.3023 74.408 64.1423 74.3547 63.9503 74.312C63.7583 74.2693 63.5449 74.248 63.3103 74.248C63.0969 74.248 62.8729 74.2907 62.6383 74.376C62.4249 74.44 62.2223 74.5467 62.0303 74.696C62.0516 75.528 62.0516 76.4133 62.0303 77.352C62.0089 78.2693 61.9876 79.1867 61.9663 80.104C61.9449 81 61.9236 81.8747 61.9023 82.728C61.9023 83.56 61.9236 84.296 61.9663 84.936C61.2196 85.0427 60.5476 85.0853 59.9503 85.064C59.3743 85.064 58.7129 85.064 57.9663 85.064C57.9236 84.5733 57.9023 84.0187 57.9023 83.4C57.9023 82.7813 57.9023 82.1413 57.9023 81.48C57.9236 80.8187 57.9236 80.1573 57.9023 79.496C57.9023 78.8347 57.8809 78.216 57.8383 77.64C57.8169 77.384 57.7956 77.1067 57.7743 76.808C57.7529 76.488 57.7103 76.1787 57.6463 75.88C57.6036 75.5813 57.5289 75.3147 57.4223 75.08C57.3369 74.8453 57.2089 74.664 57.0383 74.536C57.0169 74.5147 56.9956 74.504 56.9743 74.504C56.9529 74.504 56.9316 74.4933 56.9103 74.472C56.7396 74.3867 56.4836 74.3227 56.1423 74.28C55.8223 74.216 55.5023 74.2373 55.1823 74.344C54.8623 74.4293 54.5743 74.6213 54.3183 74.92C54.0623 75.1973 53.9129 75.624 53.8703 76.2C53.8276 76.9467 53.8169 77.6827 53.8383 78.408C53.8596 79.112 53.8809 79.8267 53.9023 80.552C53.9449 81.256 53.9663 81.96 53.9663 82.664C53.9663 83.368 53.9236 84.072 53.8383 84.776V84.904C53.4756 85.0107 53.1556 85.0747 52.8783 85.096C52.6223 85.1173 52.3556 85.1173 52.0783 85.096C51.8009 85.096 51.4916 85.0853 51.1503 85.064C50.8089 85.0427 50.3823 85.0533 49.8703 85.096C49.8703 82.472 49.8383 79.848 49.7743 77.224C49.7316 74.6 49.7529 71.88 49.8383 69.064C50.0943 69.0853 50.3076 69.1067 50.4783 69.128C50.6489 69.128 50.8089 69.128 50.9583 69.128C51.1076 69.128 51.2676 69.128 51.4383 69.128C51.6089 69.1067 51.8223 69.0853 52.0783 69.064C52.1636 69.064 52.3129 69.0533 52.5263 69.032C52.7396 68.9893 52.9529 68.9573 53.1663 68.936C53.3796 68.9147 53.5716 68.9147 53.7423 68.936C53.9129 68.936 53.9983 68.968 53.9983 69.032C54.0409 69.3947 54.0516 69.6933 54.0303 69.928ZM76.7373 62.44C77.0359 62.4613 77.1853 62.4827 77.1853 62.504V62.856C77.2066 63.2827 77.2173 63.6133 77.2173 63.848C77.2386 64.0613 77.2493 64.264 77.2493 64.456C77.2706 64.6267 77.2813 64.8187 77.2813 65.032C77.3026 65.224 77.3133 65.512 77.3133 65.896C77.3133 66.2587 77.3133 66.7493 77.3133 67.368C77.3133 67.9867 77.3026 68.7973 77.2813 69.8C77.3239 69.608 77.5586 69.4373 77.9853 69.288C78.4119 69.1387 78.9346 69.0427 79.5533 69C80.1719 68.936 80.8226 68.936 81.5053 69C82.2093 69.0427 82.8493 69.1707 83.4253 69.384C83.8946 69.5547 84.2893 69.8533 84.6093 70.28C84.9506 70.6853 85.2173 71.1867 85.4093 71.784C85.6226 72.36 85.7719 73 85.8573 73.704C85.9639 74.408 86.0173 75.1333 86.0173 75.88C85.9746 76.9467 85.8999 78.0027 85.7933 79.048C85.6866 80.0933 85.4519 81.0427 85.0893 81.896C84.7479 82.728 84.2253 83.4213 83.5213 83.976C82.8173 84.5093 81.8573 84.8187 80.6413 84.904C80.0439 84.9893 79.4786 84.9467 78.9453 84.776C78.4119 84.584 77.9853 84.168 77.6653 83.528C77.6013 83.4 77.5373 83.368 77.4733 83.432C77.4306 83.4747 77.3879 83.5493 77.3453 83.656C77.3453 83.8907 77.3346 84.072 77.3133 84.2C77.3133 84.328 77.3133 84.4987 77.3133 84.712C77.3133 84.8187 77.3026 84.8933 77.2813 84.936C76.6413 85.0213 75.9266 85.0427 75.1373 85C74.3479 84.9787 73.6226 84.968 72.9613 84.968C72.9186 83.432 72.8973 81.8427 72.8973 80.2C72.9186 78.536 72.9399 76.8507 72.9613 75.144C73.0039 73.416 73.0466 71.6667 73.0893 69.896C73.1319 68.1253 73.1533 66.3547 73.1533 64.584V62.472C73.4946 62.408 73.8999 62.376 74.3693 62.376C74.8386 62.3547 75.2759 62.3547 75.6813 62.376C76.1079 62.376 76.4599 62.3973 76.7373 62.44ZM82.3373 75.848C82.3159 75.528 82.2519 75.2187 82.1453 74.92C82.0386 74.1733 81.7186 73.608 81.1853 73.224C80.6733 72.84 79.9799 72.648 79.1053 72.648C78.6573 72.648 78.2946 72.6907 78.0173 72.776C77.7613 72.84 77.5693 73 77.4413 73.256C77.3133 73.512 77.2279 73.8853 77.1853 74.376C77.1639 74.8453 77.1533 75.496 77.1533 76.328C77.1533 77.0107 77.1639 77.64 77.1853 78.216C77.2279 78.7707 77.3239 79.2507 77.4733 79.656C77.6439 80.0613 77.8786 80.3813 78.1773 80.616C78.4759 80.8507 78.9026 80.968 79.4573 80.968C79.9053 80.968 80.3106 80.8507 80.6733 80.616C81.0359 80.3813 81.3453 80.072 81.6013 79.688C81.8573 79.2827 82.0493 78.8347 82.1773 78.344C82.3053 77.832 82.3693 77.3093 82.3693 76.776C82.3693 76.4773 82.3586 76.168 82.3373 75.848ZM93.469 69.8C93.4903 69.864 93.501 69.9707 93.501 70.12C93.5863 70.0773 93.7783 69.992 94.077 69.864C94.397 69.736 94.7063 69.6187 95.005 69.512C95.4103 69.384 95.869 69.288 96.381 69.224C96.893 69.1387 97.373 69.0853 97.821 69.064C98.269 69.0427 98.6423 69.0427 98.941 69.064C99.261 69.064 99.421 69.0747 99.421 69.096C99.421 69.8213 99.4103 70.4613 99.389 71.016C99.389 71.5707 99.389 72.072 99.389 72.52C99.389 72.9467 99.389 73.3413 99.389 73.704C99.389 74.0667 99.3997 74.408 99.421 74.728L99.133 74.632C99.0263 74.5893 98.909 74.5573 98.781 74.536C98.6743 74.4933 98.5677 74.4507 98.461 74.408C98.205 74.344 97.9383 74.2907 97.661 74.248C97.405 74.2053 97.2663 74.184 97.245 74.184C96.669 74.12 96.1357 74.088 95.645 74.088C95.1757 74.088 94.7597 74.1627 94.397 74.312C94.0557 74.4613 93.789 74.696 93.597 75.016C93.405 75.336 93.3197 75.7947 93.341 76.392C93.3623 77.1387 93.3837 77.8427 93.405 78.504C93.4263 79.1653 93.437 79.8373 93.437 80.52C93.437 81.1813 93.437 81.864 93.437 82.568C93.4583 83.2507 93.469 83.9867 93.469 84.776V84.904C93.1063 85.0107 92.7757 85.0747 92.477 85.096C92.1783 85.1173 91.869 85.1173 91.549 85.096C91.229 85.096 90.877 85.0853 90.493 85.064C90.1303 85.0427 89.693 85.0533 89.181 85.096C89.181 82.472 89.149 79.848 89.085 77.224C89.0423 74.6 89.0637 71.88 89.149 69.064C89.405 69.0853 89.6183 69.1067 89.789 69.128C89.9597 69.128 90.1197 69.128 90.269 69.128C90.4183 69.128 90.5783 69.128 90.749 69.128C90.9197 69.1067 91.133 69.0853 91.389 69.064C91.4743 69.064 91.6237 69.0533 91.837 69.032C92.0717 69.0107 92.3063 68.9893 92.541 68.968C92.797 68.9467 93.0103 68.9467 93.181 68.968C93.373 68.968 93.469 68.9893 93.469 69.032C93.469 69.2027 93.469 69.3307 93.469 69.416C93.469 69.5013 93.469 69.576 93.469 69.64C93.469 69.6827 93.469 69.736 93.469 69.8ZM113.25 68.968C113.784 68.9893 114.392 69.0213 115.074 69.064C115.096 69.192 115.106 69.32 115.106 69.448C115.128 69.576 115.138 69.704 115.138 69.832V70.152C115.074 72.456 115.085 74.728 115.17 76.968C115.256 79.1867 115.224 81.4373 115.074 83.72C115.074 83.9973 115.064 84.2747 115.042 84.552C115.042 84.8293 114.914 84.9893 114.658 85.032H114.274C113.933 85.032 113.581 85.0213 113.218 85C112.877 84.9573 112.536 84.936 112.194 84.936C111.96 84.936 111.725 84.9573 111.49 85C111.277 85.0213 111.053 85.032 110.818 85.032C110.669 84.9893 110.562 84.904 110.498 84.776C110.456 84.648 110.434 84.4987 110.434 84.328C110.434 84.0933 110.456 83.9013 110.498 83.752C110.541 83.6027 110.562 83.4213 110.562 83.208C110.05 83.72 109.4 84.1573 108.61 84.52C107.842 84.8827 107.085 85.064 106.338 85.064C105.506 85.064 104.792 84.776 104.194 84.2C103.618 83.624 103.138 82.9093 102.754 82.056C102.37 81.2027 102.082 80.2747 101.89 79.272C101.72 78.2693 101.634 77.3413 101.634 76.488C101.634 75.4213 101.773 74.44 102.05 73.544C102.328 72.648 102.701 71.88 103.17 71.24C103.661 70.5787 104.237 70.0667 104.898 69.704C105.56 69.32 106.264 69.1173 107.01 69.096C107.394 69.096 107.746 69.1067 108.066 69.128C108.408 69.128 108.717 69.1813 108.994 69.288C109.272 69.3733 109.517 69.5227 109.73 69.736C109.944 69.928 110.125 70.2053 110.274 70.568C110.253 70.2267 110.264 69.9387 110.306 69.704C110.37 69.448 110.402 69.192 110.402 68.936C110.402 68.9147 110.466 68.904 110.594 68.904C110.744 68.8827 110.904 68.8827 111.074 68.904C111.245 68.904 111.416 68.904 111.586 68.904C111.757 68.904 111.874 68.904 111.938 68.904C112.301 68.9253 112.738 68.9467 113.25 68.968ZM106.658 74.024C106.168 74.4293 105.869 74.8987 105.762 75.432C105.677 75.7093 105.624 75.9973 105.602 76.296C105.581 76.5733 105.57 76.8507 105.57 77.128C105.57 78.088 105.816 78.9093 106.306 79.592C106.818 80.2533 107.522 80.584 108.418 80.584C108.952 80.584 109.346 80.4987 109.602 80.328C109.88 80.136 110.072 79.88 110.178 79.56C110.306 79.2187 110.37 78.8133 110.37 78.344C110.392 77.8533 110.402 77.3093 110.402 76.712C110.402 75.9653 110.392 75.3787 110.37 74.952C110.37 74.504 110.317 74.1627 110.21 73.928C110.125 73.6933 109.965 73.544 109.73 73.48C109.517 73.416 109.186 73.384 108.738 73.384C107.864 73.384 107.17 73.5973 106.658 74.024ZM130.101 78.76C130.464 78.76 130.762 78.792 130.997 78.856C130.954 79.4107 130.912 79.9547 130.869 80.488C130.826 81.0213 130.773 81.5227 130.709 81.992C130.645 82.44 130.56 82.8347 130.453 83.176C130.368 83.496 130.25 83.7307 130.101 83.88C129.738 84.392 129.258 84.7547 128.661 84.968C128.085 85.1813 127.456 85.3093 126.773 85.352C126.09 85.416 125.386 85.416 124.661 85.352C123.936 85.3093 123.274 85.288 122.677 85.288C121.589 85.096 120.672 84.6267 119.925 83.88C119.349 83.368 118.954 82.728 118.741 81.96C118.528 81.192 118.4 80.392 118.357 79.56C118.314 78.7067 118.304 77.8533 118.325 77C118.368 76.1467 118.346 75.368 118.261 74.664C118.261 73.896 118.325 73.128 118.453 72.36C118.474 72.1253 118.549 71.8053 118.677 71.4C118.805 70.9947 118.901 70.6853 118.965 70.472C119.114 70.152 119.349 69.8747 119.669 69.64C120.01 69.4053 120.394 69.2133 120.821 69.064C121.269 68.8933 121.738 68.776 122.229 68.712C122.741 68.648 123.253 68.616 123.765 68.616C124.192 68.6587 124.597 68.6693 124.981 68.648C125.386 68.6053 125.813 68.6053 126.261 68.648C126.944 68.6907 127.594 68.8187 128.213 69.032C128.832 69.2453 129.365 69.5653 129.813 69.992C130.112 70.2053 130.336 70.4933 130.485 70.856C130.656 71.2187 130.784 71.6453 130.869 72.136C130.954 72.6267 130.997 73.1813 130.997 73.8C131.018 74.3973 131.04 75.048 131.061 75.752C130.784 75.816 130.464 75.848 130.101 75.848C129.76 75.848 129.397 75.8373 129.013 75.816C128.65 75.7947 128.288 75.7627 127.925 75.72C127.584 75.6773 127.274 75.6347 126.997 75.592C126.89 74.8453 126.581 74.2693 126.069 73.864C125.557 73.4373 124.885 73.3307 124.053 73.544C123.605 73.672 123.242 73.9067 122.965 74.248C122.837 74.3333 122.741 74.5467 122.677 74.888C122.592 75.5493 122.549 76.2213 122.549 76.904C122.549 77.5867 122.528 78.3013 122.485 79.048C122.442 79.5387 122.56 79.9227 122.837 80.2C123.136 80.4773 123.488 80.6693 123.893 80.776C124.298 80.8613 124.714 80.8827 125.141 80.84C125.568 80.776 125.909 80.6587 126.165 80.488C126.378 80.3387 126.538 80.0933 126.645 79.752C126.773 79.3893 126.869 79.0693 126.933 78.792C127.146 78.8133 127.434 78.824 127.797 78.824C128.16 78.8027 128.544 78.7813 128.949 78.76C129.354 78.7387 129.738 78.7387 130.101 78.76ZM138.977 77.064C138.508 77.0427 138.167 77.0107 137.953 76.968V77.544C137.975 78.184 137.996 78.7067 138.017 79.112C138.06 79.5173 138.199 79.912 138.433 80.296C138.689 80.7867 139.052 81.1493 139.521 81.384C139.991 81.6187 140.449 81.6933 140.897 81.608C141.345 81.5227 141.719 81.2667 142.017 80.84C142.337 80.392 142.476 79.7307 142.433 78.856C142.647 78.8773 142.935 78.888 143.297 78.888C143.66 78.8667 144.033 78.8453 144.417 78.824C144.823 78.8027 145.207 78.8027 145.569 78.824C145.932 78.824 146.231 78.856 146.465 78.92C146.423 79.4747 146.38 80.0187 146.337 80.552C146.295 81.0853 146.241 81.5867 146.177 82.056C146.113 82.504 146.028 82.8987 145.921 83.24C145.836 83.56 145.719 83.784 145.569 83.912C145.207 84.424 144.737 84.7867 144.161 85C143.585 85.2133 142.956 85.3413 142.273 85.384C141.591 85.4267 140.887 85.4267 140.161 85.384C139.457 85.3413 138.807 85.32 138.209 85.32C137.612 85.2347 137.057 85.0427 136.545 84.744C135.969 84.3387 135.489 83.816 135.105 83.176C134.721 82.5147 134.412 81.8 134.177 81.032C133.943 80.2427 133.783 79.4107 133.697 78.536C133.612 77.6613 133.591 76.7867 133.633 75.912C133.697 75.1227 133.761 74.3653 133.825 73.64C133.911 72.8933 134.081 72.168 134.337 71.464C134.615 70.8453 135.041 70.3227 135.617 69.896C136.193 69.448 136.844 69.1173 137.569 68.904C138.295 68.6693 139.063 68.5413 139.873 68.52C140.684 68.4987 141.473 68.584 142.241 68.776C143.223 68.9467 144.012 69.288 144.609 69.8C145.207 70.312 145.655 70.9307 145.953 71.656C146.273 72.3813 146.465 73.1813 146.529 74.056C146.593 74.9307 146.593 75.816 146.529 76.712C146.38 76.7547 146.092 76.7973 145.665 76.84C145.26 76.8827 144.769 76.9253 144.193 76.968C143.639 77.0107 143.041 77.0427 142.401 77.064C141.761 77.0853 141.143 77.096 140.545 77.096C139.969 77.096 139.447 77.0853 138.977 77.064ZM142.721 72.872C142.508 72.488 142.209 72.2 141.825 72.008C141.655 71.9013 141.484 71.8267 141.313 71.784C141.143 71.72 140.94 71.688 140.705 71.688C140.193 71.688 139.777 71.7413 139.457 71.848C139.137 71.9547 138.881 72.104 138.689 72.296C138.497 72.488 138.348 72.712 138.241 72.968C138.156 73.224 138.092 73.4907 138.049 73.768C138.007 74.0027 137.985 74.1733 137.985 74.28C138.007 74.3653 138.113 74.4293 138.305 74.472C138.497 74.4933 138.796 74.504 139.201 74.504C139.628 74.4827 140.247 74.472 141.057 74.472C141.612 74.472 142.028 74.4827 142.305 74.504C142.583 74.5253 142.775 74.536 142.881 74.536C143.009 74.5147 143.073 74.4827 143.073 74.44C143.073 74.376 143.073 74.2587 143.073 74.088C143.073 73.6613 142.956 73.256 142.721 72.872ZM162.162 77.064C161.693 77.0427 161.352 77.0107 161.138 76.968V77.544C161.16 78.184 161.181 78.7067 161.202 79.112C161.245 79.5173 161.384 79.912 161.618 80.296C161.874 80.7867 162.237 81.1493 162.706 81.384C163.176 81.6187 163.634 81.6933 164.082 81.608C164.53 81.5227 164.904 81.2667 165.202 80.84C165.522 80.392 165.661 79.7307 165.618 78.856C165.832 78.8773 166.12 78.888 166.482 78.888C166.845 78.8667 167.218 78.8453 167.602 78.824C168.008 78.8027 168.392 78.8027 168.754 78.824C169.117 78.824 169.416 78.856 169.65 78.92C169.608 79.4747 169.565 80.0187 169.522 80.552C169.48 81.0853 169.426 81.5867 169.362 82.056C169.298 82.504 169.213 82.8987 169.106 83.24C169.021 83.56 168.904 83.784 168.754 83.912C168.392 84.424 167.922 84.7867 167.346 85C166.77 85.2133 166.141 85.3413 165.458 85.384C164.776 85.4267 164.072 85.4267 163.346 85.384C162.642 85.3413 161.992 85.32 161.394 85.32C160.797 85.2347 160.242 85.0427 159.73 84.744C159.154 84.3387 158.674 83.816 158.29 83.176C157.906 82.5147 157.597 81.8 157.362 81.032C157.128 80.2427 156.968 79.4107 156.882 78.536C156.797 77.6613 156.776 76.7867 156.818 75.912C156.882 75.1227 156.946 74.3653 157.01 73.64C157.096 72.8933 157.266 72.168 157.522 71.464C157.8 70.8453 158.226 70.3227 158.802 69.896C159.378 69.448 160.029 69.1173 160.754 68.904C161.48 68.6693 162.248 68.5413 163.058 68.52C163.869 68.4987 164.658 68.584 165.426 68.776C166.408 68.9467 167.197 69.288 167.794 69.8C168.392 70.312 168.84 70.9307 169.138 71.656C169.458 72.3813 169.65 73.1813 169.714 74.056C169.778 74.9307 169.778 75.816 169.714 76.712C169.565 76.7547 169.277 76.7973 168.85 76.84C168.445 76.8827 167.954 76.9253 167.378 76.968C166.824 77.0107 166.226 77.0427 165.586 77.064C164.946 77.0853 164.328 77.096 163.73 77.096C163.154 77.096 162.632 77.0853 162.162 77.064ZM165.906 72.872C165.693 72.488 165.394 72.2 165.01 72.008C164.84 71.9013 164.669 71.8267 164.498 71.784C164.328 71.72 164.125 71.688 163.89 71.688C163.378 71.688 162.962 71.7413 162.642 71.848C162.322 71.9547 162.066 72.104 161.874 72.296C161.682 72.488 161.533 72.712 161.426 72.968C161.341 73.224 161.277 73.4907 161.234 73.768C161.192 74.0027 161.17 74.1733 161.17 74.28C161.192 74.3653 161.298 74.4293 161.49 74.472C161.682 74.4933 161.981 74.504 162.386 74.504C162.813 74.4827 163.432 74.472 164.242 74.472C164.797 74.472 165.213 74.4827 165.49 74.504C165.768 74.5253 165.96 74.536 166.066 74.536C166.194 74.5147 166.258 74.4827 166.258 74.44C166.258 74.376 166.258 74.2587 166.258 74.088C166.258 73.6613 166.141 73.256 165.906 72.872ZM173.863 69.064C174.631 69 175.356 69.0107 176.039 69.096C176.188 69.864 176.337 70.7493 176.487 71.752C176.636 72.7333 176.796 73.736 176.967 74.76C177.137 75.784 177.319 76.7653 177.511 77.704C177.703 78.6213 177.916 79.4 178.151 80.04C178.385 79.4 178.599 78.6 178.791 77.64C178.983 76.6587 179.164 75.6453 179.335 74.6C179.527 73.5547 179.729 72.5413 179.943 71.56C180.156 70.5787 180.391 69.768 180.647 69.128C181.009 69.128 181.351 69.1173 181.671 69.096C181.991 69.0747 182.321 69.0533 182.663 69.032C183.004 69.0107 183.356 69 183.719 69C184.081 69 184.487 69.0107 184.935 69.032C184.487 70.248 184.092 71.5173 183.751 72.84C183.431 74.1413 183.121 75.4747 182.823 76.84C182.524 78.2053 182.225 79.5813 181.927 80.968C181.628 82.3333 181.297 83.688 180.935 85.032C180.508 85.096 180.028 85.128 179.495 85.128C178.983 85.1493 178.449 85.1493 177.895 85.128C177.361 85.128 176.828 85.1173 176.295 85.096C175.783 85.096 175.324 85.096 174.919 85.096C174.492 82.4293 174.001 79.7093 173.447 76.936C172.892 74.1627 172.273 71.5173 171.591 69C172.359 69.0853 173.116 69.1067 173.863 69.064ZM191.847 77.064C191.378 77.0427 191.037 77.0107 190.823 76.968V77.544C190.845 78.184 190.866 78.7067 190.887 79.112C190.93 79.5173 191.069 79.912 191.303 80.296C191.559 80.7867 191.922 81.1493 192.391 81.384C192.861 81.6187 193.319 81.6933 193.767 81.608C194.215 81.5227 194.589 81.2667 194.887 80.84C195.207 80.392 195.346 79.7307 195.303 78.856C195.517 78.8773 195.805 78.888 196.167 78.888C196.53 78.8667 196.903 78.8453 197.287 78.824C197.693 78.8027 198.077 78.8027 198.439 78.824C198.802 78.824 199.101 78.856 199.335 78.92C199.293 79.4747 199.25 80.0187 199.207 80.552C199.165 81.0853 199.111 81.5867 199.047 82.056C198.983 82.504 198.898 82.8987 198.791 83.24C198.706 83.56 198.589 83.784 198.439 83.912C198.077 84.424 197.607 84.7867 197.031 85C196.455 85.2133 195.826 85.3413 195.143 85.384C194.461 85.4267 193.757 85.4267 193.031 85.384C192.327 85.3413 191.677 85.32 191.079 85.32C190.482 85.2347 189.927 85.0427 189.415 84.744C188.839 84.3387 188.359 83.816 187.975 83.176C187.591 82.5147 187.282 81.8 187.047 81.032C186.813 80.2427 186.653 79.4107 186.567 78.536C186.482 77.6613 186.461 76.7867 186.503 75.912C186.567 75.1227 186.631 74.3653 186.695 73.64C186.781 72.8933 186.951 72.168 187.207 71.464C187.485 70.8453 187.911 70.3227 188.487 69.896C189.063 69.448 189.714 69.1173 190.439 68.904C191.165 68.6693 191.933 68.5413 192.743 68.52C193.554 68.4987 194.343 68.584 195.111 68.776C196.093 68.9467 196.882 69.288 197.479 69.8C198.077 70.312 198.525 70.9307 198.823 71.656C199.143 72.3813 199.335 73.1813 199.399 74.056C199.463 74.9307 199.463 75.816 199.399 76.712C199.25 76.7547 198.962 76.7973 198.535 76.84C198.13 76.8827 197.639 76.9253 197.063 76.968C196.509 77.0107 195.911 77.0427 195.271 77.064C194.631 77.0853 194.013 77.096 193.415 77.096C192.839 77.096 192.317 77.0853 191.847 77.064ZM195.591 72.872C195.378 72.488 195.079 72.2 194.695 72.008C194.525 71.9013 194.354 71.8267 194.183 71.784C194.013 71.72 193.81 71.688 193.575 71.688C193.063 71.688 192.647 71.7413 192.327 71.848C192.007 71.9547 191.751 72.104 191.559 72.296C191.367 72.488 191.218 72.712 191.111 72.968C191.026 73.224 190.962 73.4907 190.919 73.768C190.877 74.0027 190.855 74.1733 190.855 74.28C190.877 74.3653 190.983 74.4293 191.175 74.472C191.367 74.4933 191.666 74.504 192.071 74.504C192.498 74.4827 193.117 74.472 193.927 74.472C194.482 74.472 194.898 74.4827 195.175 74.504C195.453 74.5253 195.645 74.536 195.751 74.536C195.879 74.5147 195.943 74.4827 195.943 74.44C195.943 74.376 195.943 74.2587 195.943 74.088C195.943 73.6613 195.826 73.256 195.591 72.872ZM206.834 69.8C206.855 69.864 206.866 69.9707 206.866 70.12C206.951 70.0773 207.143 69.992 207.442 69.864C207.762 69.736 208.071 69.6187 208.37 69.512C208.775 69.384 209.234 69.288 209.746 69.224C210.258 69.1387 210.738 69.0853 211.186 69.064C211.634 69.0427 212.007 69.0427 212.306 69.064C212.626 69.064 212.786 69.0747 212.786 69.096C212.786 69.8213 212.775 70.4613 212.754 71.016C212.754 71.5707 212.754 72.072 212.754 72.52C212.754 72.9467 212.754 73.3413 212.754 73.704C212.754 74.0667 212.765 74.408 212.786 74.728L212.498 74.632C212.391 74.5893 212.274 74.5573 212.146 74.536C212.039 74.4933 211.933 74.4507 211.826 74.408C211.57 74.344 211.303 74.2907 211.026 74.248C210.77 74.2053 210.631 74.184 210.61 74.184C210.034 74.12 209.501 74.088 209.01 74.088C208.541 74.088 208.125 74.1627 207.762 74.312C207.421 74.4613 207.154 74.696 206.962 75.016C206.77 75.336 206.685 75.7947 206.706 76.392C206.727 77.1387 206.749 77.8427 206.77 78.504C206.791 79.1653 206.802 79.8373 206.802 80.52C206.802 81.1813 206.802 81.864 206.802 82.568C206.823 83.2507 206.834 83.9867 206.834 84.776V84.904C206.471 85.0107 206.141 85.0747 205.842 85.096C205.543 85.1173 205.234 85.1173 204.914 85.096C204.594 85.096 204.242 85.0853 203.858 85.064C203.495 85.0427 203.058 85.0533 202.546 85.096C202.546 82.472 202.514 79.848 202.45 77.224C202.407 74.6 202.429 71.88 202.514 69.064C202.77 69.0853 202.983 69.1067 203.154 69.128C203.325 69.128 203.485 69.128 203.634 69.128C203.783 69.128 203.943 69.128 204.114 69.128C204.285 69.1067 204.498 69.0853 204.754 69.064C204.839 69.064 204.989 69.0533 205.202 69.032C205.437 69.0107 205.671 68.9893 205.906 68.968C206.162 68.9467 206.375 68.9467 206.546 68.968C206.738 68.968 206.834 68.9893 206.834 69.032C206.834 69.2027 206.834 69.3307 206.834 69.416C206.834 69.5013 206.834 69.576 206.834 69.64C206.834 69.6827 206.834 69.736 206.834 69.8ZM216.919 69.064C217.773 69 218.541 69.0107 219.223 69.096C219.373 69.864 219.543 70.7813 219.735 71.848C219.927 72.8933 220.13 73.96 220.343 75.048C220.557 76.136 220.781 77.1813 221.015 78.184C221.25 79.1653 221.485 79.976 221.719 80.616C221.954 79.976 222.146 79.1333 222.295 78.088C222.445 77.0427 222.583 75.9547 222.711 74.824C222.861 73.6933 223.021 72.6053 223.191 71.56C223.362 70.5147 223.575 69.672 223.831 69.032C224.557 69.0533 225.293 69.0427 226.039 69C226.786 68.9573 227.607 68.968 228.503 69.032C228.162 70.312 227.853 71.5387 227.575 72.712C227.319 73.864 227.063 74.9947 226.807 76.104C226.53 77.1493 226.274 78.248 226.039 79.4C225.826 80.552 225.549 81.6827 225.207 82.792C224.887 83.9013 224.471 84.9573 223.959 85.96C223.447 86.9627 222.765 87.8267 221.911 88.552C221.079 89.2987 220.034 89.864 218.775 90.248C217.538 90.632 216.013 90.7707 214.199 90.664C213.986 90.024 213.879 89.2987 213.879 88.488C213.858 87.6987 213.901 87.0053 214.007 86.408C214.519 86.408 215.042 86.4293 215.575 86.472C216.13 86.5147 216.621 86.4827 217.047 86.376C217.474 86.2907 217.794 86.088 218.007 85.768C218.242 85.448 218.306 84.936 218.199 84.232C217.751 81.6507 217.186 79.0693 216.503 76.488C215.821 73.9067 215.149 71.4107 214.487 69C215.255 69.0853 216.066 69.1067 216.919 69.064ZM242.545 69.928C242.545 70.1627 242.556 70.4293 242.577 70.728C242.684 70.664 242.812 70.5893 242.961 70.504C243.132 70.4187 243.271 70.3333 243.377 70.248C243.825 69.928 244.327 69.672 244.881 69.48C245.436 69.288 246.001 69.1813 246.577 69.16C247.175 69.1387 247.751 69.2027 248.305 69.352C248.86 69.5013 249.361 69.768 249.809 70.152C249.916 70.2587 250.023 70.44 250.129 70.696C250.236 70.632 250.364 70.568 250.513 70.504C250.663 70.4187 250.791 70.3333 250.897 70.248C251.345 69.928 251.847 69.672 252.401 69.48C252.956 69.288 253.521 69.1813 254.097 69.16C254.695 69.1387 255.271 69.2027 255.825 69.352C256.38 69.5013 256.881 69.768 257.329 70.152C257.543 70.344 257.703 70.7493 257.809 71.368C257.937 71.9653 258.012 72.6907 258.033 73.544C258.076 74.3973 258.087 75.336 258.065 76.36C258.065 77.3627 258.055 78.3867 258.033 79.432C258.012 80.456 257.991 81.448 257.969 82.408C257.948 83.368 257.959 84.2107 258.001 84.936C257.255 85.0427 256.583 85.0853 255.985 85.064C255.409 85.064 254.748 85.064 254.001 85.064C253.959 84.5733 253.937 84.0187 253.937 83.4C253.937 82.7813 253.937 82.1413 253.937 81.48C253.959 80.8187 253.959 80.1573 253.937 79.496C253.937 78.8347 253.916 78.216 253.873 77.64C253.852 77.384 253.831 77.1067 253.809 76.808C253.788 76.488 253.745 76.1787 253.681 75.88C253.639 75.5813 253.564 75.3147 253.457 75.08C253.372 74.8453 253.244 74.664 253.073 74.536C253.052 74.5147 253.031 74.504 253.009 74.504C252.988 74.504 252.967 74.4933 252.945 74.472C252.817 74.408 252.657 74.3547 252.465 74.312C252.273 74.2693 252.06 74.248 251.825 74.248C251.612 74.248 251.388 74.2907 251.153 74.376C250.94 74.44 250.737 74.5467 250.545 74.696C250.567 75.528 250.567 76.4133 250.545 77.352C250.524 78.2693 250.503 79.1867 250.481 80.104C250.46 81 250.439 81.8747 250.417 82.728C250.417 83.56 250.439 84.296 250.481 84.936C249.735 85.0427 249.063 85.0853 248.465 85.064C247.889 85.064 247.228 85.064 246.481 85.064C246.439 84.5733 246.417 84.0187 246.417 83.4C246.417 82.7813 246.417 82.1413 246.417 81.48C246.439 80.8187 246.439 80.1573 246.417 79.496C246.417 78.8347 246.396 78.216 246.353 77.64C246.332 77.384 246.311 77.1067 246.289 76.808C246.268 76.488 246.225 76.1787 246.161 75.88C246.119 75.5813 246.044 75.3147 245.937 75.08C245.852 74.8453 245.724 74.664 245.553 74.536C245.532 74.5147 245.511 74.504 245.489 74.504C245.468 74.504 245.447 74.4933 245.425 74.472C245.255 74.3867 244.999 74.3227 244.657 74.28C244.337 74.216 244.017 74.2373 243.697 74.344C243.377 74.4293 243.089 74.6213 242.833 74.92C242.577 75.1973 242.428 75.624 242.385 76.2C242.343 76.9467 242.332 77.6827 242.353 78.408C242.375 79.112 242.396 79.8267 242.417 80.552C242.46 81.256 242.481 81.96 242.481 82.664C242.481 83.368 242.439 84.072 242.353 84.776V84.904C241.991 85.0107 241.671 85.0747 241.393 85.096C241.137 85.1173 240.871 85.1173 240.593 85.096C240.316 85.096 240.007 85.0853 239.665 85.064C239.324 85.0427 238.897 85.0533 238.385 85.096C238.385 82.472 238.353 79.848 238.289 77.224C238.247 74.6 238.268 71.88 238.353 69.064C238.609 69.0853 238.823 69.1067 238.993 69.128C239.164 69.128 239.324 69.128 239.473 69.128C239.623 69.128 239.783 69.128 239.953 69.128C240.124 69.1067 240.337 69.0853 240.593 69.064C240.679 69.064 240.828 69.0533 241.041 69.032C241.255 68.9893 241.468 68.9573 241.681 68.936C241.895 68.9147 242.087 68.9147 242.257 68.936C242.428 68.936 242.513 68.968 242.513 69.032C242.556 69.3947 242.567 69.6933 242.545 69.928ZM261.508 71.368C261.636 70.9627 261.732 70.6427 261.796 70.408C261.946 70.088 262.18 69.8107 262.5 69.576C262.842 69.3413 263.226 69.1493 263.652 69C264.1 68.8293 264.57 68.712 265.06 68.648C265.572 68.584 266.084 68.552 266.596 68.552C267.023 68.5947 267.428 68.6053 267.812 68.584C268.218 68.5413 268.644 68.5413 269.092 68.584C269.775 68.6267 270.426 68.7653 271.044 69C271.663 69.2133 272.196 69.5333 272.644 69.96C272.943 70.152 273.178 70.4613 273.348 70.888C273.519 71.3147 273.647 71.816 273.732 72.392C273.818 72.9467 273.871 73.5653 273.892 74.248C273.914 74.9093 273.935 75.592 273.956 76.296C273.935 76.9147 273.903 77.6187 273.86 78.408C273.839 79.1973 273.786 79.9547 273.7 80.68C273.636 81.4053 273.54 82.056 273.412 82.632C273.306 83.208 273.146 83.6027 272.932 83.816C272.57 84.328 272.09 84.6907 271.492 84.904C270.916 85.1173 270.287 85.2453 269.604 85.288C268.922 85.352 268.218 85.352 267.492 85.288C266.767 85.2453 266.106 85.224 265.508 85.224C264.42 85.032 263.503 84.5627 262.756 83.816C262.18 83.304 261.786 82.664 261.572 81.896C261.359 81.128 261.231 80.328 261.188 79.496C261.146 78.6427 261.135 77.7893 261.156 76.936C261.199 76.0827 261.188 75.304 261.124 74.6C261.124 74.216 261.135 73.8427 261.156 73.48C261.178 73.096 261.22 72.7013 261.284 72.296C261.306 72.0613 261.38 71.752 261.508 71.368ZM266.884 73.48C266.436 73.608 266.074 73.8427 265.796 74.184C265.668 74.2693 265.572 74.4827 265.508 74.824C265.423 75.5067 265.38 76.1893 265.38 76.872C265.38 77.5333 265.359 78.2373 265.316 78.984C265.295 79.4747 265.423 79.8587 265.7 80.136C265.978 80.392 266.308 80.5733 266.692 80.68C267.098 80.7653 267.514 80.7867 267.94 80.744C268.367 80.68 268.719 80.5733 268.996 80.424C269.359 80.2533 269.604 79.9013 269.732 79.368C269.818 78.6853 269.882 78.0027 269.924 77.32C269.988 76.616 269.956 75.9547 269.828 75.336C269.722 74.5893 269.412 74.0453 268.9 73.704C268.388 73.3627 267.716 73.288 266.884 73.48ZM281.324 69.928C281.324 70.1627 281.335 70.4293 281.356 70.728C281.463 70.664 281.591 70.5893 281.74 70.504C281.911 70.4187 282.049 70.3333 282.156 70.248C282.604 69.928 283.105 69.672 283.66 69.48C284.215 69.288 284.78 69.1813 285.356 69.16C285.953 69.1387 286.529 69.2027 287.084 69.352C287.639 69.5013 288.14 69.768 288.588 70.152C288.695 70.2587 288.801 70.44 288.908 70.696C289.015 70.632 289.143 70.568 289.292 70.504C289.441 70.4187 289.569 70.3333 289.676 70.248C290.124 69.928 290.625 69.672 291.18 69.48C291.735 69.288 292.3 69.1813 292.876 69.16C293.473 69.1387 294.049 69.2027 294.604 69.352C295.159 69.5013 295.66 69.768 296.108 70.152C296.321 70.344 296.481 70.7493 296.588 71.368C296.716 71.9653 296.791 72.6907 296.812 73.544C296.855 74.3973 296.865 75.336 296.844 76.36C296.844 77.3627 296.833 78.3867 296.812 79.432C296.791 80.456 296.769 81.448 296.748 82.408C296.727 83.368 296.737 84.2107 296.78 84.936C296.033 85.0427 295.361 85.0853 294.764 85.064C294.188 85.064 293.527 85.064 292.78 85.064C292.737 84.5733 292.716 84.0187 292.716 83.4C292.716 82.7813 292.716 82.1413 292.716 81.48C292.737 80.8187 292.737 80.1573 292.716 79.496C292.716 78.8347 292.695 78.216 292.652 77.64C292.631 77.384 292.609 77.1067 292.588 76.808C292.567 76.488 292.524 76.1787 292.46 75.88C292.417 75.5813 292.343 75.3147 292.236 75.08C292.151 74.8453 292.023 74.664 291.852 74.536C291.831 74.5147 291.809 74.504 291.788 74.504C291.767 74.504 291.745 74.4933 291.724 74.472C291.596 74.408 291.436 74.3547 291.244 74.312C291.052 74.2693 290.839 74.248 290.604 74.248C290.391 74.248 290.167 74.2907 289.932 74.376C289.719 74.44 289.516 74.5467 289.324 74.696C289.345 75.528 289.345 76.4133 289.324 77.352C289.303 78.2693 289.281 79.1867 289.26 80.104C289.239 81 289.217 81.8747 289.196 82.728C289.196 83.56 289.217 84.296 289.26 84.936C288.513 85.0427 287.841 85.0853 287.244 85.064C286.668 85.064 286.007 85.064 285.26 85.064C285.217 84.5733 285.196 84.0187 285.196 83.4C285.196 82.7813 285.196 82.1413 285.196 81.48C285.217 80.8187 285.217 80.1573 285.196 79.496C285.196 78.8347 285.175 78.216 285.132 77.64C285.111 77.384 285.089 77.1067 285.068 76.808C285.047 76.488 285.004 76.1787 284.94 75.88C284.897 75.5813 284.823 75.3147 284.716 75.08C284.631 74.8453 284.503 74.664 284.332 74.536C284.311 74.5147 284.289 74.504 284.268 74.504C284.247 74.504 284.225 74.4933 284.204 74.472C284.033 74.3867 283.777 74.3227 283.436 74.28C283.116 74.216 282.796 74.2373 282.476 74.344C282.156 74.4293 281.868 74.6213 281.612 74.92C281.356 75.1973 281.207 75.624 281.164 76.2C281.121 76.9467 281.111 77.6827 281.132 78.408C281.153 79.112 281.175 79.8267 281.196 80.552C281.239 81.256 281.26 81.96 281.26 82.664C281.26 83.368 281.217 84.072 281.132 84.776V84.904C280.769 85.0107 280.449 85.0747 280.172 85.096C279.916 85.1173 279.649 85.1173 279.372 85.096C279.095 85.096 278.785 85.0853 278.444 85.064C278.103 85.0427 277.676 85.0533 277.164 85.096C277.164 82.472 277.132 79.848 277.068 77.224C277.025 74.6 277.047 71.88 277.132 69.064C277.388 69.0853 277.601 69.1067 277.772 69.128C277.943 69.128 278.103 69.128 278.252 69.128C278.401 69.128 278.561 69.128 278.732 69.128C278.903 69.1067 279.116 69.0853 279.372 69.064C279.457 69.064 279.607 69.0533 279.82 69.032C280.033 68.9893 280.247 68.9573 280.46 68.936C280.673 68.9147 280.865 68.9147 281.036 68.936C281.207 68.936 281.292 68.968 281.292 69.032C281.335 69.3947 281.345 69.6933 281.324 69.928ZM305.151 77.064C304.682 77.0427 304.34 77.0107 304.127 76.968V77.544C304.148 78.184 304.17 78.7067 304.191 79.112C304.234 79.5173 304.372 79.912 304.607 80.296C304.863 80.7867 305.226 81.1493 305.695 81.384C306.164 81.6187 306.623 81.6933 307.071 81.608C307.519 81.5227 307.892 81.2667 308.191 80.84C308.511 80.392 308.65 79.7307 308.607 78.856C308.82 78.8773 309.108 78.888 309.471 78.888C309.834 78.8667 310.207 78.8453 310.591 78.824C310.996 78.8027 311.38 78.8027 311.743 78.824C312.106 78.824 312.404 78.856 312.639 78.92C312.596 79.4747 312.554 80.0187 312.511 80.552C312.468 81.0853 312.415 81.5867 312.351 82.056C312.287 82.504 312.202 82.8987 312.095 83.24C312.01 83.56 311.892 83.784 311.743 83.912C311.38 84.424 310.911 84.7867 310.335 85C309.759 85.2133 309.13 85.3413 308.447 85.384C307.764 85.4267 307.06 85.4267 306.335 85.384C305.631 85.3413 304.98 85.32 304.383 85.32C303.786 85.2347 303.231 85.0427 302.719 84.744C302.143 84.3387 301.663 83.816 301.279 83.176C300.895 82.5147 300.586 81.8 300.351 81.032C300.116 80.2427 299.956 79.4107 299.871 78.536C299.786 77.6613 299.764 76.7867 299.807 75.912C299.871 75.1227 299.935 74.3653 299.999 73.64C300.084 72.8933 300.255 72.168 300.511 71.464C300.788 70.8453 301.215 70.3227 301.791 69.896C302.367 69.448 303.018 69.1173 303.743 68.904C304.468 68.6693 305.236 68.5413 306.047 68.52C306.858 68.4987 307.647 68.584 308.415 68.776C309.396 68.9467 310.186 69.288 310.783 69.8C311.38 70.312 311.828 70.9307 312.127 71.656C312.447 72.3813 312.639 73.1813 312.703 74.056C312.767 74.9307 312.767 75.816 312.703 76.712C312.554 76.7547 312.266 76.7973 311.839 76.84C311.434 76.8827 310.943 76.9253 310.367 76.968C309.812 77.0107 309.215 77.0427 308.575 77.064C307.935 77.0853 307.316 77.096 306.719 77.096C306.143 77.096 305.62 77.0853 305.151 77.064ZM308.895 72.872C308.682 72.488 308.383 72.2 307.999 72.008C307.828 71.9013 307.658 71.8267 307.487 71.784C307.316 71.72 307.114 71.688 306.879 71.688C306.367 71.688 305.951 71.7413 305.631 71.848C305.311 71.9547 305.055 72.104 304.863 72.296C304.671 72.488 304.522 72.712 304.415 72.968C304.33 73.224 304.266 73.4907 304.223 73.768C304.18 74.0027 304.159 74.1733 304.159 74.28C304.18 74.3653 304.287 74.4293 304.479 74.472C304.671 74.4933 304.97 74.504 305.375 74.504C305.802 74.4827 306.42 74.472 307.231 74.472C307.786 74.472 308.202 74.4827 308.479 74.504C308.756 74.5253 308.948 74.536 309.055 74.536C309.183 74.5147 309.247 74.4827 309.247 74.44C309.247 74.376 309.247 74.2587 309.247 74.088C309.247 73.6613 309.13 73.256 308.895 72.872ZM320.01 69.928C320.01 70.1627 320.02 70.4293 320.042 70.728C320.148 70.664 320.276 70.5893 320.426 70.504C320.596 70.4187 320.735 70.3333 320.842 70.248C321.29 69.928 321.791 69.672 322.346 69.48C322.9 69.288 323.466 69.1813 324.042 69.16C324.639 69.1387 325.215 69.2027 325.77 69.352C326.324 69.5013 326.826 69.768 327.274 70.152C327.487 70.344 327.647 70.7493 327.754 71.368C327.882 71.9653 327.956 72.6907 327.978 73.544C328.02 74.3973 328.031 75.336 328.01 76.36C328.01 77.3627 327.999 78.3867 327.978 79.432C327.956 80.456 327.935 81.448 327.914 82.408C327.892 83.368 327.903 84.2107 327.946 84.936C327.199 85.0427 326.527 85.0853 325.93 85.064C325.354 85.064 324.692 85.064 323.946 85.064C323.903 84.5733 323.882 84.0187 323.882 83.4C323.882 82.7813 323.882 82.1413 323.882 81.48C323.903 80.8187 323.903 80.1573 323.882 79.496C323.882 78.8347 323.86 78.216 323.818 77.64C323.796 77.384 323.775 77.1067 323.754 76.808C323.732 76.488 323.69 76.1787 323.626 75.88C323.583 75.5813 323.508 75.3147 323.402 75.08C323.316 74.8453 323.188 74.664 323.018 74.536C322.996 74.5147 322.975 74.504 322.954 74.504C322.932 74.504 322.911 74.4933 322.89 74.472C322.719 74.3867 322.463 74.3227 322.122 74.28C321.802 74.216 321.482 74.2373 321.162 74.344C320.842 74.4293 320.554 74.6213 320.298 74.92C320.042 75.1973 319.892 75.624 319.85 76.2C319.807 76.9467 319.796 77.6827 319.818 78.408C319.839 79.112 319.86 79.8267 319.882 80.552C319.924 81.256 319.946 81.96 319.946 82.664C319.946 83.368 319.903 84.072 319.818 84.776V84.904C319.455 85.0107 319.135 85.0747 318.858 85.096C318.602 85.1173 318.335 85.1173 318.058 85.096C317.78 85.096 317.471 85.0853 317.13 85.064C316.788 85.0427 316.362 85.0533 315.85 85.096C315.85 82.472 315.818 79.848 315.754 77.224C315.711 74.6 315.732 71.88 315.818 69.064C316.074 69.0853 316.287 69.1067 316.458 69.128C316.628 69.128 316.788 69.128 316.938 69.128C317.087 69.128 317.247 69.128 317.418 69.128C317.588 69.1067 317.802 69.0853 318.058 69.064C318.143 69.064 318.292 69.0533 318.506 69.032C318.719 68.9893 318.932 68.9573 319.146 68.936C319.359 68.9147 319.551 68.9147 319.722 68.936C319.892 68.936 319.978 68.968 319.978 69.032C320.02 69.3947 320.031 69.6933 320.01 69.928ZM336.112 63.144C336.475 63.1653 336.837 63.1547 337.2 63.112V67.4C337.2 67.6773 337.2 67.9653 337.2 68.264C337.221 68.5627 337.232 68.872 337.232 69.192C337.893 69.1707 338.587 69.1387 339.312 69.096C340.059 69.0533 340.976 69 342.064 68.936C342.213 69.1067 342.299 69.3627 342.32 69.704C342.341 70.024 342.341 70.376 342.32 70.76C342.299 71.144 342.267 71.5387 342.224 71.944C342.203 72.328 342.213 72.6587 342.256 72.936H337.296C337.296 74.088 337.296 75.2187 337.296 76.328C337.296 77.416 337.307 78.44 337.328 79.4C337.541 79.6987 337.851 79.9333 338.256 80.104C338.661 80.2747 339.099 80.4133 339.568 80.52C340.037 80.6053 340.507 80.6587 340.976 80.68C341.467 80.7013 341.893 80.7013 342.256 80.68C342.299 80.9787 342.341 81.3093 342.384 81.672C342.427 82.0347 342.459 82.408 342.48 82.792C342.501 83.176 342.491 83.56 342.448 83.944C342.427 84.328 342.363 84.68 342.256 85C341.403 85.0427 340.517 85.0427 339.6 85C338.683 84.936 337.819 84.808 337.008 84.616C336.197 84.424 335.472 84.136 334.832 83.752C334.213 83.368 333.765 82.8453 333.488 82.184C333.211 80.5413 333.051 78.9947 333.008 77.544C332.965 76.072 332.955 74.5573 332.976 73C332.635 73.0213 332.272 73.032 331.888 73.032C331.525 73.032 331.12 73.032 330.672 73.032L330.768 69.128C331.195 69.1493 331.589 69.16 331.952 69.16C332.336 69.16 332.699 69.16 333.04 69.16C333.04 68.6907 333.029 68.1893 333.008 67.656C332.987 67.1013 332.976 66.5467 332.976 65.992C332.976 65.4373 332.976 64.904 332.976 64.392C332.997 63.88 333.029 63.4213 333.072 63.016C333.349 62.9733 333.648 62.9627 333.968 62.984C334.309 63.0053 334.661 63.0373 335.024 63.08C335.387 63.1013 335.749 63.1227 336.112 63.144Z" fill="#2DA1FF"/>
</svg>
