<svg width="254" height="40" viewBox="0 0 254 40" fill="none" xmlns="http://www.w3.org/2000/svg">
<path d="M16.7969 22.6875C16.7969 24.1146 16.5469 25.3646 16.0469 26.4375C15.5573 27.5 14.8802 28.3854 14.0156 29.0938C13.1615 29.8021 12.1562 30.3333 11 30.6875C9.85417 31.0417 8.61979 31.2188 7.29688 31.2188C6.78646 31.2188 6.22396 31.151 5.60938 31.0156C5.00521 30.8802 4.39062 30.7135 3.76562 30.5156C3.14062 30.3073 2.53646 30.0885 1.95312 29.8594C1.38021 29.6198 0.869792 29.3958 0.421875 29.1875L1.10938 22.75C1.99479 23.2812 2.97396 23.6875 4.04688 23.9688C5.13021 24.2396 6.19271 24.375 7.23438 24.375C7.43229 24.375 7.67188 24.3698 7.95312 24.3594C8.23438 24.3385 8.5 24.2917 8.75 24.2188C9.01042 24.1354 9.22917 24.0156 9.40625 23.8594C9.58333 23.7031 9.67188 23.4792 9.67188 23.1875C9.67188 22.9896 9.60938 22.8229 9.48438 22.6875C9.35938 22.5417 9.19792 22.4271 9 22.3438C8.80208 22.25 8.57812 22.1823 8.32812 22.1406C8.07812 22.0885 7.83333 22.0521 7.59375 22.0312C7.35417 22.0104 7.13021 22 6.92188 22C6.71354 22 6.54688 22 6.42188 22C5.52604 22 4.70833 21.8438 3.96875 21.5312C3.23958 21.2188 2.60938 20.7865 2.07812 20.2344C1.55729 19.6719 1.15104 19.0104 0.859375 18.25C0.567708 17.4792 0.421875 16.6458 0.421875 15.75C0.421875 14.5208 0.666667 13.4219 1.15625 12.4531C1.65625 11.474 2.31771 10.6458 3.14062 9.96875C3.97396 9.28125 4.92708 8.75521 6 8.39062C7.07292 8.02604 8.18229 7.84375 9.32812 7.84375C9.83854 7.84375 10.3646 7.86458 10.9062 7.90625C11.4479 7.9375 11.9844 8 12.5156 8.09375C13.0573 8.1875 13.5833 8.30729 14.0938 8.45312C14.6042 8.59896 15.0885 8.78125 15.5469 9L14.9531 15.3438C14.2448 15.1042 13.5 14.9062 12.7188 14.75C11.9479 14.5833 11.1927 14.5 10.4531 14.5C10.3177 14.5 10.1406 14.5052 9.92188 14.5156C9.71354 14.5156 9.48958 14.5312 9.25 14.5625C9.02083 14.5833 8.78646 14.6198 8.54688 14.6719C8.30729 14.724 8.09375 14.7969 7.90625 14.8906C7.71875 14.974 7.56771 15.0885 7.45312 15.2344C7.33854 15.3802 7.28646 15.5521 7.29688 15.75C7.30729 15.9792 7.39062 16.1667 7.54688 16.3125C7.71354 16.4479 7.92188 16.5573 8.17188 16.6406C8.43229 16.7135 8.71354 16.7656 9.01562 16.7969C9.32812 16.8281 9.63542 16.849 9.9375 16.8594C10.2396 16.8594 10.5208 16.8594 10.7812 16.8594C11.0417 16.849 11.2552 16.8542 11.4219 16.875C12.2552 16.9271 13.0052 17.1042 13.6719 17.4062C14.3385 17.7083 14.901 18.1094 15.3594 18.6094C15.8281 19.1094 16.1823 19.7083 16.4219 20.4062C16.6719 21.0938 16.7969 21.8542 16.7969 22.6875ZM36.4219 9C35.9531 12.6667 35.5521 16.3177 35.2188 19.9531C34.8854 23.5781 34.5677 27.2292 34.2656 30.9062L27.8594 31.375L28.1406 28.9688C27.9323 29.2083 27.6875 29.4167 27.4062 29.5938C27.1354 29.7708 26.8438 29.9167 26.5312 30.0312C26.2188 30.1354 25.8958 30.2135 25.5625 30.2656C25.2292 30.3073 24.9115 30.3229 24.6094 30.3125C23.901 30.3021 23.2344 30.1667 22.6094 29.9062C21.9844 29.6354 21.4115 29.2812 20.8906 28.8438C20.3698 28.3958 19.901 27.8802 19.4844 27.2969C19.0677 26.7031 18.7135 26.0833 18.4219 25.4375C18.1406 24.7812 17.9219 24.1146 17.7656 23.4375C17.6198 22.7604 17.5469 22.1042 17.5469 21.4688C17.5469 20.5312 17.5625 19.5625 17.5938 18.5625C17.6354 17.5521 17.7031 16.5417 17.7969 15.5312C17.8906 14.5208 18.0104 13.5208 18.1562 12.5312C18.3125 11.5417 18.5052 10.5938 18.7344 9.6875C20.0052 9.75 21.2812 9.80729 22.5625 9.85938C23.8438 9.91146 25.1198 9.92708 26.3906 9.90625C26.151 10.8125 25.9115 11.724 25.6719 12.6406C25.4427 13.5469 25.2344 14.4635 25.0469 15.3906C24.8594 16.3073 24.7083 17.2292 24.5938 18.1562C24.4792 19.0833 24.4219 20.0208 24.4219 20.9688C24.4219 21.1875 24.4323 21.5 24.4531 21.9062C24.474 22.3125 24.526 22.7135 24.6094 23.1094C24.7031 23.5052 24.8385 23.8542 25.0156 24.1562C25.2031 24.4479 25.4635 24.5938 25.7969 24.5938C26.1927 24.5938 26.5469 24.4271 26.8594 24.0938C27.1719 23.75 27.4479 23.2917 27.6875 22.7188C27.9271 22.1458 28.1302 21.4844 28.2969 20.7344C28.474 19.9844 28.6198 19.2031 28.7344 18.3906C28.8594 17.5677 28.9583 16.7396 29.0312 15.9062C29.1042 15.0729 29.1562 14.2917 29.1875 13.5625C29.2292 12.8229 29.2552 12.1615 29.2656 11.5781C29.2865 10.9948 29.2969 10.5417 29.2969 10.2188C29.2969 10.0104 29.2917 9.80729 29.2812 9.60938C29.2708 9.41146 29.2552 9.20833 29.2344 9C29.9115 9.02083 30.5833 9.03646 31.25 9.04688C31.9167 9.05729 32.5885 9.0625 33.2656 9.0625C33.7865 9.0625 34.3073 9.0625 34.8281 9.0625C35.3594 9.05208 35.8906 9.03125 36.4219 9ZM55.6719 15.9375C55.6719 16.75 55.599 17.4896 55.4531 18.1562C55.3177 18.8125 55.099 19.4167 54.7969 19.9688C54.4948 20.5208 54.1042 21.0312 53.625 21.5C53.1458 21.9688 52.5677 22.4167 51.8906 22.8438L55.6094 29.4688L48.5781 30.8438L46.1719 24.1875L44.2344 24.25L43.9531 30.75H37.2344C37.2865 28.375 37.3333 26.0104 37.375 23.6562C37.4271 21.3021 37.4844 18.9375 37.5469 16.5625C37.5677 15.3646 37.5885 14.1771 37.6094 13C37.6302 11.8229 37.6719 10.6354 37.7344 9.4375C38.4635 9.16667 39.1823 8.94271 39.8906 8.76562C40.599 8.58854 41.3073 8.45312 42.0156 8.35938C42.7344 8.25521 43.4583 8.1875 44.1875 8.15625C44.9271 8.11458 45.6823 8.09375 46.4531 8.09375C47.6406 8.09375 48.7865 8.26042 49.8906 8.59375C51.0052 8.91667 51.9896 9.40625 52.8438 10.0625C53.6979 10.7188 54.3802 11.5365 54.8906 12.5156C55.4115 13.4948 55.6719 14.6354 55.6719 15.9375ZM48.6719 16.4375C48.6719 16 48.6094 15.599 48.4844 15.2344C48.3698 14.8698 48.1927 14.5573 47.9531 14.2969C47.724 14.026 47.4323 13.8177 47.0781 13.6719C46.7344 13.5156 46.3281 13.4375 45.8594 13.4375C45.651 13.4375 45.4479 13.4531 45.25 13.4844C45.0521 13.5052 44.8594 13.5417 44.6719 13.5938L44.4219 19.4062H44.7969C45.2448 19.4062 45.6979 19.349 46.1562 19.2344C46.625 19.1198 47.0417 18.9427 47.4062 18.7031C47.7812 18.4635 48.0833 18.1562 48.3125 17.7812C48.5521 17.4062 48.6719 16.9583 48.6719 16.4375ZM71.5469 8.78125C71.4844 9.76042 71.4271 10.7292 71.375 11.6875C71.3229 12.6458 71.2552 13.6146 71.1719 14.5938L64.5469 14.9375V16.9062H70.2969L69.9844 21.75L64.5156 21.9062L64.5469 30.5312L56.6406 30.6875L57.1406 8.78125H71.5469ZM94.6562 23C94.6562 24.4271 94.4062 25.6615 93.9062 26.7031C93.4167 27.7344 92.7396 28.5885 91.875 29.2656C91.0208 29.9323 90.0156 30.4271 88.8594 30.75C87.7135 31.0625 86.4792 31.2188 85.1562 31.2188C84.6458 31.2188 84.0833 31.151 83.4688 31.0156C82.8646 30.8802 82.25 30.7135 81.625 30.5156C81 30.3073 80.3958 30.0885 79.8125 29.8594C79.2396 29.6198 78.7292 29.3958 78.2812 29.1875L78.9688 23.0625C79.8542 23.5938 80.8333 24 81.9062 24.2812C82.9896 24.5521 84.0521 24.6875 85.0938 24.6875C85.2917 24.6875 85.5312 24.6823 85.8125 24.6719C86.0938 24.651 86.3594 24.6042 86.6094 24.5312C86.8698 24.4479 87.0885 24.3281 87.2656 24.1719C87.4427 24.0156 87.5312 23.7917 87.5312 23.5C87.5312 23.3021 87.4688 23.1354 87.3438 23C87.2188 22.8542 87.0573 22.7396 86.8594 22.6562C86.6615 22.5625 86.4375 22.4948 86.1875 22.4531C85.9375 22.401 85.6927 22.3646 85.4531 22.3438C85.2135 22.3229 84.9896 22.3125 84.7812 22.3125C84.5729 22.3125 84.4062 22.3125 84.2812 22.3125C83.3854 22.3125 82.5677 22.1719 81.8281 21.8906C81.099 21.6094 80.4688 21.2135 79.9375 20.7031C79.4167 20.1823 79.0104 19.5573 78.7188 18.8281C78.4271 18.0885 78.2812 17.2708 78.2812 16.375C78.2812 15.1458 78.526 14.0469 79.0156 13.0781C79.5156 12.099 80.1771 11.2708 81 10.5938C81.8333 9.90625 82.7865 9.38021 83.8594 9.01562C84.9323 8.65104 86.0417 8.46875 87.1875 8.46875C87.6979 8.46875 88.224 8.48958 88.7656 8.53125C89.3073 8.5625 89.8438 8.625 90.375 8.71875C90.9167 8.8125 91.4427 8.93229 91.9531 9.07812C92.4635 9.22396 92.9479 9.40625 93.4062 9.625L92.8125 15.9688C92.1042 15.7292 91.3594 15.5312 90.5781 15.375C89.8073 15.2083 89.0521 15.125 88.3125 15.125C88.1771 15.125 88 15.1302 87.7812 15.1406C87.5729 15.1406 87.349 15.1562 87.1094 15.1875C86.8802 15.2083 86.6458 15.2448 86.4062 15.2969C86.1667 15.349 85.9531 15.4219 85.7656 15.5156C85.5781 15.599 85.4271 15.7135 85.3125 15.8594C85.1979 16.0052 85.1458 16.1771 85.1562 16.375C85.1667 16.6042 85.25 16.7812 85.4062 16.9062C85.5729 17.0312 85.7812 17.125 86.0312 17.1875C86.2917 17.2396 86.5729 17.2656 86.875 17.2656C87.1875 17.2656 87.4948 17.2604 87.7969 17.25C88.099 17.2292 88.3802 17.2135 88.6406 17.2031C88.901 17.1823 89.1146 17.1771 89.2812 17.1875C90.1146 17.2396 90.8646 17.4167 91.5312 17.7188C92.1979 18.0208 92.7604 18.4219 93.2188 18.9219C93.6875 19.4219 94.0417 20.0208 94.2812 20.7188C94.5312 21.4062 94.6562 22.1667 94.6562 23ZM114.219 30.375L106.406 30.75L106.344 24.1562H102.75L102.531 31H95.5312L96.125 9.03125L103.562 9.375L103.094 20.5938H106.562L106.594 8.84375L113.719 9.03125L114.219 30.375ZM135.016 19.0312C135.016 19.9792 134.906 20.8958 134.688 21.7812C134.469 22.6562 134.151 23.4792 133.734 24.25C133.328 25.0208 132.828 25.7292 132.234 26.375C131.651 27.0104 130.99 27.5573 130.25 28.0156C129.521 28.474 128.724 28.8333 127.859 29.0938C126.995 29.3438 126.078 29.4688 125.109 29.4688C124.172 29.4688 123.276 29.349 122.422 29.1094C121.578 28.8698 120.786 28.5365 120.047 28.1094C119.307 27.6719 118.635 27.151 118.031 26.5469C117.438 25.9323 116.927 25.2552 116.5 24.5156C116.083 23.7656 115.755 22.9635 115.516 22.1094C115.286 21.2552 115.172 20.3646 115.172 19.4375C115.172 18.5312 115.281 17.6458 115.5 16.7812C115.719 15.9062 116.031 15.0833 116.438 14.3125C116.854 13.5417 117.354 12.8333 117.938 12.1875C118.521 11.5417 119.172 10.9844 119.891 10.5156C120.62 10.0469 121.406 9.68229 122.25 9.42188C123.094 9.16146 123.984 9.03125 124.922 9.03125C126.432 9.03125 127.807 9.26562 129.047 9.73438C130.297 10.2031 131.359 10.875 132.234 11.75C133.12 12.6146 133.802 13.6667 134.281 14.9062C134.771 16.1354 135.016 17.5104 135.016 19.0312ZM128.078 19.4375C128.078 18.9896 128.01 18.5573 127.875 18.1406C127.75 17.7135 127.562 17.3385 127.312 17.0156C127.062 16.6823 126.75 16.4167 126.375 16.2188C126.01 16.0104 125.589 15.9062 125.109 15.9062C124.62 15.9062 124.182 15.9948 123.797 16.1719C123.411 16.349 123.078 16.5938 122.797 16.9062C122.526 17.2083 122.318 17.5677 122.172 17.9844C122.026 18.3906 121.953 18.8229 121.953 19.2812C121.953 19.7188 122.016 20.1562 122.141 20.5938C122.266 21.0312 122.453 21.4271 122.703 21.7812C122.953 22.1354 123.26 22.4219 123.625 22.6406C124 22.8594 124.432 22.9688 124.922 22.9688C125.411 22.9688 125.849 22.875 126.234 22.6875C126.63 22.4896 126.964 22.2292 127.234 21.9062C127.505 21.5729 127.714 21.1927 127.859 20.7656C128.005 20.3385 128.078 19.8958 128.078 19.4375ZM154.312 16.5938C154.312 17.6042 154.161 18.5 153.859 19.2812C153.557 20.0625 153.141 20.75 152.609 21.3438C152.089 21.9271 151.474 22.4219 150.766 22.8281C150.057 23.224 149.297 23.5521 148.484 23.8125C147.682 24.0625 146.849 24.25 145.984 24.375C145.12 24.4896 144.271 24.5521 143.438 24.5625V31.2188H136.156C136.156 30.0312 136.156 28.875 136.156 27.75C136.167 26.625 136.172 25.5104 136.172 24.4062C136.182 23.2917 136.188 22.1719 136.188 21.0469C136.198 19.9219 136.208 18.7604 136.219 17.5625C136.24 16.2917 136.245 15.0208 136.234 13.75C136.224 12.4792 136.25 11.1979 136.312 9.90625C137.646 9.51042 138.979 9.21354 140.312 9.01562C141.646 8.81771 143.021 8.71875 144.438 8.71875C145.24 8.71875 146.042 8.78646 146.844 8.92188C147.646 9.04688 148.411 9.25 149.141 9.53125C149.88 9.8125 150.562 10.1667 151.188 10.5938C151.823 11.0104 152.37 11.5104 152.828 12.0938C153.286 12.6771 153.646 13.3438 153.906 14.0938C154.177 14.8438 154.312 15.6771 154.312 16.5938ZM147.375 17.125C147.375 16.4479 147.167 15.9219 146.75 15.5469C146.344 15.1615 145.812 14.9688 145.156 14.9688C144.938 14.9688 144.708 14.9896 144.469 15.0312C144.24 15.0625 144.021 15.1042 143.812 15.1562L143.625 19.7188C143.771 19.7396 143.911 19.75 144.047 19.75C144.182 19.75 144.323 19.75 144.469 19.75C144.844 19.75 145.203 19.6875 145.547 19.5625C145.901 19.4375 146.214 19.2604 146.484 19.0312C146.755 18.7917 146.969 18.5156 147.125 18.2031C147.292 17.8802 147.375 17.5208 147.375 17.125ZM169.891 9L168.172 30.2812L161.578 30.625V9.4375L169.891 9ZM185.641 14.4688L178.484 23.5H185.078L185.297 30.125L171.359 30.6875L170.734 24.5625L178.891 14.5625L170.797 15.125L170.734 8.84375H185.359L185.641 14.4688ZM206.562 29.6562L198.812 30.6562L197.875 27.125H194.312L193.531 30.6562L185.562 29.875L191.781 9.0625L200.469 8.625L206.562 29.6562ZM197.312 22.3438L196.125 16.9062L194.969 22.3438H197.312ZM233.984 9.3125L230.328 30.3438L221.453 30.5312L219.547 19.9375L217.641 29.7188L208.766 30.0312L205.078 9.9375L212.828 9.25L214.391 21.5938L216.484 10.1875H222.578L225.016 21.75L226.266 8.625L233.984 9.3125ZM253.406 29.6562L245.656 30.6562L244.719 27.125H241.156L240.375 30.6562L232.406 29.875L238.625 9.0625L247.312 8.625L253.406 29.6562ZM244.156 22.3438L242.969 16.9062L241.812 22.3438H244.156Z" fill="#04508E"/>
</svg>
